M48
; DRILL file {KiCad (6.0.6)} date Fri Nov 25 13:48:02 2022
; FORMAT={-:-/ absolute / inch / decimal}
; #@! TF.CreationDate,2022-11-25T13:48:02+01:00
; #@! TF.GenerationSoftware,Kicad,Pcbnew,(6.0.6)
; #@! TF.FileFunction,Plated,1,2,PTH
FMAT,2
INCH
; #@! TA.AperFunction,Plated,PTH,ViaDrill
T1C0.0157
; #@! TA.AperFunction,Plated,PTH,ComponentDrill
T2C0.0394
%
G90
G05
T1
X1.95Y-4.025
X1.96Y-3.78
X2.025Y-3.725
X2.1822Y-3.7902
X2.184Y-3.444
X2.27Y-3.716
X2.336Y-3.88
X2.338Y-3.94
X2.3875Y-3.6049
X2.3975Y-3.706
X2.398Y-3.8
X2.436Y-3.754
X2.454Y-3.966
X2.48Y-3.74
X2.486Y-3.63
X2.496Y-3.4315
X2.504Y-3.958
X2.56Y-3.72
X2.57Y-3.368
X2.598Y-3.768
X2.604Y-3.652
X2.684Y-3.516
X2.74Y-3.74
X2.74Y-3.88
X2.762Y-3.368
X2.778Y-3.612
X2.78Y-4.04
X2.794Y-4.208
X2.84Y-3.68
X2.856Y-3.574
X2.9119Y-3.4519
X2.948Y-3.424
X2.98Y-4.04
X3.0Y-3.7
X3.04Y-3.92
X3.08Y-3.44
X3.13Y-3.734
T2
X1.675Y-3.65
X1.675Y-3.75
X1.775Y-4.375
X1.875Y-4.375
X1.975Y-4.375
X2.075Y-4.375
X2.175Y-4.375
X2.275Y-4.375
X2.375Y-4.375
X2.475Y-4.375
X2.575Y-4.375
X2.7754Y-4.375
X2.8754Y-4.375
X2.9754Y-4.375
X3.0754Y-4.375
X3.26Y-3.5756
X3.26Y-3.6756
X3.26Y-3.7756
X3.3498Y-3.9256
X3.3498Y-4.0256
X3.3498Y-4.1256
X3.3498Y-4.2256
X3.36Y-3.5756
X3.36Y-3.6756
X3.36Y-3.7756
T0
M30
