%TF.GenerationSoftware,KiCad,Pcbnew,(6.0.6)*%
%TF.CreationDate,2022-11-25T13:48:06+01:00*%
%TF.ProjectId,MCU DataLogger,4d435520-4461-4746-914c-6f676765722e,1*%
%TF.SameCoordinates,Original*%
%TF.FileFunction,Soldermask,Top*%
%TF.FilePolarity,Negative*%
%FSLAX46Y46*%
G04 Gerber Fmt 4.6, Leading zero omitted, Abs format (unit mm)*
G04 Created by KiCad (PCBNEW (6.0.6)) date 2022-11-25 13:48:06*
%MOMM*%
%LPD*%
G01*
G04 APERTURE LIST*
G04 Aperture macros list*
%AMRoundRect*
0 Rectangle with rounded corners*
0 $1 Rounding radius*
0 $2 $3 $4 $5 $6 $7 $8 $9 X,Y pos of 4 corners*
0 Add a 4 corners polygon primitive as box body*
4,1,4,$2,$3,$4,$5,$6,$7,$8,$9,$2,$3,0*
0 Add four circle primitives for the rounded corners*
1,1,$1+$1,$2,$3*
1,1,$1+$1,$4,$5*
1,1,$1+$1,$6,$7*
1,1,$1+$1,$8,$9*
0 Add four rect primitives between the rounded corners*
20,1,$1+$1,$2,$3,$4,$5,0*
20,1,$1+$1,$4,$5,$6,$7,0*
20,1,$1+$1,$6,$7,$8,$9,0*
20,1,$1+$1,$8,$9,$2,$3,0*%
G04 Aperture macros list end*
%ADD10RoundRect,0.250000X-0.250000X-0.475000X0.250000X-0.475000X0.250000X0.475000X-0.250000X0.475000X0*%
%ADD11R,1.700000X1.700000*%
%ADD12O,1.700000X1.700000*%
%ADD13C,2.100000*%
%ADD14RoundRect,0.250000X0.250000X0.475000X-0.250000X0.475000X-0.250000X-0.475000X0.250000X-0.475000X0*%
%ADD15R,3.500000X2.400000*%
%ADD16RoundRect,0.243750X-0.243750X-0.456250X0.243750X-0.456250X0.243750X0.456250X-0.243750X0.456250X0*%
%ADD17RoundRect,0.250000X-0.262500X-0.450000X0.262500X-0.450000X0.262500X0.450000X-0.262500X0.450000X0*%
%ADD18RoundRect,0.250000X0.262500X0.450000X-0.262500X0.450000X-0.262500X-0.450000X0.262500X-0.450000X0*%
%ADD19R,2.400000X3.500000*%
%ADD20RoundRect,0.150000X-0.650000X-0.150000X0.650000X-0.150000X0.650000X0.150000X-0.650000X0.150000X0*%
%ADD21R,1.500000X0.550000*%
%ADD22R,0.550000X1.500000*%
%ADD23RoundRect,0.041300X-0.943700X-0.253700X0.943700X-0.253700X0.943700X0.253700X-0.943700X0.253700X0*%
G04 APERTURE END LIST*
D10*
%TO.C,C1*%
X57470000Y-85725000D03*
X59370000Y-85725000D03*
%TD*%
D11*
%TO.C,BT1*%
X42545000Y-92710000D03*
D12*
X42545000Y-95250000D03*
%TD*%
D13*
%TO.C,H4*%
X86360000Y-111760000D03*
%TD*%
D14*
%TO.C,C2*%
X73962500Y-100076000D03*
X72062500Y-100076000D03*
%TD*%
D15*
%TO.C,Y2*%
X65465000Y-103505000D03*
X60265000Y-103505000D03*
%TD*%
D16*
%TO.C,D2*%
X72057500Y-85760000D03*
X73932500Y-85760000D03*
%TD*%
D13*
%TO.C,H2*%
X40640000Y-111760000D03*
%TD*%
D17*
%TO.C,R3*%
X47298600Y-106375200D03*
X49123600Y-106375200D03*
%TD*%
D18*
%TO.C,R1*%
X74005000Y-95285000D03*
X72180000Y-95285000D03*
%TD*%
D10*
%TO.C,C5*%
X66680000Y-85725000D03*
X68580000Y-85725000D03*
%TD*%
D19*
%TO.C,Y1*%
X42545000Y-106105000D03*
X42545000Y-100905000D03*
%TD*%
D17*
%TO.C,R7*%
X72137500Y-88935000D03*
X73962500Y-88935000D03*
%TD*%
D20*
%TO.C,U2*%
X46565000Y-85725000D03*
X46565000Y-86995000D03*
X46565000Y-88265000D03*
X46565000Y-89535000D03*
X53765000Y-89535000D03*
X53765000Y-88265000D03*
X53765000Y-86995000D03*
X53765000Y-85725000D03*
%TD*%
D11*
%TO.C,J3*%
X45085000Y-111125000D03*
D12*
X47625000Y-111125000D03*
X50165000Y-111125000D03*
X52705000Y-111125000D03*
X55245000Y-111125000D03*
X57785000Y-111125000D03*
X60325000Y-111125000D03*
X62865000Y-111125000D03*
X65405000Y-111125000D03*
%TD*%
D21*
%TO.C,U4*%
X59200000Y-91180000D03*
X59200000Y-91980000D03*
X59200000Y-92780000D03*
X59200000Y-93580000D03*
X59200000Y-94380000D03*
X59200000Y-95180000D03*
X59200000Y-95980000D03*
X59200000Y-96780000D03*
D22*
X60700000Y-98280000D03*
X61500000Y-98280000D03*
X62300000Y-98280000D03*
X63100000Y-98280000D03*
X63900000Y-98280000D03*
X64700000Y-98280000D03*
X65500000Y-98280000D03*
X66300000Y-98280000D03*
D21*
X67800000Y-96780000D03*
X67800000Y-95980000D03*
X67800000Y-95180000D03*
X67800000Y-94380000D03*
X67800000Y-93580000D03*
X67800000Y-92780000D03*
X67800000Y-91980000D03*
X67800000Y-91180000D03*
D22*
X66300000Y-89680000D03*
X65500000Y-89680000D03*
X64700000Y-89680000D03*
X63900000Y-89680000D03*
X63100000Y-89680000D03*
X62300000Y-89680000D03*
X61500000Y-89680000D03*
X60700000Y-89680000D03*
%TD*%
D11*
%TO.C,J2*%
X70495000Y-111125000D03*
D12*
X73035000Y-111125000D03*
X75575000Y-111125000D03*
X78115000Y-111125000D03*
%TD*%
D13*
%TO.C,H3*%
X86360000Y-86360000D03*
%TD*%
D20*
%TO.C,U1*%
X53765000Y-92710000D03*
X53765000Y-93980000D03*
X53765000Y-95250000D03*
X53765000Y-96520000D03*
X46565000Y-96520000D03*
X46565000Y-95250000D03*
X46565000Y-93980000D03*
X46565000Y-92710000D03*
%TD*%
D13*
%TO.C,H1*%
X40640000Y-86360000D03*
%TD*%
D16*
%TO.C,D1*%
X76532500Y-85760000D03*
X78407500Y-85760000D03*
%TD*%
D10*
%TO.C,C3*%
X61600000Y-85725000D03*
X63500000Y-85725000D03*
%TD*%
D12*
%TO.C,J4*%
X85344000Y-95900000D03*
X82804000Y-95900000D03*
X85344000Y-93360000D03*
X82804000Y-93360000D03*
X85344000Y-90820000D03*
D11*
X82804000Y-90820000D03*
%TD*%
D18*
%TO.C,R2*%
X74005000Y-92110000D03*
X72180000Y-92110000D03*
%TD*%
D23*
%TO.C,U3*%
X47690000Y-99695000D03*
X47690000Y-100965000D03*
X47690000Y-102235000D03*
X47690000Y-103505000D03*
X52640000Y-103505000D03*
X52640000Y-102235000D03*
X52640000Y-100965000D03*
X52640000Y-99695000D03*
%TD*%
D14*
%TO.C,C4*%
X73975000Y-102806000D03*
X72075000Y-102806000D03*
%TD*%
D11*
%TO.C,J1*%
X85085000Y-99710000D03*
D12*
X85085000Y-102250000D03*
X85085000Y-104790000D03*
X85085000Y-107330000D03*
%TD*%
D17*
%TO.C,R6*%
X76582500Y-92110000D03*
X78407500Y-92110000D03*
%TD*%
D18*
%TO.C,R4*%
X52959000Y-106375200D03*
X51134000Y-106375200D03*
%TD*%
%TO.C,R5*%
X78327500Y-88935000D03*
X76502500Y-88935000D03*
%TD*%
M02*
