%TF.GenerationSoftware,KiCad,Pcbnew,(6.0.6)*%
%TF.CreationDate,2022-11-25T13:48:06+01:00*%
%TF.ProjectId,MCU DataLogger,4d435520-4461-4746-914c-6f676765722e,1*%
%TF.SameCoordinates,Original*%
%TF.FileFunction,Copper,L2,Bot*%
%TF.FilePolarity,Positive*%
%FSLAX46Y46*%
G04 Gerber Fmt 4.6, Leading zero omitted, Abs format (unit mm)*
G04 Created by KiCad (PCBNEW (6.0.6)) date 2022-11-25 13:48:06*
%MOMM*%
%LPD*%
G01*
G04 APERTURE LIST*
%TA.AperFunction,ComponentPad*%
%ADD10R,1.700000X1.700000*%
%TD*%
%TA.AperFunction,ComponentPad*%
%ADD11O,1.700000X1.700000*%
%TD*%
%TA.AperFunction,ViaPad*%
%ADD12C,0.900000*%
%TD*%
%TA.AperFunction,ViaPad*%
%ADD13C,0.800000*%
%TD*%
%TA.AperFunction,Conductor*%
%ADD14C,0.250000*%
%TD*%
G04 APERTURE END LIST*
D10*
%TO.P,BT1,1,+*%
%TO.N,/Vcc*%
X42545000Y-92710000D03*
D11*
%TO.P,BT1,2,-*%
%TO.N,GND*%
X42545000Y-95250000D03*
%TD*%
D10*
%TO.P,J3,1,Pin_1*%
%TO.N,/D2*%
X45085000Y-111125000D03*
D11*
%TO.P,J3,2,Pin_2*%
%TO.N,/D3*%
X47625000Y-111125000D03*
%TO.P,J3,3,Pin_3*%
%TO.N,/D4*%
X50165000Y-111125000D03*
%TO.P,J3,4,Pin_4*%
%TO.N,/D5*%
X52705000Y-111125000D03*
%TO.P,J3,5,Pin_5*%
%TO.N,/D6*%
X55245000Y-111125000D03*
%TO.P,J3,6,Pin_6*%
%TO.N,/D7*%
X57785000Y-111125000D03*
%TO.P,J3,7,Pin_7*%
%TO.N,/D8*%
X60325000Y-111125000D03*
%TO.P,J3,8,Pin_8*%
%TO.N,GND*%
X62865000Y-111125000D03*
%TO.P,J3,9,Pin_9*%
%TO.N,/Vcc*%
X65405000Y-111125000D03*
%TD*%
D10*
%TO.P,J2,1,Pin_1*%
%TO.N,GND*%
X70495000Y-111125000D03*
D11*
%TO.P,J2,2,Pin_2*%
%TO.N,/Vcc*%
X73035000Y-111125000D03*
%TO.P,J2,3,Pin_3*%
%TO.N,/RX*%
X75575000Y-111125000D03*
%TO.P,J2,4,Pin_4*%
%TO.N,/TX*%
X78115000Y-111125000D03*
%TD*%
%TO.P,J4,6,Pin_6*%
%TO.N,GND*%
X85344000Y-95900000D03*
%TO.P,J4,5,Pin_5*%
%TO.N,/RESET*%
X82804000Y-95900000D03*
%TO.P,J4,4,Pin_4*%
%TO.N,/MOSI*%
X85344000Y-93360000D03*
%TO.P,J4,3,Pin_3*%
%TO.N,/SCK*%
X82804000Y-93360000D03*
%TO.P,J4,2,Pin_2*%
%TO.N,/Vcc*%
X85344000Y-90820000D03*
D10*
%TO.P,J4,1,Pin_1*%
%TO.N,/MISO*%
X82804000Y-90820000D03*
%TD*%
%TO.P,J1,1,Pin_1*%
%TO.N,GND*%
X85085000Y-99710000D03*
D11*
%TO.P,J1,2,Pin_2*%
%TO.N,/Vcc*%
X85085000Y-102250000D03*
%TO.P,J1,3,Pin_3*%
%TO.N,/SDA*%
X85085000Y-104790000D03*
%TO.P,J1,4,Pin_4*%
%TO.N,/SCK*%
X85085000Y-107330000D03*
%TD*%
D12*
%TO.N,GND*%
X55473600Y-87477600D03*
X70967600Y-106883200D03*
X66141600Y-92760800D03*
X57658000Y-94386400D03*
X70154800Y-85547200D03*
D13*
%TO.N,/Vcc*%
X65278000Y-85547200D03*
%TO.N,/SCK*%
X79502000Y-94843600D03*
%TO.N,/Vcc*%
X74879200Y-86969600D03*
X65989200Y-95707200D03*
X60896700Y-94132400D03*
%TO.N,Net-(C3-Pad2)*%
X63398400Y-87159500D03*
X60909200Y-96520000D03*
%TO.N,/RESET*%
X63144400Y-92202000D03*
X68173600Y-89306400D03*
X72542400Y-90779600D03*
X70561200Y-91744800D03*
%TO.N,/D8*%
X63601600Y-100533200D03*
%TO.N,/D7*%
X62331600Y-100736400D03*
%TO.N,/D6*%
X59385200Y-100076000D03*
%TO.N,/D5*%
X59334400Y-98552000D03*
D12*
%TO.N,/D2*%
X60643500Y-91564236D03*
D13*
%TO.N,/SCK*%
X49784000Y-96012000D03*
X55427099Y-96270299D03*
%TO.N,/Vcc*%
X69596000Y-94996000D03*
%TO.N,/MISO*%
X69596000Y-98552000D03*
%TO.N,/TX*%
X61874400Y-95351600D03*
%TO.N,/RX*%
X62992000Y-94996000D03*
%TO.N,Net-(U4-Pad20)*%
X65024000Y-94488000D03*
X70612000Y-102616000D03*
D12*
%TO.N,GND*%
X75692000Y-102616000D03*
D13*
%TO.N,/SDA*%
X72136000Y-93472000D03*
X77216000Y-99568000D03*
D12*
%TO.N,/Vcc*%
X76200000Y-93980000D03*
%TO.N,GND*%
X78232000Y-87376000D03*
D13*
X73962500Y-87678500D03*
D12*
X51435000Y-94615000D03*
X49530000Y-102235000D03*
%TD*%
D14*
%TO.N,/Vcc*%
X65989200Y-94030800D02*
X65989200Y-95707200D01*
X61316100Y-93713000D02*
X65671400Y-93713000D01*
X60896700Y-94132400D02*
X61316100Y-93713000D01*
X65671400Y-93713000D02*
X65989200Y-94030800D01*
%TO.N,/TX*%
X77597000Y-111125000D02*
X78115000Y-111125000D01*
X64008000Y-97536000D02*
X77597000Y-111125000D01*
X64008000Y-94488000D02*
X64008000Y-97536000D01*
X63791000Y-94271000D02*
X64008000Y-94488000D01*
X62691695Y-94271000D02*
X63791000Y-94271000D01*
X61874400Y-95088295D02*
X62691695Y-94271000D01*
X61874400Y-95351600D02*
X61874400Y-95088295D01*
%TO.N,GND*%
X57658000Y-94386400D02*
X57429400Y-94615000D01*
X57429400Y-94615000D02*
X51435000Y-94615000D01*
%TO.N,/D2*%
X56489600Y-98370384D02*
X45085000Y-109774984D01*
X57585616Y-98370384D02*
X56489600Y-98370384D01*
X59518500Y-93495194D02*
X59518500Y-96437500D01*
X59518500Y-96437500D02*
X57585616Y-98370384D01*
X60643500Y-92370194D02*
X59518500Y-93495194D01*
X45085000Y-109774984D02*
X45085000Y-111125000D01*
X60643500Y-91564236D02*
X60643500Y-92370194D01*
%TO.N,/Vcc*%
X64922400Y-85902800D02*
X64922400Y-86309200D01*
X64922400Y-86309200D02*
X48945800Y-86309200D01*
X65278000Y-85547200D02*
X64922400Y-85902800D01*
X69494400Y-86309200D02*
X64922400Y-86309200D01*
%TO.N,/SCK*%
X79502000Y-94843600D02*
X81320400Y-94843600D01*
X81320400Y-94843600D02*
X82804000Y-93360000D01*
%TO.N,/Vcc*%
X69611300Y-86903500D02*
X69494400Y-87020400D01*
X74813100Y-86903500D02*
X69611300Y-86903500D01*
X69494400Y-94894400D02*
X69494400Y-87020400D01*
X74879200Y-86969600D02*
X74813100Y-86903500D01*
X69494400Y-87020400D02*
X69494400Y-86309200D01*
X48945800Y-86309200D02*
X42545000Y-92710000D01*
X69596000Y-94996000D02*
X69494400Y-94894400D01*
%TO.N,/RESET*%
X71526400Y-90779600D02*
X70561200Y-91744800D01*
X72542400Y-90779600D02*
X71526400Y-90779600D01*
%TO.N,Net-(C3-Pad2)*%
X61976000Y-88581900D02*
X63398400Y-87159500D01*
X60018500Y-93702300D02*
X61976000Y-91744800D01*
X61976000Y-91744800D02*
X61976000Y-88581900D01*
X60018500Y-95629300D02*
X60018500Y-93702300D01*
X60909200Y-96520000D02*
X60018500Y-95629300D01*
%TO.N,/RESET*%
X65278000Y-92202000D02*
X63144400Y-92202000D01*
X68173600Y-89306400D02*
X65278000Y-92202000D01*
%TO.N,/D8*%
X60325000Y-103809800D02*
X63601600Y-100533200D01*
X60325000Y-111125000D02*
X60325000Y-103809800D01*
%TO.N,/D7*%
X62077600Y-100990400D02*
X62331600Y-100736400D01*
X57759600Y-100990400D02*
X62077600Y-100990400D01*
X57048400Y-101701600D02*
X57759600Y-100990400D01*
X57048400Y-108915200D02*
X57048400Y-101701600D01*
X57785000Y-111125000D02*
X57785000Y-109651800D01*
X57785000Y-109651800D02*
X57048400Y-108915200D01*
%TO.N,/D6*%
X57600000Y-100076000D02*
X59385200Y-100076000D01*
X56584000Y-101092000D02*
X57600000Y-100076000D01*
X56584000Y-109786000D02*
X56584000Y-101092000D01*
X55245000Y-111125000D02*
X56584000Y-109786000D01*
%TO.N,/D5*%
X58470800Y-98552000D02*
X59334400Y-98552000D01*
X56134000Y-100888800D02*
X58470800Y-98552000D01*
X52705000Y-111125000D02*
X56134000Y-107696000D01*
X56134000Y-107696000D02*
X56134000Y-100888800D01*
%TO.N,/SCK*%
X50292000Y-96520000D02*
X49784000Y-96012000D01*
X55177398Y-96520000D02*
X50292000Y-96520000D01*
X55427099Y-96270299D02*
X55177398Y-96520000D01*
%TO.N,/RX*%
X75575000Y-109739396D02*
X75575000Y-111125000D01*
X62992000Y-97156396D02*
X75575000Y-109739396D01*
X62992000Y-94996000D02*
X62992000Y-97156396D01*
%TO.N,/MISO*%
X69596000Y-98044000D02*
X69596000Y-98552000D01*
X73762695Y-90820000D02*
X71411000Y-93171695D01*
X82804000Y-90820000D02*
X73762695Y-90820000D01*
X71411000Y-93171695D02*
X71411000Y-96229000D01*
X71411000Y-96229000D02*
X69596000Y-98044000D01*
%TO.N,Net-(U4-Pad20)*%
X65024000Y-97915604D02*
X65024000Y-94488000D01*
X69724396Y-102616000D02*
X65024000Y-97915604D01*
X70612000Y-102616000D02*
X69724396Y-102616000D01*
%TO.N,/Vcc*%
X87376000Y-104541000D02*
X85085000Y-102250000D01*
X83312000Y-109220000D02*
X87376000Y-109220000D01*
X82296000Y-110236000D02*
X83312000Y-109220000D01*
X82296000Y-113284000D02*
X82296000Y-110236000D01*
X87376000Y-109220000D02*
X87376000Y-104541000D01*
X73152000Y-113284000D02*
X82296000Y-113284000D01*
X73035000Y-113167000D02*
X73152000Y-113284000D01*
X73035000Y-111125000D02*
X73035000Y-113167000D01*
%TO.N,/SDA*%
X73152000Y-93472000D02*
X72136000Y-93472000D01*
X77216000Y-97536000D02*
X73152000Y-93472000D01*
X77216000Y-99568000D02*
X77216000Y-97536000D01*
%TO.N,/Vcc*%
X76815000Y-93980000D02*
X76200000Y-93980000D01*
X85085000Y-102250000D02*
X76815000Y-93980000D01*
%TD*%
%TA.AperFunction,Conductor*%
%TO.N,GND*%
G36*
X83762121Y-84145302D02*
G01*
X83808614Y-84198958D01*
X83820000Y-84251300D01*
X83820000Y-88798400D01*
X88468700Y-88798400D01*
X88536821Y-88818402D01*
X88583314Y-88872058D01*
X88594700Y-88924400D01*
X88594700Y-109195600D01*
X88574698Y-109263721D01*
X88521042Y-109310214D01*
X88468700Y-109321600D01*
X88135500Y-109321600D01*
X88067379Y-109301598D01*
X88020886Y-109247942D01*
X88009500Y-109195600D01*
X88009500Y-104619767D01*
X88010027Y-104608584D01*
X88011702Y-104601091D01*
X88009562Y-104533014D01*
X88009500Y-104529055D01*
X88009500Y-104501144D01*
X88008995Y-104497144D01*
X88008062Y-104485301D01*
X88006922Y-104449029D01*
X88006673Y-104441110D01*
X88001022Y-104421658D01*
X87997014Y-104402306D01*
X87995467Y-104390063D01*
X87994474Y-104382203D01*
X87991556Y-104374832D01*
X87978200Y-104341097D01*
X87974355Y-104329870D01*
X87969921Y-104314610D01*
X87962018Y-104287407D01*
X87957984Y-104280585D01*
X87957981Y-104280579D01*
X87951706Y-104269968D01*
X87943010Y-104252218D01*
X87938472Y-104240756D01*
X87938469Y-104240751D01*
X87935552Y-104233383D01*
X87909573Y-104197625D01*
X87903057Y-104187707D01*
X87884575Y-104156457D01*
X87880542Y-104149637D01*
X87866218Y-104135313D01*
X87853376Y-104120278D01*
X87847653Y-104112401D01*
X87841472Y-104103893D01*
X87807406Y-104075711D01*
X87798627Y-104067722D01*
X86436218Y-102705313D01*
X86402192Y-102643001D01*
X86404755Y-102579589D01*
X86407498Y-102570563D01*
X86417370Y-102538069D01*
X86446529Y-102316590D01*
X86448156Y-102250000D01*
X86429852Y-102027361D01*
X86375431Y-101810702D01*
X86286354Y-101605840D01*
X86180167Y-101441700D01*
X86167822Y-101422617D01*
X86167820Y-101422614D01*
X86165014Y-101418277D01*
X86161540Y-101414459D01*
X86161533Y-101414450D01*
X86017435Y-101256088D01*
X85986383Y-101192242D01*
X85994779Y-101121744D01*
X86039956Y-101066976D01*
X86066400Y-101053307D01*
X86173052Y-101013325D01*
X86188649Y-101004786D01*
X86290724Y-100928285D01*
X86303285Y-100915724D01*
X86379786Y-100813649D01*
X86388324Y-100798054D01*
X86433478Y-100677606D01*
X86437105Y-100662351D01*
X86442631Y-100611486D01*
X86443000Y-100604672D01*
X86443000Y-99982115D01*
X86438525Y-99966876D01*
X86437135Y-99965671D01*
X86429452Y-99964000D01*
X83747095Y-99964000D01*
X83678974Y-99943998D01*
X83658000Y-99927095D01*
X83168790Y-99437885D01*
X83727000Y-99437885D01*
X83731475Y-99453124D01*
X83732865Y-99454329D01*
X83740548Y-99456000D01*
X84812885Y-99456000D01*
X84828124Y-99451525D01*
X84829329Y-99450135D01*
X84831000Y-99442452D01*
X84831000Y-99437885D01*
X85339000Y-99437885D01*
X85343475Y-99453124D01*
X85344865Y-99454329D01*
X85352548Y-99456000D01*
X86424884Y-99456000D01*
X86440123Y-99451525D01*
X86441328Y-99450135D01*
X86442999Y-99442452D01*
X86442999Y-98815331D01*
X86442629Y-98808510D01*
X86437105Y-98757648D01*
X86433479Y-98742396D01*
X86388324Y-98621946D01*
X86379786Y-98606351D01*
X86303285Y-98504276D01*
X86290724Y-98491715D01*
X86188649Y-98415214D01*
X86173054Y-98406676D01*
X86052606Y-98361522D01*
X86037351Y-98357895D01*
X85986486Y-98352369D01*
X85979672Y-98352000D01*
X85357115Y-98352000D01*
X85341876Y-98356475D01*
X85340671Y-98357865D01*
X85339000Y-98365548D01*
X85339000Y-99437885D01*
X84831000Y-99437885D01*
X84831000Y-98370116D01*
X84826525Y-98354877D01*
X84825135Y-98353672D01*
X84817452Y-98352001D01*
X84190331Y-98352001D01*
X84183510Y-98352371D01*
X84132648Y-98357895D01*
X84117396Y-98361521D01*
X83996946Y-98406676D01*
X83981351Y-98415214D01*
X83879276Y-98491715D01*
X83866715Y-98504276D01*
X83790214Y-98606351D01*
X83781676Y-98621946D01*
X83736522Y-98742394D01*
X83732895Y-98757649D01*
X83727369Y-98808514D01*
X83727000Y-98815328D01*
X83727000Y-99437885D01*
X83168790Y-99437885D01*
X81425946Y-97695041D01*
X86917300Y-97695041D01*
X86994823Y-97762254D01*
X87001379Y-97768360D01*
X87026640Y-97793621D01*
X87032746Y-97800177D01*
X87103691Y-97882005D01*
X87109316Y-97888979D01*
X87196584Y-98005421D01*
X87201699Y-98012777D01*
X87260319Y-98103824D01*
X87264898Y-98111523D01*
X87282054Y-98142858D01*
X87286074Y-98150865D01*
X87331204Y-98249321D01*
X87334646Y-98257594D01*
X87385726Y-98393849D01*
X87388263Y-98401321D01*
X87416089Y-98492555D01*
X87418153Y-98500169D01*
X87425434Y-98530794D01*
X87427017Y-98538520D01*
X87438191Y-98603300D01*
X87554800Y-98603300D01*
X87554800Y-97077300D01*
X87406861Y-97077300D01*
X87388706Y-97110529D01*
X87386136Y-97115011D01*
X87375501Y-97132710D01*
X87372750Y-97137083D01*
X87338402Y-97189273D01*
X87335473Y-97193530D01*
X87205164Y-97374874D01*
X87202064Y-97379008D01*
X87163552Y-97428213D01*
X87160284Y-97432215D01*
X87146902Y-97447939D01*
X87143473Y-97451806D01*
X87101054Y-97497695D01*
X87097469Y-97501416D01*
X86939292Y-97659043D01*
X86935558Y-97662615D01*
X86917300Y-97679375D01*
X86917300Y-97695041D01*
X81425946Y-97695041D01*
X79667167Y-95936262D01*
X79633141Y-95873950D01*
X79638206Y-95803135D01*
X79680753Y-95746299D01*
X79730064Y-95723921D01*
X79777824Y-95713769D01*
X79777833Y-95713766D01*
X79784288Y-95712394D01*
X79803413Y-95703879D01*
X79952722Y-95637403D01*
X79952724Y-95637402D01*
X79958752Y-95634718D01*
X79981215Y-95618398D01*
X80107914Y-95526345D01*
X80113253Y-95522466D01*
X80117668Y-95517563D01*
X80122580Y-95513140D01*
X80123705Y-95514389D01*
X80177014Y-95481549D01*
X80210200Y-95477100D01*
X81241633Y-95477100D01*
X81252816Y-95477627D01*
X81260309Y-95479302D01*
X81268235Y-95479053D01*
X81268236Y-95479053D01*
X81328386Y-95477162D01*
X81332345Y-95477100D01*
X81345735Y-95477100D01*
X81413856Y-95497102D01*
X81460349Y-95550758D01*
X81470453Y-95621032D01*
X81467154Y-95636762D01*
X81464989Y-95644570D01*
X81441251Y-95866695D01*
X81441548Y-95871848D01*
X81441548Y-95871851D01*
X81451842Y-96050388D01*
X81454110Y-96089715D01*
X81455247Y-96094761D01*
X81455248Y-96094767D01*
X81461577Y-96122848D01*
X81503222Y-96307639D01*
X81587266Y-96514616D01*
X81703987Y-96705088D01*
X81850250Y-96873938D01*
X82022126Y-97016632D01*
X82215000Y-97129338D01*
X82219825Y-97131180D01*
X82219826Y-97131181D01*
X82263622Y-97147905D01*
X82423692Y-97209030D01*
X82428760Y-97210061D01*
X82428763Y-97210062D01*
X82518814Y-97228383D01*
X82642597Y-97253567D01*
X82647772Y-97253757D01*
X82647774Y-97253757D01*
X82860673Y-97261564D01*
X82860677Y-97261564D01*
X82865837Y-97261753D01*
X82870957Y-97261097D01*
X82870959Y-97261097D01*
X83082288Y-97234025D01*
X83082289Y-97234025D01*
X83087416Y-97233368D01*
X83092366Y-97231883D01*
X83296429Y-97170661D01*
X83296434Y-97170659D01*
X83301384Y-97169174D01*
X83501994Y-97070896D01*
X83683860Y-96941173D01*
X83697186Y-96927894D01*
X83838435Y-96787137D01*
X83842096Y-96783489D01*
X83890444Y-96716206D01*
X83972453Y-96602077D01*
X83973640Y-96602930D01*
X84020960Y-96559362D01*
X84090897Y-96547145D01*
X84156338Y-96574678D01*
X84184166Y-96606511D01*
X84241694Y-96700388D01*
X84247777Y-96708699D01*
X84387213Y-96869667D01*
X84394580Y-96876883D01*
X84558434Y-97012916D01*
X84566881Y-97018831D01*
X84750756Y-97126279D01*
X84760042Y-97130729D01*
X84959001Y-97206703D01*
X84968899Y-97209579D01*
X85072250Y-97230606D01*
X85086299Y-97229410D01*
X85090000Y-97219065D01*
X85090000Y-97218517D01*
X85598000Y-97218517D01*
X85602064Y-97232359D01*
X85615478Y-97234393D01*
X85622184Y-97233534D01*
X85632262Y-97231392D01*
X85836255Y-97170191D01*
X85845842Y-97166433D01*
X86037095Y-97072739D01*
X86045945Y-97067464D01*
X86219328Y-96943792D01*
X86227200Y-96937139D01*
X86378052Y-96786812D01*
X86384730Y-96778965D01*
X86509003Y-96606020D01*
X86514313Y-96597183D01*
X86608670Y-96406267D01*
X86612469Y-96396672D01*
X86674377Y-96192910D01*
X86676555Y-96182837D01*
X86677986Y-96171962D01*
X86675775Y-96157778D01*
X86662617Y-96154000D01*
X85616115Y-96154000D01*
X85600876Y-96158475D01*
X85599671Y-96159865D01*
X85598000Y-96167548D01*
X85598000Y-97218517D01*
X85090000Y-97218517D01*
X85090000Y-95772000D01*
X85110002Y-95703879D01*
X85163658Y-95657386D01*
X85216000Y-95646000D01*
X86662344Y-95646000D01*
X86675875Y-95642027D01*
X86677180Y-95632947D01*
X86635214Y-95465875D01*
X86631894Y-95456124D01*
X86546972Y-95260814D01*
X86542105Y-95251739D01*
X86426426Y-95072926D01*
X86420136Y-95064757D01*
X86276806Y-94907240D01*
X86269273Y-94900215D01*
X86102139Y-94768222D01*
X86093556Y-94762520D01*
X86056602Y-94742120D01*
X86006631Y-94691687D01*
X85991859Y-94622245D01*
X86016975Y-94555839D01*
X86044327Y-94529232D01*
X86111287Y-94481470D01*
X86223860Y-94401173D01*
X86244606Y-94380500D01*
X86378435Y-94247137D01*
X86382096Y-94243489D01*
X86416738Y-94195280D01*
X86509435Y-94066277D01*
X86512453Y-94062077D01*
X86532833Y-94020842D01*
X86609136Y-93866453D01*
X86609137Y-93866451D01*
X86611430Y-93861811D01*
X86676370Y-93648069D01*
X86705529Y-93426590D01*
X86705611Y-93423240D01*
X86707074Y-93363365D01*
X86707074Y-93363361D01*
X86707156Y-93360000D01*
X86688852Y-93137361D01*
X86634431Y-92920702D01*
X86545354Y-92715840D01*
X86479066Y-92613374D01*
X86426822Y-92532617D01*
X86426820Y-92532614D01*
X86424014Y-92528277D01*
X86273670Y-92363051D01*
X86269619Y-92359852D01*
X86269615Y-92359848D01*
X86102414Y-92227800D01*
X86102410Y-92227798D01*
X86098359Y-92224598D01*
X86057053Y-92201796D01*
X86007084Y-92151364D01*
X85992312Y-92081921D01*
X86017428Y-92015516D01*
X86044780Y-91988909D01*
X86088603Y-91957650D01*
X86223860Y-91861173D01*
X86276749Y-91808469D01*
X86367616Y-91717918D01*
X86382096Y-91703489D01*
X86512453Y-91522077D01*
X86539348Y-91467660D01*
X86609136Y-91326453D01*
X86609137Y-91326451D01*
X86611430Y-91321811D01*
X86676370Y-91108069D01*
X86705529Y-90886590D01*
X86707156Y-90820000D01*
X86688852Y-90597361D01*
X86634431Y-90380702D01*
X86545354Y-90175840D01*
X86494254Y-90096851D01*
X86426822Y-89992617D01*
X86426820Y-89992614D01*
X86424014Y-89988277D01*
X86273670Y-89823051D01*
X86269619Y-89819852D01*
X86269615Y-89819848D01*
X86102414Y-89687800D01*
X86102410Y-89687798D01*
X86098359Y-89684598D01*
X85902789Y-89576638D01*
X85897920Y-89574914D01*
X85897916Y-89574912D01*
X85697087Y-89503795D01*
X85697083Y-89503794D01*
X85692212Y-89502069D01*
X85687119Y-89501162D01*
X85687116Y-89501161D01*
X85477373Y-89463800D01*
X85477367Y-89463799D01*
X85472284Y-89462894D01*
X85398452Y-89461992D01*
X85254081Y-89460228D01*
X85254079Y-89460228D01*
X85248911Y-89460165D01*
X85028091Y-89493955D01*
X84815756Y-89563357D01*
X84617607Y-89666507D01*
X84613474Y-89669610D01*
X84613471Y-89669612D01*
X84443100Y-89797530D01*
X84438965Y-89800635D01*
X84382518Y-89859704D01*
X84358283Y-89885064D01*
X84296759Y-89920494D01*
X84225846Y-89917037D01*
X84168060Y-89875791D01*
X84149207Y-89842243D01*
X84107767Y-89731703D01*
X84104615Y-89723295D01*
X84017261Y-89606739D01*
X83900705Y-89519385D01*
X83764316Y-89468255D01*
X83702134Y-89461500D01*
X81905866Y-89461500D01*
X81843684Y-89468255D01*
X81707295Y-89519385D01*
X81590739Y-89606739D01*
X81503385Y-89723295D01*
X81452255Y-89859684D01*
X81445500Y-89921866D01*
X81445500Y-90060500D01*
X81425498Y-90128621D01*
X81371842Y-90175114D01*
X81319500Y-90186500D01*
X73841462Y-90186500D01*
X73830279Y-90185973D01*
X73822786Y-90184298D01*
X73814860Y-90184547D01*
X73814859Y-90184547D01*
X73754696Y-90186438D01*
X73750738Y-90186500D01*
X73722839Y-90186500D01*
X73718849Y-90187004D01*
X73707015Y-90187936D01*
X73662806Y-90189326D01*
X73655192Y-90191538D01*
X73655187Y-90191539D01*
X73643354Y-90194977D01*
X73623991Y-90198988D01*
X73603898Y-90201526D01*
X73596531Y-90204443D01*
X73596526Y-90204444D01*
X73562787Y-90217802D01*
X73551560Y-90221646D01*
X73509102Y-90233982D01*
X73502276Y-90238019D01*
X73491667Y-90244293D01*
X73473919Y-90252988D01*
X73455078Y-90260448D01*
X73448660Y-90265111D01*
X73441716Y-90268928D01*
X73440657Y-90267001D01*
X73384403Y-90287074D01*
X73315251Y-90270996D01*
X73282454Y-90241743D01*
X73281440Y-90242656D01*
X73158075Y-90105645D01*
X73158074Y-90105644D01*
X73153653Y-90100734D01*
X73054557Y-90028736D01*
X73004494Y-89992363D01*
X73004493Y-89992362D01*
X72999152Y-89988482D01*
X72993124Y-89985798D01*
X72993122Y-89985797D01*
X72830719Y-89913491D01*
X72830718Y-89913491D01*
X72824688Y-89910806D01*
X72731287Y-89890953D01*
X72644344Y-89872472D01*
X72644339Y-89872472D01*
X72637887Y-89871100D01*
X72446913Y-89871100D01*
X72440461Y-89872472D01*
X72440456Y-89872472D01*
X72353513Y-89890953D01*
X72260112Y-89910806D01*
X72254082Y-89913491D01*
X72254081Y-89913491D01*
X72091678Y-89985797D01*
X72091676Y-89985798D01*
X72085648Y-89988482D01*
X72080307Y-89992362D01*
X72080306Y-89992363D01*
X71998899Y-90051509D01*
X71931147Y-90100734D01*
X71926732Y-90105637D01*
X71921820Y-90110060D01*
X71920695Y-90108811D01*
X71867386Y-90141651D01*
X71834200Y-90146100D01*
X71605167Y-90146100D01*
X71593984Y-90145573D01*
X71586491Y-90143898D01*
X71578565Y-90144147D01*
X71578564Y-90144147D01*
X71518401Y-90146038D01*
X71514443Y-90146100D01*
X71486544Y-90146100D01*
X71482554Y-90146604D01*
X71470720Y-90147536D01*
X71426511Y-90148926D01*
X71418897Y-90151138D01*
X71418892Y-90151139D01*
X71407059Y-90154577D01*
X71387696Y-90158588D01*
X71367603Y-90161126D01*
X71360236Y-90164043D01*
X71360231Y-90164044D01*
X71326492Y-90177402D01*
X71315265Y-90181246D01*
X71272807Y-90193582D01*
X71265981Y-90197619D01*
X71255372Y-90203893D01*
X71237624Y-90212588D01*
X71218783Y-90220048D01*
X71212367Y-90224710D01*
X71212366Y-90224710D01*
X71183013Y-90246036D01*
X71173093Y-90252552D01*
X71141865Y-90271020D01*
X71141862Y-90271022D01*
X71135038Y-90275058D01*
X71120717Y-90289379D01*
X71105684Y-90302219D01*
X71089293Y-90314128D01*
X71084243Y-90320232D01*
X71084238Y-90320237D01*
X71061107Y-90348198D01*
X71053117Y-90356979D01*
X70610699Y-90799396D01*
X70548387Y-90833421D01*
X70521604Y-90836300D01*
X70465713Y-90836300D01*
X70459261Y-90837672D01*
X70459256Y-90837672D01*
X70280097Y-90875754D01*
X70209306Y-90870352D01*
X70152674Y-90827535D01*
X70128180Y-90760897D01*
X70127900Y-90752507D01*
X70127900Y-88443300D01*
X76757300Y-88443300D01*
X77416557Y-88443300D01*
X79297300Y-88443300D01*
X80823300Y-88443300D01*
X81837300Y-88443300D01*
X82678000Y-88443300D01*
X82678000Y-86917300D01*
X81837300Y-86917300D01*
X81837300Y-88443300D01*
X80823300Y-88443300D01*
X80823300Y-86917300D01*
X79497607Y-86917300D01*
X79500738Y-86925903D01*
X79555808Y-87131425D01*
X79559622Y-87153056D01*
X79578166Y-87365019D01*
X79578166Y-87386981D01*
X79559622Y-87598944D01*
X79555808Y-87620575D01*
X79500738Y-87826097D01*
X79493226Y-87846735D01*
X79403305Y-88039572D01*
X79392323Y-88058593D01*
X79297300Y-88194299D01*
X79297300Y-88443300D01*
X77416557Y-88443300D01*
X77375114Y-88414281D01*
X77358290Y-88400163D01*
X77207837Y-88249710D01*
X77193719Y-88232886D01*
X77071677Y-88058593D01*
X77060695Y-88039572D01*
X76970774Y-87846735D01*
X76963262Y-87826097D01*
X76908192Y-87620575D01*
X76904378Y-87598944D01*
X76885834Y-87386981D01*
X76885834Y-87365019D01*
X76904378Y-87153056D01*
X76908192Y-87131425D01*
X76963262Y-86925903D01*
X76966393Y-86917300D01*
X76804136Y-86917300D01*
X76805841Y-86949836D01*
X76806014Y-86956430D01*
X76806014Y-86982770D01*
X76805841Y-86989364D01*
X76801667Y-87069014D01*
X76801150Y-87075590D01*
X76781188Y-87265518D01*
X76780327Y-87272060D01*
X76767848Y-87350846D01*
X76766645Y-87357332D01*
X76761168Y-87383098D01*
X76759628Y-87389513D01*
X76757300Y-87398201D01*
X76757300Y-88443300D01*
X70127900Y-88443300D01*
X70127900Y-87663000D01*
X70147902Y-87594879D01*
X70201558Y-87548386D01*
X70253900Y-87537000D01*
X74111485Y-87537000D01*
X74179606Y-87557002D01*
X74205116Y-87578685D01*
X74267947Y-87648466D01*
X74422448Y-87760718D01*
X74428476Y-87763402D01*
X74428478Y-87763403D01*
X74590881Y-87835709D01*
X74596912Y-87838394D01*
X74690313Y-87858247D01*
X74777256Y-87876728D01*
X74777261Y-87876728D01*
X74783713Y-87878100D01*
X74974687Y-87878100D01*
X74981139Y-87876728D01*
X74981144Y-87876728D01*
X75068087Y-87858247D01*
X75161488Y-87838394D01*
X75167519Y-87835709D01*
X75329922Y-87763403D01*
X75329924Y-87763402D01*
X75335952Y-87760718D01*
X75490453Y-87648466D01*
X75553280Y-87578690D01*
X75613821Y-87511452D01*
X75613822Y-87511451D01*
X75618240Y-87506544D01*
X75705327Y-87355706D01*
X75710423Y-87346879D01*
X75710424Y-87346878D01*
X75713727Y-87341156D01*
X75772742Y-87159528D01*
X75775603Y-87132313D01*
X75792014Y-86976165D01*
X75792704Y-86969600D01*
X75790627Y-86949836D01*
X75773432Y-86786235D01*
X75773432Y-86786233D01*
X75772742Y-86779672D01*
X75713727Y-86598044D01*
X75618240Y-86432656D01*
X75490453Y-86290734D01*
X75335952Y-86178482D01*
X75329924Y-86175798D01*
X75329922Y-86175797D01*
X75167519Y-86103491D01*
X75167518Y-86103491D01*
X75161488Y-86100806D01*
X75068088Y-86080953D01*
X74981144Y-86062472D01*
X74981139Y-86062472D01*
X74974687Y-86061100D01*
X74783713Y-86061100D01*
X74777261Y-86062472D01*
X74777256Y-86062472D01*
X74690312Y-86080953D01*
X74596912Y-86100806D01*
X74590882Y-86103491D01*
X74590881Y-86103491D01*
X74428478Y-86175797D01*
X74428476Y-86175798D01*
X74422448Y-86178482D01*
X74417107Y-86182362D01*
X74417106Y-86182363D01*
X74329606Y-86245936D01*
X74262738Y-86269794D01*
X74255545Y-86270000D01*
X70239309Y-86270000D01*
X70171188Y-86249998D01*
X70124695Y-86196342D01*
X70119465Y-86182903D01*
X70119068Y-86181680D01*
X70113906Y-86158569D01*
X70113868Y-86158265D01*
X70113867Y-86158260D01*
X70112874Y-86150403D01*
X70109958Y-86143038D01*
X70109957Y-86143034D01*
X70092201Y-86098189D01*
X70089529Y-86090770D01*
X70072164Y-86037325D01*
X70067914Y-86030628D01*
X70067750Y-86030369D01*
X70056985Y-86009242D01*
X70056871Y-86008954D01*
X70056868Y-86008949D01*
X70053952Y-86001583D01*
X70049296Y-85995175D01*
X70049293Y-85995169D01*
X70020942Y-85956148D01*
X70016492Y-85949601D01*
X69987109Y-85903300D01*
X76757300Y-85903300D01*
X78283300Y-85903300D01*
X79297300Y-85903300D01*
X80823300Y-85903300D01*
X81837300Y-85903300D01*
X82678000Y-85903300D01*
X82678000Y-85165200D01*
X81837300Y-85165200D01*
X81837300Y-85903300D01*
X80823300Y-85903300D01*
X80823300Y-85165200D01*
X79297300Y-85165200D01*
X79297300Y-85903300D01*
X78283300Y-85903300D01*
X78283300Y-85165200D01*
X76757300Y-85165200D01*
X76757300Y-85903300D01*
X69987109Y-85903300D01*
X69986400Y-85902182D01*
X69980393Y-85896541D01*
X69964712Y-85878754D01*
X69964534Y-85878509D01*
X69964532Y-85878507D01*
X69959872Y-85872093D01*
X69932970Y-85849837D01*
X69916604Y-85836297D01*
X69910670Y-85831066D01*
X69875502Y-85798042D01*
X69875499Y-85798040D01*
X69869721Y-85792614D01*
X69862497Y-85788642D01*
X69842894Y-85775319D01*
X69842654Y-85775120D01*
X69842647Y-85775116D01*
X69836544Y-85770067D01*
X69785724Y-85746153D01*
X69778692Y-85742571D01*
X69729460Y-85715505D01*
X69721785Y-85713535D01*
X69721779Y-85713532D01*
X69721481Y-85713456D01*
X69699172Y-85705424D01*
X69698897Y-85705294D01*
X69698889Y-85705291D01*
X69691718Y-85701917D01*
X69636551Y-85691394D01*
X69628842Y-85689671D01*
X69594051Y-85680738D01*
X69582107Y-85677671D01*
X69582106Y-85677671D01*
X69574430Y-85675700D01*
X69566193Y-85675700D01*
X69542584Y-85673468D01*
X69542281Y-85673410D01*
X69542277Y-85673410D01*
X69534494Y-85671925D01*
X69478449Y-85675451D01*
X69470538Y-85675700D01*
X66316814Y-85675700D01*
X66248693Y-85655698D01*
X66202200Y-85602042D01*
X66191102Y-85551024D01*
X66191504Y-85547200D01*
X66171542Y-85357272D01*
X66112527Y-85175644D01*
X66017040Y-85010256D01*
X65889253Y-84868334D01*
X65734752Y-84756082D01*
X65728724Y-84753398D01*
X65728722Y-84753397D01*
X65566319Y-84681091D01*
X65566318Y-84681091D01*
X65560288Y-84678406D01*
X65466887Y-84658553D01*
X65379944Y-84640072D01*
X65379939Y-84640072D01*
X65373487Y-84638700D01*
X65182513Y-84638700D01*
X65176061Y-84640072D01*
X65176056Y-84640072D01*
X65089113Y-84658553D01*
X64995712Y-84678406D01*
X64989682Y-84681091D01*
X64989681Y-84681091D01*
X64827278Y-84753397D01*
X64827276Y-84753398D01*
X64821248Y-84756082D01*
X64666747Y-84868334D01*
X64538960Y-85010256D01*
X64443473Y-85175644D01*
X64384458Y-85357272D01*
X64364496Y-85547200D01*
X64364871Y-85550772D01*
X64345184Y-85617821D01*
X64291528Y-85664314D01*
X64239186Y-85675700D01*
X49024567Y-85675700D01*
X49013384Y-85675173D01*
X49005891Y-85673498D01*
X48997965Y-85673747D01*
X48997964Y-85673747D01*
X48937814Y-85675638D01*
X48933855Y-85675700D01*
X48905944Y-85675700D01*
X48902010Y-85676197D01*
X48902009Y-85676197D01*
X48901944Y-85676205D01*
X48890107Y-85677138D01*
X48858290Y-85678138D01*
X48853829Y-85678278D01*
X48845910Y-85678527D01*
X48828254Y-85683656D01*
X48826458Y-85684178D01*
X48807106Y-85688186D01*
X48800035Y-85689080D01*
X48787003Y-85690726D01*
X48779634Y-85693643D01*
X48779632Y-85693644D01*
X48745897Y-85707000D01*
X48734669Y-85710845D01*
X48692207Y-85723182D01*
X48685385Y-85727216D01*
X48685379Y-85727219D01*
X48674768Y-85733494D01*
X48657018Y-85742190D01*
X48645556Y-85746728D01*
X48645551Y-85746731D01*
X48638183Y-85749648D01*
X48631768Y-85754309D01*
X48602425Y-85775627D01*
X48592507Y-85782143D01*
X48581258Y-85788796D01*
X48554437Y-85804658D01*
X48540113Y-85818982D01*
X48525081Y-85831821D01*
X48508693Y-85843728D01*
X48480512Y-85877793D01*
X48472522Y-85886573D01*
X43044500Y-91314595D01*
X42982188Y-91348621D01*
X42955405Y-91351500D01*
X41646866Y-91351500D01*
X41584684Y-91358255D01*
X41448295Y-91409385D01*
X41331739Y-91496739D01*
X41244385Y-91613295D01*
X41193255Y-91749684D01*
X41186500Y-91811866D01*
X41186500Y-93608134D01*
X41193255Y-93670316D01*
X41244385Y-93806705D01*
X41331739Y-93923261D01*
X41448295Y-94010615D01*
X41456704Y-94013767D01*
X41456705Y-94013768D01*
X41565960Y-94054726D01*
X41622725Y-94097367D01*
X41647425Y-94163929D01*
X41632218Y-94233278D01*
X41612825Y-94259759D01*
X41489590Y-94388717D01*
X41483104Y-94396727D01*
X41363098Y-94572649D01*
X41358000Y-94581623D01*
X41268338Y-94774783D01*
X41264775Y-94784470D01*
X41209389Y-94984183D01*
X41210912Y-94992607D01*
X41223292Y-94996000D01*
X43863344Y-94996000D01*
X43876875Y-94992027D01*
X43878180Y-94982947D01*
X43836214Y-94815875D01*
X43832894Y-94806124D01*
X43747972Y-94610814D01*
X43743105Y-94601739D01*
X43627426Y-94422926D01*
X43621136Y-94414757D01*
X43477293Y-94256677D01*
X43446241Y-94192831D01*
X43454635Y-94122333D01*
X43499812Y-94067564D01*
X43526256Y-94053895D01*
X43633297Y-94013767D01*
X43641705Y-94010615D01*
X43758261Y-93923261D01*
X43845615Y-93806705D01*
X43896745Y-93670316D01*
X43903500Y-93608134D01*
X43903500Y-93523300D01*
X46277300Y-93523300D01*
X47803300Y-93523300D01*
X48817300Y-93523300D01*
X50343300Y-93523300D01*
X50343300Y-93274671D01*
X51357300Y-93274671D01*
X51424019Y-93268834D01*
X51445981Y-93268834D01*
X51657944Y-93287378D01*
X51679575Y-93291192D01*
X51885097Y-93346262D01*
X51905734Y-93353774D01*
X52098572Y-93443695D01*
X52117594Y-93454677D01*
X52215596Y-93523300D01*
X52883300Y-93523300D01*
X53897300Y-93523300D01*
X55423300Y-93523300D01*
X56437300Y-93523300D01*
X56624933Y-93523300D01*
X56633837Y-93512690D01*
X56784290Y-93362237D01*
X56801114Y-93348119D01*
X56975407Y-93226077D01*
X56994428Y-93215095D01*
X57187265Y-93125174D01*
X57207903Y-93117662D01*
X57413425Y-93062592D01*
X57435056Y-93058778D01*
X57647019Y-93040234D01*
X57668981Y-93040234D01*
X57880944Y-93058778D01*
X57902575Y-93062592D01*
X57923704Y-93068254D01*
X57926167Y-93057237D01*
X57928136Y-93049570D01*
X57936948Y-93019242D01*
X57939394Y-93011715D01*
X57957715Y-92960829D01*
X57963300Y-92943640D01*
X57963300Y-91997300D01*
X56437300Y-91997300D01*
X56437300Y-93523300D01*
X55423300Y-93523300D01*
X55423300Y-91997300D01*
X53897300Y-91997300D01*
X53897300Y-93523300D01*
X52883300Y-93523300D01*
X52883300Y-91997300D01*
X51357300Y-91997300D01*
X51357300Y-93274671D01*
X50343300Y-93274671D01*
X50343300Y-91997300D01*
X48817300Y-91997300D01*
X48817300Y-93523300D01*
X47803300Y-93523300D01*
X47803300Y-91997300D01*
X46277300Y-91997300D01*
X46277300Y-93523300D01*
X43903500Y-93523300D01*
X43903500Y-92299594D01*
X43923502Y-92231473D01*
X43940405Y-92210499D01*
X45167604Y-90983300D01*
X46601614Y-90983300D01*
X47803300Y-90983300D01*
X48817300Y-90983300D01*
X50343300Y-90983300D01*
X51357300Y-90983300D01*
X52883300Y-90983300D01*
X53897300Y-90983300D01*
X55423300Y-90983300D01*
X56437300Y-90983300D01*
X57963300Y-90983300D01*
X57963300Y-90503558D01*
X58977300Y-90503558D01*
X59002336Y-90462863D01*
X59005689Y-90457700D01*
X59019582Y-90437410D01*
X59023183Y-90432417D01*
X59068191Y-90373121D01*
X59072032Y-90368309D01*
X59192858Y-90224314D01*
X59196931Y-90219695D01*
X59247526Y-90165058D01*
X59251820Y-90160642D01*
X59269390Y-90143437D01*
X59273892Y-90139239D01*
X59329549Y-90089826D01*
X59334250Y-90085854D01*
X59480743Y-89968070D01*
X59485633Y-89964331D01*
X59545847Y-89920582D01*
X59550913Y-89917087D01*
X59571490Y-89903621D01*
X59576724Y-89900375D01*
X59640954Y-89862690D01*
X59646341Y-89859704D01*
X59812922Y-89772618D01*
X59818445Y-89769900D01*
X59886019Y-89738676D01*
X59891670Y-89736231D01*
X59914470Y-89727019D01*
X59920233Y-89724853D01*
X59990546Y-89700367D01*
X59996409Y-89698484D01*
X60176733Y-89645412D01*
X60182682Y-89643818D01*
X60255065Y-89626308D01*
X60261085Y-89625007D01*
X60285240Y-89620400D01*
X60291312Y-89619395D01*
X60328500Y-89614169D01*
X60328500Y-89457300D01*
X58977300Y-89457300D01*
X58977300Y-90503558D01*
X57963300Y-90503558D01*
X57963300Y-89457300D01*
X56437300Y-89457300D01*
X56437300Y-90983300D01*
X55423300Y-90983300D01*
X55423300Y-89457300D01*
X53897300Y-89457300D01*
X53897300Y-90983300D01*
X52883300Y-90983300D01*
X52883300Y-89457300D01*
X51357300Y-89457300D01*
X51357300Y-90983300D01*
X50343300Y-90983300D01*
X50343300Y-89457300D01*
X48817300Y-89457300D01*
X48817300Y-90983300D01*
X47803300Y-90983300D01*
X47803300Y-89781614D01*
X46601614Y-90983300D01*
X45167604Y-90983300D01*
X47707604Y-88443300D01*
X51357300Y-88443300D01*
X52883300Y-88443300D01*
X56437300Y-88443300D01*
X57963300Y-88443300D01*
X58977300Y-88443300D01*
X60331935Y-88443300D01*
X60334756Y-88398465D01*
X60335500Y-88390586D01*
X60339458Y-88359252D01*
X60340697Y-88351433D01*
X60358627Y-88257435D01*
X60360352Y-88249716D01*
X60360936Y-88247443D01*
X60361305Y-88245111D01*
X60362788Y-88237340D01*
X60383667Y-88143943D01*
X60385636Y-88136276D01*
X60394448Y-88105948D01*
X60396894Y-88098421D01*
X60415215Y-88047535D01*
X60431938Y-87996067D01*
X60434619Y-87988621D01*
X60446245Y-87959256D01*
X60447351Y-87956700D01*
X58977300Y-87956700D01*
X58977300Y-88443300D01*
X57963300Y-88443300D01*
X57963300Y-87956700D01*
X56730925Y-87956700D01*
X56644905Y-88141172D01*
X56633923Y-88160193D01*
X56511881Y-88334486D01*
X56497763Y-88351310D01*
X56437300Y-88411773D01*
X56437300Y-88443300D01*
X52883300Y-88443300D01*
X52883300Y-87956700D01*
X51357300Y-87956700D01*
X51357300Y-88443300D01*
X47707604Y-88443300D01*
X49171299Y-86979605D01*
X49233611Y-86945579D01*
X49260394Y-86942700D01*
X62367745Y-86942700D01*
X62435866Y-86962702D01*
X62482359Y-87016358D01*
X62493055Y-87081870D01*
X62487754Y-87132313D01*
X62487493Y-87134792D01*
X62460480Y-87200449D01*
X62451278Y-87210717D01*
X61583747Y-88078248D01*
X61575461Y-88085788D01*
X61568982Y-88089900D01*
X61563557Y-88095677D01*
X61522357Y-88139551D01*
X61519602Y-88142393D01*
X61499865Y-88162130D01*
X61497385Y-88165327D01*
X61489682Y-88174347D01*
X61459414Y-88206579D01*
X61455595Y-88213525D01*
X61455593Y-88213528D01*
X61449652Y-88224334D01*
X61438801Y-88240853D01*
X61426386Y-88256859D01*
X61423241Y-88264128D01*
X61423238Y-88264132D01*
X61408826Y-88297437D01*
X61403609Y-88308087D01*
X61382305Y-88346840D01*
X61380334Y-88354515D01*
X61380334Y-88354516D01*
X61377267Y-88366462D01*
X61370863Y-88385166D01*
X61362819Y-88403755D01*
X61361580Y-88411578D01*
X61361577Y-88411588D01*
X61355901Y-88447424D01*
X61353495Y-88459044D01*
X61342500Y-88501870D01*
X61342500Y-88522124D01*
X61340949Y-88541834D01*
X61337780Y-88561843D01*
X61338526Y-88569735D01*
X61341941Y-88605861D01*
X61342500Y-88617719D01*
X61342500Y-90641130D01*
X61322498Y-90709251D01*
X61268842Y-90755744D01*
X61198568Y-90765848D01*
X61156572Y-90751966D01*
X61077571Y-90709251D01*
X61016731Y-90676355D01*
X60837166Y-90620770D01*
X60831041Y-90620126D01*
X60831040Y-90620126D01*
X60656352Y-90601765D01*
X60656351Y-90601765D01*
X60650224Y-90601121D01*
X60573173Y-90608133D01*
X60469165Y-90617599D01*
X60469162Y-90617600D01*
X60463026Y-90618158D01*
X60457120Y-90619896D01*
X60457116Y-90619897D01*
X60384973Y-90641130D01*
X60282702Y-90671230D01*
X60277242Y-90674084D01*
X60277243Y-90674084D01*
X60127233Y-90752507D01*
X60116121Y-90758316D01*
X59969628Y-90876100D01*
X59965670Y-90880818D01*
X59965667Y-90880820D01*
X59945642Y-90904685D01*
X59848802Y-91020095D01*
X59845838Y-91025487D01*
X59845835Y-91025491D01*
X59803258Y-91102939D01*
X59758246Y-91184816D01*
X59701409Y-91363988D01*
X59680456Y-91550788D01*
X59680972Y-91556932D01*
X59694794Y-91721531D01*
X59696185Y-91738101D01*
X59747997Y-91918791D01*
X59750812Y-91924268D01*
X59750813Y-91924271D01*
X59815119Y-92049397D01*
X59833918Y-92085976D01*
X59837743Y-92090802D01*
X59837745Y-92090805D01*
X59851685Y-92108392D01*
X59878324Y-92174202D01*
X59865154Y-92243966D01*
X59842036Y-92275753D01*
X59126247Y-92991542D01*
X59117961Y-92999082D01*
X59111482Y-93003194D01*
X59106057Y-93008971D01*
X59064857Y-93052845D01*
X59062102Y-93055687D01*
X59042365Y-93075424D01*
X59039885Y-93078621D01*
X59032182Y-93087641D01*
X59001914Y-93119873D01*
X58998095Y-93126819D01*
X58998093Y-93126822D01*
X58992152Y-93137628D01*
X58981301Y-93154147D01*
X58968886Y-93170153D01*
X58965741Y-93177422D01*
X58965738Y-93177426D01*
X58951326Y-93210731D01*
X58946109Y-93221381D01*
X58924805Y-93260134D01*
X58922834Y-93267809D01*
X58922834Y-93267810D01*
X58919767Y-93279756D01*
X58913363Y-93298460D01*
X58910054Y-93306108D01*
X58905319Y-93317049D01*
X58904080Y-93324872D01*
X58904077Y-93324882D01*
X58898401Y-93360718D01*
X58895995Y-93372338D01*
X58889727Y-93396753D01*
X58885000Y-93415164D01*
X58885000Y-93435418D01*
X58883449Y-93455128D01*
X58880280Y-93475137D01*
X58881026Y-93483029D01*
X58884441Y-93519155D01*
X58885000Y-93531013D01*
X58885000Y-96122906D01*
X58864998Y-96191027D01*
X58848095Y-96212001D01*
X57360116Y-97699979D01*
X57297804Y-97734005D01*
X57271021Y-97736884D01*
X56568367Y-97736884D01*
X56557184Y-97736357D01*
X56549691Y-97734682D01*
X56541765Y-97734931D01*
X56541764Y-97734931D01*
X56481614Y-97736822D01*
X56477655Y-97736884D01*
X56449744Y-97736884D01*
X56445810Y-97737381D01*
X56445809Y-97737381D01*
X56445744Y-97737389D01*
X56433907Y-97738322D01*
X56401649Y-97739336D01*
X56397630Y-97739462D01*
X56389711Y-97739711D01*
X56370257Y-97745363D01*
X56350900Y-97749371D01*
X56338670Y-97750916D01*
X56338669Y-97750916D01*
X56330803Y-97751910D01*
X56323432Y-97754829D01*
X56323430Y-97754829D01*
X56289688Y-97768188D01*
X56278458Y-97772033D01*
X56243617Y-97782155D01*
X56243616Y-97782155D01*
X56236007Y-97784366D01*
X56229188Y-97788399D01*
X56229183Y-97788401D01*
X56218572Y-97794677D01*
X56200824Y-97803372D01*
X56181983Y-97810832D01*
X56175567Y-97815494D01*
X56175566Y-97815494D01*
X56146213Y-97836820D01*
X56136293Y-97843336D01*
X56105065Y-97861804D01*
X56105062Y-97861806D01*
X56098238Y-97865842D01*
X56083917Y-97880163D01*
X56068884Y-97893003D01*
X56052493Y-97904912D01*
X56047442Y-97911018D01*
X56024302Y-97938989D01*
X56016312Y-97947768D01*
X44692747Y-109271332D01*
X44684461Y-109278872D01*
X44677982Y-109282984D01*
X44672557Y-109288761D01*
X44631357Y-109332635D01*
X44628602Y-109335477D01*
X44608865Y-109355214D01*
X44606385Y-109358411D01*
X44598682Y-109367431D01*
X44568414Y-109399663D01*
X44564595Y-109406609D01*
X44564593Y-109406612D01*
X44558652Y-109417418D01*
X44547801Y-109433937D01*
X44535386Y-109449943D01*
X44532241Y-109457212D01*
X44532238Y-109457216D01*
X44517826Y-109490521D01*
X44512609Y-109501171D01*
X44491305Y-109539924D01*
X44489334Y-109547599D01*
X44489334Y-109547600D01*
X44486267Y-109559546D01*
X44479863Y-109578250D01*
X44471819Y-109596839D01*
X44470580Y-109604662D01*
X44470577Y-109604672D01*
X44464901Y-109640508D01*
X44462495Y-109652128D01*
X44457436Y-109671833D01*
X44421123Y-109732840D01*
X44357591Y-109764529D01*
X44335394Y-109766500D01*
X44186866Y-109766500D01*
X44124684Y-109773255D01*
X43988295Y-109824385D01*
X43871739Y-109911739D01*
X43784385Y-110028295D01*
X43733255Y-110164684D01*
X43726500Y-110226866D01*
X43726500Y-112023134D01*
X43733255Y-112085316D01*
X43784385Y-112221705D01*
X43871739Y-112338261D01*
X43988295Y-112425615D01*
X44124684Y-112476745D01*
X44186866Y-112483500D01*
X45983134Y-112483500D01*
X46045316Y-112476745D01*
X46181705Y-112425615D01*
X46298261Y-112338261D01*
X46385615Y-112221705D01*
X46407799Y-112162529D01*
X46429598Y-112104382D01*
X46472240Y-112047618D01*
X46538802Y-112022918D01*
X46608150Y-112038126D01*
X46642817Y-112066114D01*
X46671250Y-112098938D01*
X46843126Y-112241632D01*
X47036000Y-112354338D01*
X47244692Y-112434030D01*
X47249760Y-112435061D01*
X47249763Y-112435062D01*
X47322095Y-112449778D01*
X47463597Y-112478567D01*
X47468772Y-112478757D01*
X47468774Y-112478757D01*
X47681673Y-112486564D01*
X47681677Y-112486564D01*
X47686837Y-112486753D01*
X47691957Y-112486097D01*
X47691959Y-112486097D01*
X47903288Y-112459025D01*
X47903289Y-112459025D01*
X47908416Y-112458368D01*
X47913366Y-112456883D01*
X48117429Y-112395661D01*
X48117434Y-112395659D01*
X48122384Y-112394174D01*
X48322994Y-112295896D01*
X48504860Y-112166173D01*
X48663096Y-112008489D01*
X48793453Y-111827077D01*
X48794776Y-111828028D01*
X48841645Y-111784857D01*
X48911580Y-111772625D01*
X48977026Y-111800144D01*
X49004875Y-111831994D01*
X49064987Y-111930088D01*
X49211250Y-112098938D01*
X49383126Y-112241632D01*
X49576000Y-112354338D01*
X49784692Y-112434030D01*
X49789760Y-112435061D01*
X49789763Y-112435062D01*
X49862095Y-112449778D01*
X50003597Y-112478567D01*
X50008772Y-112478757D01*
X50008774Y-112478757D01*
X50221673Y-112486564D01*
X50221677Y-112486564D01*
X50226837Y-112486753D01*
X50231957Y-112486097D01*
X50231959Y-112486097D01*
X50443288Y-112459025D01*
X50443289Y-112459025D01*
X50448416Y-112458368D01*
X50453366Y-112456883D01*
X50657429Y-112395661D01*
X50657434Y-112395659D01*
X50662384Y-112394174D01*
X50862994Y-112295896D01*
X51044860Y-112166173D01*
X51203096Y-112008489D01*
X51333453Y-111827077D01*
X51334776Y-111828028D01*
X51381645Y-111784857D01*
X51451580Y-111772625D01*
X51517026Y-111800144D01*
X51544875Y-111831994D01*
X51604987Y-111930088D01*
X51751250Y-112098938D01*
X51923126Y-112241632D01*
X52116000Y-112354338D01*
X52324692Y-112434030D01*
X52329760Y-112435061D01*
X52329763Y-112435062D01*
X52402095Y-112449778D01*
X52543597Y-112478567D01*
X52548772Y-112478757D01*
X52548774Y-112478757D01*
X52761673Y-112486564D01*
X52761677Y-112486564D01*
X52766837Y-112486753D01*
X52771957Y-112486097D01*
X52771959Y-112486097D01*
X52983288Y-112459025D01*
X52983289Y-112459025D01*
X52988416Y-112458368D01*
X52993366Y-112456883D01*
X53197429Y-112395661D01*
X53197434Y-112395659D01*
X53202384Y-112394174D01*
X53402994Y-112295896D01*
X53584860Y-112166173D01*
X53743096Y-112008489D01*
X53873453Y-111827077D01*
X53874776Y-111828028D01*
X53921645Y-111784857D01*
X53991580Y-111772625D01*
X54057026Y-111800144D01*
X54084875Y-111831994D01*
X54144987Y-111930088D01*
X54291250Y-112098938D01*
X54463126Y-112241632D01*
X54656000Y-112354338D01*
X54864692Y-112434030D01*
X54869760Y-112435061D01*
X54869763Y-112435062D01*
X54942095Y-112449778D01*
X55083597Y-112478567D01*
X55088772Y-112478757D01*
X55088774Y-112478757D01*
X55301673Y-112486564D01*
X55301677Y-112486564D01*
X55306837Y-112486753D01*
X55311957Y-112486097D01*
X55311959Y-112486097D01*
X55523288Y-112459025D01*
X55523289Y-112459025D01*
X55528416Y-112458368D01*
X55533366Y-112456883D01*
X55737429Y-112395661D01*
X55737434Y-112395659D01*
X55742384Y-112394174D01*
X55942994Y-112295896D01*
X56124860Y-112166173D01*
X56283096Y-112008489D01*
X56413453Y-111827077D01*
X56414776Y-111828028D01*
X56461645Y-111784857D01*
X56531580Y-111772625D01*
X56597026Y-111800144D01*
X56624875Y-111831994D01*
X56684987Y-111930088D01*
X56831250Y-112098938D01*
X57003126Y-112241632D01*
X57196000Y-112354338D01*
X57404692Y-112434030D01*
X57409760Y-112435061D01*
X57409763Y-112435062D01*
X57482095Y-112449778D01*
X57623597Y-112478567D01*
X57628772Y-112478757D01*
X57628774Y-112478757D01*
X57841673Y-112486564D01*
X57841677Y-112486564D01*
X57846837Y-112486753D01*
X57851957Y-112486097D01*
X57851959Y-112486097D01*
X58063288Y-112459025D01*
X58063289Y-112459025D01*
X58068416Y-112458368D01*
X58073366Y-112456883D01*
X58277429Y-112395661D01*
X58277434Y-112395659D01*
X58282384Y-112394174D01*
X58482994Y-112295896D01*
X58664860Y-112166173D01*
X58823096Y-112008489D01*
X58953453Y-111827077D01*
X58954776Y-111828028D01*
X59001645Y-111784857D01*
X59071580Y-111772625D01*
X59137026Y-111800144D01*
X59164875Y-111831994D01*
X59224987Y-111930088D01*
X59371250Y-112098938D01*
X59543126Y-112241632D01*
X59736000Y-112354338D01*
X59944692Y-112434030D01*
X59949760Y-112435061D01*
X59949763Y-112435062D01*
X60022095Y-112449778D01*
X60163597Y-112478567D01*
X60168772Y-112478757D01*
X60168774Y-112478757D01*
X60381673Y-112486564D01*
X60381677Y-112486564D01*
X60386837Y-112486753D01*
X60391957Y-112486097D01*
X60391959Y-112486097D01*
X60603288Y-112459025D01*
X60603289Y-112459025D01*
X60608416Y-112458368D01*
X60613366Y-112456883D01*
X60817429Y-112395661D01*
X60817434Y-112395659D01*
X60822384Y-112394174D01*
X61022994Y-112295896D01*
X61204860Y-112166173D01*
X61363096Y-112008489D01*
X61493453Y-111827077D01*
X61494640Y-111827930D01*
X61541960Y-111784362D01*
X61611897Y-111772145D01*
X61677338Y-111799678D01*
X61705166Y-111831511D01*
X61762694Y-111925388D01*
X61768777Y-111933699D01*
X61908213Y-112094667D01*
X61915580Y-112101883D01*
X62079434Y-112237916D01*
X62087881Y-112243831D01*
X62271756Y-112351279D01*
X62281042Y-112355729D01*
X62480001Y-112431703D01*
X62489899Y-112434579D01*
X62593250Y-112455606D01*
X62607299Y-112454410D01*
X62611000Y-112444065D01*
X62611000Y-112443517D01*
X63119000Y-112443517D01*
X63123064Y-112457359D01*
X63136478Y-112459393D01*
X63143184Y-112458534D01*
X63153262Y-112456392D01*
X63357255Y-112395191D01*
X63366842Y-112391433D01*
X63558095Y-112297739D01*
X63566945Y-112292464D01*
X63740328Y-112168792D01*
X63748200Y-112162139D01*
X63899052Y-112011812D01*
X63905730Y-112003965D01*
X64033022Y-111826819D01*
X64034279Y-111827722D01*
X64081373Y-111784362D01*
X64151311Y-111772145D01*
X64216751Y-111799678D01*
X64244579Y-111831511D01*
X64304987Y-111930088D01*
X64451250Y-112098938D01*
X64623126Y-112241632D01*
X64816000Y-112354338D01*
X65024692Y-112434030D01*
X65029760Y-112435061D01*
X65029763Y-112435062D01*
X65102095Y-112449778D01*
X65243597Y-112478567D01*
X65248772Y-112478757D01*
X65248774Y-112478757D01*
X65461673Y-112486564D01*
X65461677Y-112486564D01*
X65466837Y-112486753D01*
X65471957Y-112486097D01*
X65471959Y-112486097D01*
X65683288Y-112459025D01*
X65683289Y-112459025D01*
X65688416Y-112458368D01*
X65693366Y-112456883D01*
X65897429Y-112395661D01*
X65897434Y-112395659D01*
X65902384Y-112394174D01*
X66102994Y-112295896D01*
X66284860Y-112166173D01*
X66431877Y-112019669D01*
X69137001Y-112019669D01*
X69137371Y-112026490D01*
X69142895Y-112077352D01*
X69146521Y-112092604D01*
X69191676Y-112213054D01*
X69200214Y-112228649D01*
X69276715Y-112330724D01*
X69289276Y-112343285D01*
X69391351Y-112419786D01*
X69406946Y-112428324D01*
X69527394Y-112473478D01*
X69542649Y-112477105D01*
X69593514Y-112482631D01*
X69600328Y-112483000D01*
X70222885Y-112483000D01*
X70238124Y-112478525D01*
X70239329Y-112477135D01*
X70241000Y-112469452D01*
X70241000Y-111397115D01*
X70236525Y-111381876D01*
X70235135Y-111380671D01*
X70227452Y-111379000D01*
X69155116Y-111379000D01*
X69139877Y-111383475D01*
X69138672Y-111384865D01*
X69137001Y-111392548D01*
X69137001Y-112019669D01*
X66431877Y-112019669D01*
X66443096Y-112008489D01*
X66573453Y-111827077D01*
X66579636Y-111814568D01*
X66670136Y-111631453D01*
X66670137Y-111631451D01*
X66672430Y-111626811D01*
X66737370Y-111413069D01*
X66766529Y-111191590D01*
X66768156Y-111125000D01*
X66749852Y-110902361D01*
X66695431Y-110685702D01*
X66606354Y-110480840D01*
X66533878Y-110368809D01*
X66487822Y-110297617D01*
X66487820Y-110297614D01*
X66485014Y-110293277D01*
X66334670Y-110128051D01*
X66330619Y-110124852D01*
X66330615Y-110124848D01*
X66163414Y-109992800D01*
X66163410Y-109992798D01*
X66159359Y-109989598D01*
X66154831Y-109987098D01*
X66051507Y-109930061D01*
X65963789Y-109881638D01*
X65958920Y-109879914D01*
X65958916Y-109879912D01*
X65758087Y-109808795D01*
X65758083Y-109808794D01*
X65753212Y-109807069D01*
X65748119Y-109806162D01*
X65748116Y-109806161D01*
X65586092Y-109777300D01*
X67358902Y-109777300D01*
X67457728Y-109930061D01*
X67460446Y-109934457D01*
X67492211Y-109988276D01*
X67494746Y-109992779D01*
X67504503Y-110010976D01*
X67506850Y-110015579D01*
X67534094Y-110071811D01*
X67536251Y-110076506D01*
X67625328Y-110281368D01*
X67627291Y-110286147D01*
X67649831Y-110344407D01*
X67651596Y-110349262D01*
X67658251Y-110368809D01*
X67659816Y-110373736D01*
X67677519Y-110433689D01*
X67678881Y-110438675D01*
X67733302Y-110655334D01*
X67734458Y-110660373D01*
X67747187Y-110721574D01*
X67748136Y-110726655D01*
X67751508Y-110747027D01*
X67752246Y-110752139D01*
X67759913Y-110814137D01*
X67760442Y-110819277D01*
X67778746Y-111041916D01*
X67778977Y-111045263D01*
X67781223Y-111085761D01*
X67781364Y-111089110D01*
X67781750Y-111102512D01*
X67781802Y-111105863D01*
X67781891Y-111146413D01*
X67781853Y-111149768D01*
X67780226Y-111216358D01*
X67780100Y-111219707D01*
X67778032Y-111260194D01*
X67777816Y-111263539D01*
X67776776Y-111276908D01*
X67776472Y-111280250D01*
X67774060Y-111303300D01*
X68123300Y-111303300D01*
X68123300Y-110875195D01*
X68123000Y-110871000D01*
X68123000Y-110852885D01*
X69137000Y-110852885D01*
X69141475Y-110868124D01*
X69142865Y-110869329D01*
X69150548Y-110871000D01*
X70222885Y-110871000D01*
X70238124Y-110866525D01*
X70239329Y-110865135D01*
X70241000Y-110857452D01*
X70241000Y-109785116D01*
X70236525Y-109769877D01*
X70235135Y-109768672D01*
X70227452Y-109767001D01*
X69600331Y-109767001D01*
X69593510Y-109767371D01*
X69542648Y-109772895D01*
X69527396Y-109776521D01*
X69406946Y-109821676D01*
X69391351Y-109830214D01*
X69289276Y-109906715D01*
X69276715Y-109919276D01*
X69200214Y-110021351D01*
X69191676Y-110036946D01*
X69146522Y-110157394D01*
X69142895Y-110172649D01*
X69137370Y-110223503D01*
X69137000Y-110230328D01*
X69137000Y-110852885D01*
X68123000Y-110852885D01*
X68123000Y-110226911D01*
X68123046Y-110223503D01*
X68123300Y-110214115D01*
X68123300Y-109777300D01*
X67358902Y-109777300D01*
X65586092Y-109777300D01*
X65538373Y-109768800D01*
X65538367Y-109768799D01*
X65533284Y-109767894D01*
X65459452Y-109766992D01*
X65315081Y-109765228D01*
X65315079Y-109765228D01*
X65309911Y-109765165D01*
X65089091Y-109798955D01*
X64876756Y-109868357D01*
X64834404Y-109890404D01*
X64701859Y-109959403D01*
X64678607Y-109971507D01*
X64674474Y-109974610D01*
X64674471Y-109974612D01*
X64563602Y-110057855D01*
X64499965Y-110105635D01*
X64496393Y-110109373D01*
X64352488Y-110259961D01*
X64345629Y-110267138D01*
X64238204Y-110424618D01*
X64237898Y-110425066D01*
X64182987Y-110470069D01*
X64112462Y-110478240D01*
X64048715Y-110446986D01*
X64028018Y-110422502D01*
X63947426Y-110297926D01*
X63941136Y-110289757D01*
X63797806Y-110132240D01*
X63790273Y-110125215D01*
X63623139Y-109993222D01*
X63614552Y-109987517D01*
X63428117Y-109884599D01*
X63418705Y-109880369D01*
X63217959Y-109809280D01*
X63207988Y-109806646D01*
X63136837Y-109793972D01*
X63123540Y-109795432D01*
X63119000Y-109809989D01*
X63119000Y-112443517D01*
X62611000Y-112443517D01*
X62611000Y-109808102D01*
X62607082Y-109794758D01*
X62592806Y-109792771D01*
X62554324Y-109798660D01*
X62544288Y-109801051D01*
X62341868Y-109867212D01*
X62332359Y-109871209D01*
X62143463Y-109969542D01*
X62134738Y-109975036D01*
X61964433Y-110102905D01*
X61956726Y-110109748D01*
X61809590Y-110263717D01*
X61803109Y-110271722D01*
X61698498Y-110425074D01*
X61643587Y-110470076D01*
X61573062Y-110478247D01*
X61509315Y-110446993D01*
X61488618Y-110422509D01*
X61407822Y-110297617D01*
X61407820Y-110297614D01*
X61405014Y-110293277D01*
X61254670Y-110128051D01*
X61250619Y-110124852D01*
X61250615Y-110124848D01*
X61083414Y-109992800D01*
X61083410Y-109992798D01*
X61079359Y-109989598D01*
X61074835Y-109987101D01*
X61074831Y-109987098D01*
X61023608Y-109958822D01*
X60973636Y-109908390D01*
X60958500Y-109848513D01*
X60958500Y-108763300D01*
X61972500Y-108763300D01*
X63043300Y-108763300D01*
X64057300Y-108763300D01*
X65153482Y-108763300D01*
X66597300Y-108763300D01*
X68123300Y-108763300D01*
X69137300Y-108763300D01*
X69447188Y-108763300D01*
X69487422Y-108758930D01*
X69490815Y-108758608D01*
X69531877Y-108755269D01*
X69535273Y-108755038D01*
X69548878Y-108754301D01*
X69552284Y-108754163D01*
X69593502Y-108753047D01*
X69596912Y-108753001D01*
X70241000Y-108753001D01*
X70254468Y-108753723D01*
X70343551Y-108763300D01*
X70663300Y-108763300D01*
X70663300Y-108191005D01*
X70517503Y-108151938D01*
X70496866Y-108144426D01*
X70304028Y-108054505D01*
X70285006Y-108043523D01*
X70110714Y-107921481D01*
X70093890Y-107907363D01*
X69943437Y-107756910D01*
X69929319Y-107740086D01*
X69807277Y-107565793D01*
X69796295Y-107546772D01*
X69706374Y-107353935D01*
X69698862Y-107333296D01*
X69673140Y-107237300D01*
X69137300Y-107237300D01*
X69137300Y-108763300D01*
X68123300Y-108763300D01*
X68123300Y-107237300D01*
X66597300Y-107237300D01*
X66597300Y-108763300D01*
X65153482Y-108763300D01*
X65156534Y-108762833D01*
X65161654Y-108762156D01*
X65223736Y-108755246D01*
X65228881Y-108754780D01*
X65249479Y-108753339D01*
X65254642Y-108753084D01*
X65317129Y-108751283D01*
X65322298Y-108751240D01*
X65545671Y-108753969D01*
X65550839Y-108754139D01*
X65583300Y-108755869D01*
X65583300Y-107237300D01*
X64057300Y-107237300D01*
X64057300Y-108763300D01*
X63043300Y-108763300D01*
X63043300Y-107237300D01*
X61972500Y-107237300D01*
X61972500Y-108763300D01*
X60958500Y-108763300D01*
X60958500Y-106223300D01*
X61972500Y-106223300D01*
X63043300Y-106223300D01*
X64057300Y-106223300D01*
X65583300Y-106223300D01*
X66597300Y-106223300D01*
X68123300Y-106223300D01*
X68123300Y-104697300D01*
X66597300Y-104697300D01*
X66597300Y-106223300D01*
X65583300Y-106223300D01*
X65583300Y-104697300D01*
X64057300Y-104697300D01*
X64057300Y-106223300D01*
X63043300Y-106223300D01*
X63043300Y-104697300D01*
X61972500Y-104697300D01*
X61972500Y-106223300D01*
X60958500Y-106223300D01*
X60958500Y-104124394D01*
X60978502Y-104056273D01*
X60995405Y-104035299D01*
X61347404Y-103683300D01*
X64057300Y-103683300D01*
X65583300Y-103683300D01*
X65583300Y-102157300D01*
X64635221Y-102157300D01*
X64582049Y-102191831D01*
X64576426Y-102195277D01*
X64553614Y-102208448D01*
X64547815Y-102211597D01*
X64476736Y-102247814D01*
X64470782Y-102250654D01*
X64296318Y-102328330D01*
X64290224Y-102330854D01*
X64215766Y-102359436D01*
X64209548Y-102361638D01*
X64184496Y-102369778D01*
X64178170Y-102371652D01*
X64101126Y-102392296D01*
X64094712Y-102393836D01*
X64064444Y-102400270D01*
X64057300Y-102407414D01*
X64057300Y-103683300D01*
X61347404Y-103683300D01*
X63552099Y-101478605D01*
X63614411Y-101444579D01*
X63641194Y-101441700D01*
X63697087Y-101441700D01*
X63703539Y-101440328D01*
X63703544Y-101440328D01*
X63790488Y-101421847D01*
X63883888Y-101401994D01*
X63889919Y-101399309D01*
X64052322Y-101327003D01*
X64052324Y-101327002D01*
X64058352Y-101324318D01*
X64212853Y-101212066D01*
X64298638Y-101116792D01*
X64336221Y-101075052D01*
X64336222Y-101075051D01*
X64340640Y-101070144D01*
X64420358Y-100932069D01*
X64432823Y-100910479D01*
X64432824Y-100910478D01*
X64436127Y-100904756D01*
X64495142Y-100723128D01*
X64499927Y-100677606D01*
X64514414Y-100539765D01*
X64515104Y-100533200D01*
X64509145Y-100476500D01*
X64495832Y-100349835D01*
X64495832Y-100349833D01*
X64495142Y-100343272D01*
X64436127Y-100161644D01*
X64340640Y-99996256D01*
X64327908Y-99982115D01*
X64217275Y-99859245D01*
X64217274Y-99859244D01*
X64212853Y-99854334D01*
X64058352Y-99742082D01*
X64052324Y-99739398D01*
X64052322Y-99739397D01*
X63889919Y-99667091D01*
X63889918Y-99667091D01*
X63883888Y-99664406D01*
X63790487Y-99644553D01*
X63703544Y-99626072D01*
X63703539Y-99626072D01*
X63697087Y-99624700D01*
X63506113Y-99624700D01*
X63499661Y-99626072D01*
X63499656Y-99626072D01*
X63412713Y-99644553D01*
X63319312Y-99664406D01*
X63313282Y-99667091D01*
X63313281Y-99667091D01*
X63150878Y-99739397D01*
X63150876Y-99739398D01*
X63144848Y-99742082D01*
X62990347Y-99854334D01*
X62935176Y-99915608D01*
X62874733Y-99952846D01*
X62803749Y-99951495D01*
X62788559Y-99944817D01*
X62788352Y-99945282D01*
X62619919Y-99870291D01*
X62619918Y-99870291D01*
X62613888Y-99867606D01*
X62520488Y-99847753D01*
X62433544Y-99829272D01*
X62433539Y-99829272D01*
X62427087Y-99827900D01*
X62236113Y-99827900D01*
X62229661Y-99829272D01*
X62229656Y-99829272D01*
X62142712Y-99847753D01*
X62049312Y-99867606D01*
X62043282Y-99870291D01*
X62043281Y-99870291D01*
X61880878Y-99942597D01*
X61880876Y-99942598D01*
X61874848Y-99945282D01*
X61869507Y-99949162D01*
X61869506Y-99949163D01*
X61825001Y-99981498D01*
X61720347Y-100057534D01*
X61715926Y-100062444D01*
X61715925Y-100062445D01*
X61713670Y-100064950D01*
X61592560Y-100199456D01*
X61554182Y-100265928D01*
X61538032Y-100293901D01*
X61486649Y-100342894D01*
X61428913Y-100356900D01*
X60409118Y-100356900D01*
X60340997Y-100336898D01*
X60294504Y-100283242D01*
X60283808Y-100217730D01*
X60298014Y-100082565D01*
X60298704Y-100076000D01*
X60290924Y-100001974D01*
X60279432Y-99892635D01*
X60279432Y-99892633D01*
X60278742Y-99886072D01*
X60219727Y-99704444D01*
X60124240Y-99539056D01*
X60037258Y-99442452D01*
X60000875Y-99402045D01*
X60000874Y-99402044D01*
X59996453Y-99397134D01*
X59988449Y-99391318D01*
X59987282Y-99389805D01*
X59986202Y-99388833D01*
X59986380Y-99388636D01*
X59945096Y-99335096D01*
X59939022Y-99264360D01*
X59968876Y-99205074D01*
X59970988Y-99202729D01*
X60073440Y-99088944D01*
X60131714Y-98988010D01*
X60165623Y-98929279D01*
X60165624Y-98929278D01*
X60168927Y-98923556D01*
X60227942Y-98741928D01*
X60240553Y-98621946D01*
X60247214Y-98558565D01*
X60247904Y-98552000D01*
X60241568Y-98491715D01*
X60228632Y-98368635D01*
X60228632Y-98368633D01*
X60227942Y-98362072D01*
X60168927Y-98180444D01*
X60163333Y-98170754D01*
X60100183Y-98061377D01*
X60073440Y-98015056D01*
X60065165Y-98005865D01*
X59950075Y-97878045D01*
X59950074Y-97878044D01*
X59945653Y-97873134D01*
X59804217Y-97770374D01*
X59796494Y-97764763D01*
X59796493Y-97764762D01*
X59791152Y-97760882D01*
X59785124Y-97758198D01*
X59785122Y-97758197D01*
X59622719Y-97685891D01*
X59622718Y-97685891D01*
X59616688Y-97683206D01*
X59474221Y-97652924D01*
X59411749Y-97619196D01*
X59377427Y-97557046D01*
X59382155Y-97486207D01*
X59411324Y-97440582D01*
X59910758Y-96941148D01*
X59919040Y-96933611D01*
X59925518Y-96929500D01*
X59927786Y-96927085D01*
X59991140Y-96899886D01*
X60061164Y-96911595D01*
X60115333Y-96961981D01*
X60170160Y-97056944D01*
X60174578Y-97061851D01*
X60174579Y-97061852D01*
X60281339Y-97180421D01*
X60297947Y-97198866D01*
X60373236Y-97253567D01*
X60438452Y-97300949D01*
X60452448Y-97311118D01*
X60458476Y-97313802D01*
X60458478Y-97313803D01*
X60618534Y-97385064D01*
X60626912Y-97388794D01*
X60720312Y-97408647D01*
X60807256Y-97427128D01*
X60807261Y-97427128D01*
X60813713Y-97428500D01*
X61004687Y-97428500D01*
X61011139Y-97427128D01*
X61011144Y-97427128D01*
X61098088Y-97408647D01*
X61191488Y-97388794D01*
X61199866Y-97385064D01*
X61359922Y-97313803D01*
X61359924Y-97313802D01*
X61365952Y-97311118D01*
X61379949Y-97300949D01*
X61445164Y-97253567D01*
X61520453Y-97198866D01*
X61537061Y-97180421D01*
X61643821Y-97061852D01*
X61643822Y-97061851D01*
X61648240Y-97056944D01*
X61713350Y-96944171D01*
X61740423Y-96897279D01*
X61740424Y-96897278D01*
X61743727Y-96891556D01*
X61802742Y-96709928D01*
X61804338Y-96694749D01*
X61822014Y-96526565D01*
X61822704Y-96520000D01*
X61810015Y-96399270D01*
X61822787Y-96329432D01*
X61871289Y-96277585D01*
X61935325Y-96260100D01*
X61969887Y-96260100D01*
X61976339Y-96258728D01*
X61976344Y-96258728D01*
X62063288Y-96240247D01*
X62156688Y-96220394D01*
X62162715Y-96217711D01*
X62162723Y-96217708D01*
X62181252Y-96209458D01*
X62251619Y-96200024D01*
X62315916Y-96230131D01*
X62353729Y-96290220D01*
X62358500Y-96324565D01*
X62358500Y-97077629D01*
X62357973Y-97088812D01*
X62356298Y-97096305D01*
X62356547Y-97104231D01*
X62356547Y-97104232D01*
X62358438Y-97164382D01*
X62358500Y-97168341D01*
X62358500Y-97196252D01*
X62358997Y-97200186D01*
X62358997Y-97200187D01*
X62359005Y-97200252D01*
X62359938Y-97212089D01*
X62361327Y-97256285D01*
X62363851Y-97264972D01*
X62366978Y-97275735D01*
X62370987Y-97295096D01*
X62373526Y-97315193D01*
X62376445Y-97322564D01*
X62376445Y-97322566D01*
X62389804Y-97356308D01*
X62393649Y-97367538D01*
X62399738Y-97388496D01*
X62405982Y-97409989D01*
X62410015Y-97416808D01*
X62410017Y-97416813D01*
X62416293Y-97427424D01*
X62424988Y-97445172D01*
X62432448Y-97464013D01*
X62437110Y-97470429D01*
X62437110Y-97470430D01*
X62458436Y-97499783D01*
X62464952Y-97509703D01*
X62483076Y-97540348D01*
X62487458Y-97547758D01*
X62501779Y-97562079D01*
X62514619Y-97577112D01*
X62526528Y-97593503D01*
X62539813Y-97604493D01*
X62560605Y-97621694D01*
X62569384Y-97629684D01*
X74781688Y-109841988D01*
X74815714Y-109904300D01*
X74810649Y-109975115D01*
X74768246Y-110031843D01*
X74723169Y-110065688D01*
X74669965Y-110105635D01*
X74666393Y-110109373D01*
X74522488Y-110259961D01*
X74515629Y-110267138D01*
X74408201Y-110424621D01*
X74353293Y-110469621D01*
X74282768Y-110477792D01*
X74219021Y-110446538D01*
X74198324Y-110422054D01*
X74117822Y-110297617D01*
X74117820Y-110297614D01*
X74115014Y-110293277D01*
X73964670Y-110128051D01*
X73960619Y-110124852D01*
X73960615Y-110124848D01*
X73793414Y-109992800D01*
X73793410Y-109992798D01*
X73789359Y-109989598D01*
X73784831Y-109987098D01*
X73681507Y-109930061D01*
X73593789Y-109881638D01*
X73588920Y-109879914D01*
X73588916Y-109879912D01*
X73388087Y-109808795D01*
X73388083Y-109808794D01*
X73383212Y-109807069D01*
X73378119Y-109806162D01*
X73378116Y-109806161D01*
X73168373Y-109768800D01*
X73168367Y-109768799D01*
X73163284Y-109767894D01*
X73089452Y-109766992D01*
X72945081Y-109765228D01*
X72945079Y-109765228D01*
X72939911Y-109765165D01*
X72719091Y-109798955D01*
X72506756Y-109868357D01*
X72464404Y-109890404D01*
X72331859Y-109959403D01*
X72308607Y-109971507D01*
X72304474Y-109974610D01*
X72304471Y-109974612D01*
X72193602Y-110057855D01*
X72129965Y-110105635D01*
X72126393Y-110109373D01*
X72048898Y-110190466D01*
X71987374Y-110225895D01*
X71916462Y-110222438D01*
X71858676Y-110181192D01*
X71839823Y-110147644D01*
X71798324Y-110036946D01*
X71789786Y-110021351D01*
X71713285Y-109919276D01*
X71700724Y-109906715D01*
X71598649Y-109830214D01*
X71583054Y-109821676D01*
X71462606Y-109776522D01*
X71447351Y-109772895D01*
X71396486Y-109767369D01*
X71389672Y-109767000D01*
X70767115Y-109767000D01*
X70751876Y-109771475D01*
X70750671Y-109772865D01*
X70749000Y-109780548D01*
X70749000Y-112464884D01*
X70753475Y-112480123D01*
X70754865Y-112481328D01*
X70762548Y-112482999D01*
X71389669Y-112482999D01*
X71396490Y-112482629D01*
X71447352Y-112477105D01*
X71462604Y-112473479D01*
X71583054Y-112428324D01*
X71598649Y-112419786D01*
X71700724Y-112343285D01*
X71713285Y-112330724D01*
X71789786Y-112228649D01*
X71798324Y-112213054D01*
X71839225Y-112103952D01*
X71881867Y-112047188D01*
X71948428Y-112022488D01*
X72017777Y-112037696D01*
X72052444Y-112065684D01*
X72077865Y-112095031D01*
X72077869Y-112095035D01*
X72081250Y-112098938D01*
X72253126Y-112241632D01*
X72257593Y-112244242D01*
X72339070Y-112291853D01*
X72387794Y-112343491D01*
X72401500Y-112400641D01*
X72401500Y-113088233D01*
X72400973Y-113099416D01*
X72399298Y-113106909D01*
X72399547Y-113114835D01*
X72399547Y-113114836D01*
X72401438Y-113174986D01*
X72401500Y-113178945D01*
X72401500Y-113206856D01*
X72401997Y-113210790D01*
X72401997Y-113210791D01*
X72402005Y-113210856D01*
X72402938Y-113222693D01*
X72404327Y-113266889D01*
X72409978Y-113286339D01*
X72413987Y-113305700D01*
X72416526Y-113325797D01*
X72419445Y-113333168D01*
X72419445Y-113333170D01*
X72432804Y-113366912D01*
X72436649Y-113378142D01*
X72448982Y-113420593D01*
X72453015Y-113427412D01*
X72453017Y-113427417D01*
X72459293Y-113438028D01*
X72467988Y-113455776D01*
X72475448Y-113474617D01*
X72480110Y-113481033D01*
X72480110Y-113481034D01*
X72501436Y-113510387D01*
X72507952Y-113520307D01*
X72530458Y-113558362D01*
X72544782Y-113572686D01*
X72557617Y-113587713D01*
X72569528Y-113604107D01*
X72575636Y-113609160D01*
X72575638Y-113609162D01*
X72603598Y-113632292D01*
X72612378Y-113640282D01*
X72648347Y-113676251D01*
X72655890Y-113684540D01*
X72660000Y-113691018D01*
X72665775Y-113696441D01*
X72709636Y-113737628D01*
X72712482Y-113740386D01*
X72721568Y-113749472D01*
X72732230Y-113760135D01*
X72735427Y-113762615D01*
X72744447Y-113770318D01*
X72776679Y-113800586D01*
X72783625Y-113804405D01*
X72783628Y-113804407D01*
X72792139Y-113809086D01*
X72842197Y-113859432D01*
X72857090Y-113928849D01*
X72832088Y-113995298D01*
X72775131Y-114037681D01*
X72731437Y-114045500D01*
X43204400Y-114045500D01*
X43136279Y-114025498D01*
X43089786Y-113971842D01*
X43078400Y-113919500D01*
X43078400Y-113005600D01*
X66854186Y-113005600D01*
X68123300Y-113005600D01*
X68123300Y-112317300D01*
X67460240Y-112317300D01*
X67450156Y-112335757D01*
X67447587Y-112340238D01*
X67436953Y-112357937D01*
X67434200Y-112362312D01*
X67399837Y-112414527D01*
X67396908Y-112418786D01*
X67266551Y-112600198D01*
X67263450Y-112604332D01*
X67224934Y-112653542D01*
X67221666Y-112657545D01*
X67208283Y-112673270D01*
X67204853Y-112677137D01*
X67162433Y-112723026D01*
X67158849Y-112726747D01*
X67000613Y-112884431D01*
X66996878Y-112888003D01*
X66950836Y-112930266D01*
X66946957Y-112933682D01*
X66931185Y-112947010D01*
X66927171Y-112950264D01*
X66877834Y-112988602D01*
X66873690Y-112991688D01*
X66854186Y-113005600D01*
X43078400Y-113005600D01*
X43078400Y-109321600D01*
X38531300Y-109321600D01*
X38463179Y-109301598D01*
X38416686Y-109247942D01*
X38405300Y-109195600D01*
X38405300Y-108411871D01*
X43737300Y-108411871D01*
X43866822Y-108498415D01*
X43901585Y-108533178D01*
X43938795Y-108588867D01*
X43938806Y-108588855D01*
X43944403Y-108583258D01*
X43983925Y-108546144D01*
X45263300Y-107266769D01*
X45263300Y-107237300D01*
X43737300Y-107237300D01*
X43737300Y-108411871D01*
X38405300Y-108411871D01*
X38405300Y-108179600D01*
X39419300Y-108179600D01*
X40183300Y-108179600D01*
X41197300Y-108179600D01*
X42723300Y-108179600D01*
X42723300Y-107237300D01*
X41197300Y-107237300D01*
X41197300Y-108179600D01*
X40183300Y-108179600D01*
X40183300Y-107237300D01*
X39419300Y-107237300D01*
X39419300Y-108179600D01*
X38405300Y-108179600D01*
X38405300Y-106223300D01*
X39419300Y-106223300D01*
X40183300Y-106223300D01*
X41197300Y-106223300D01*
X42723300Y-106223300D01*
X43737300Y-106223300D01*
X45263300Y-106223300D01*
X46277300Y-106223300D01*
X46306769Y-106223300D01*
X47803300Y-104726769D01*
X47803300Y-104697300D01*
X46277300Y-104697300D01*
X46277300Y-106223300D01*
X45263300Y-106223300D01*
X45263300Y-104697300D01*
X43737300Y-104697300D01*
X43737300Y-106223300D01*
X42723300Y-106223300D01*
X42723300Y-104697300D01*
X41197300Y-104697300D01*
X41197300Y-106223300D01*
X40183300Y-106223300D01*
X40183300Y-104697300D01*
X39419300Y-104697300D01*
X39419300Y-106223300D01*
X38405300Y-106223300D01*
X38405300Y-103683300D01*
X39419300Y-103683300D01*
X40183300Y-103683300D01*
X41197300Y-103683300D01*
X42723300Y-103683300D01*
X43737300Y-103683300D01*
X45263300Y-103683300D01*
X46277300Y-103683300D01*
X47803300Y-103683300D01*
X47803300Y-102157300D01*
X46277300Y-102157300D01*
X46277300Y-103683300D01*
X45263300Y-103683300D01*
X45263300Y-102157300D01*
X43737300Y-102157300D01*
X43737300Y-103683300D01*
X42723300Y-103683300D01*
X42723300Y-102157300D01*
X41197300Y-102157300D01*
X41197300Y-103683300D01*
X40183300Y-103683300D01*
X40183300Y-102157300D01*
X39419300Y-102157300D01*
X39419300Y-103683300D01*
X38405300Y-103683300D01*
X38405300Y-101143300D01*
X39419300Y-101143300D01*
X40183300Y-101143300D01*
X41197300Y-101143300D01*
X42723300Y-101143300D01*
X43737300Y-101143300D01*
X45263300Y-101143300D01*
X46277300Y-101143300D01*
X47803300Y-101143300D01*
X47803300Y-101095758D01*
X48817300Y-101095758D01*
X48847407Y-101074677D01*
X48866428Y-101063695D01*
X49059265Y-100973774D01*
X49079903Y-100966262D01*
X49285425Y-100911192D01*
X49307056Y-100907378D01*
X49519019Y-100888834D01*
X49540981Y-100888834D01*
X49752944Y-100907378D01*
X49774575Y-100911192D01*
X49980097Y-100966262D01*
X50000734Y-100973774D01*
X50193572Y-101063695D01*
X50212594Y-101074677D01*
X50310596Y-101143300D01*
X50343300Y-101143300D01*
X51357300Y-101143300D01*
X51386770Y-101143300D01*
X52883300Y-99646770D01*
X52883300Y-99617300D01*
X51357300Y-99617300D01*
X51357300Y-101143300D01*
X50343300Y-101143300D01*
X50343300Y-99617300D01*
X48817300Y-99617300D01*
X48817300Y-101095758D01*
X47803300Y-101095758D01*
X47803300Y-99617300D01*
X46277300Y-99617300D01*
X46277300Y-101143300D01*
X45263300Y-101143300D01*
X45263300Y-99617300D01*
X43737300Y-99617300D01*
X43737300Y-101143300D01*
X42723300Y-101143300D01*
X42723300Y-99617300D01*
X41197300Y-99617300D01*
X41197300Y-101143300D01*
X40183300Y-101143300D01*
X40183300Y-99617300D01*
X39419300Y-99617300D01*
X39419300Y-101143300D01*
X38405300Y-101143300D01*
X38405300Y-98603300D01*
X39419300Y-98603300D01*
X40183300Y-98603300D01*
X40183300Y-97206894D01*
X41197300Y-97206894D01*
X41197300Y-98603300D01*
X42723300Y-98603300D01*
X43737300Y-98603300D01*
X45263300Y-98603300D01*
X46277300Y-98603300D01*
X47803300Y-98603300D01*
X47803300Y-97678769D01*
X48817300Y-97678769D01*
X48817300Y-98603300D01*
X50343300Y-98603300D01*
X51357300Y-98603300D01*
X52883300Y-98603300D01*
X52883300Y-98167500D01*
X51357300Y-98167500D01*
X51357300Y-98603300D01*
X50343300Y-98603300D01*
X50343300Y-98168725D01*
X50263823Y-98171222D01*
X50255908Y-98171222D01*
X50224341Y-98170230D01*
X50216442Y-98169733D01*
X50162576Y-98164642D01*
X50108566Y-98161244D01*
X50100686Y-98160500D01*
X50069352Y-98156542D01*
X50061533Y-98155303D01*
X49967535Y-98137373D01*
X49959810Y-98135647D01*
X49957530Y-98135061D01*
X49955222Y-98134696D01*
X49947447Y-98133213D01*
X49854066Y-98112340D01*
X49846399Y-98110371D01*
X49816068Y-98101559D01*
X49808538Y-98099112D01*
X49757606Y-98080775D01*
X49706156Y-98064058D01*
X49698707Y-98061377D01*
X49669341Y-98049750D01*
X49662077Y-98046606D01*
X49575498Y-98005865D01*
X49568443Y-98002271D01*
X49566390Y-98001142D01*
X49564247Y-98000215D01*
X49557084Y-97996844D01*
X49471827Y-97953403D01*
X49464891Y-97949590D01*
X49437706Y-97933513D01*
X49431023Y-97929272D01*
X49386284Y-97898868D01*
X49372175Y-97889914D01*
X49290888Y-97872636D01*
X49284474Y-97871096D01*
X49207430Y-97850452D01*
X49201104Y-97848578D01*
X49176052Y-97840438D01*
X49169834Y-97838236D01*
X49095376Y-97809654D01*
X49089282Y-97807130D01*
X48914818Y-97729454D01*
X48908864Y-97726614D01*
X48837785Y-97690397D01*
X48831986Y-97687248D01*
X48817300Y-97678769D01*
X47803300Y-97678769D01*
X47803300Y-97077300D01*
X46277300Y-97077300D01*
X46277300Y-98603300D01*
X45263300Y-98603300D01*
X45263300Y-97077300D01*
X44063732Y-97077300D01*
X44017512Y-97113218D01*
X44013365Y-97116306D01*
X43831566Y-97245981D01*
X43827298Y-97248895D01*
X43774977Y-97283067D01*
X43770594Y-97285803D01*
X43752859Y-97296375D01*
X43748367Y-97298930D01*
X43737300Y-97304926D01*
X43737300Y-98603300D01*
X42723300Y-98603300D01*
X42723300Y-97591267D01*
X42699311Y-97590990D01*
X42681874Y-97589574D01*
X42613522Y-97579209D01*
X42602965Y-97577144D01*
X42521065Y-97557458D01*
X42436204Y-97581974D01*
X42411917Y-97586470D01*
X42341176Y-97592490D01*
X42323200Y-97592733D01*
X42106671Y-97580180D01*
X42088843Y-97577862D01*
X41962675Y-97552193D01*
X41957632Y-97551058D01*
X41896953Y-97536097D01*
X41891962Y-97534758D01*
X41872133Y-97528997D01*
X41867202Y-97527454D01*
X41807965Y-97507576D01*
X41803101Y-97505832D01*
X41594486Y-97426170D01*
X41589698Y-97424228D01*
X41532272Y-97399556D01*
X41527565Y-97397418D01*
X41508944Y-97388496D01*
X41504330Y-97386168D01*
X41449139Y-97356883D01*
X41444627Y-97354369D01*
X41251824Y-97241704D01*
X41247417Y-97239006D01*
X41197300Y-97206894D01*
X40183300Y-97206894D01*
X40183300Y-97077300D01*
X39419300Y-97077300D01*
X39419300Y-98603300D01*
X38405300Y-98603300D01*
X38405300Y-96063300D01*
X39419300Y-96063300D01*
X40183300Y-96063300D01*
X40183300Y-95517966D01*
X41213257Y-95517966D01*
X41243565Y-95652446D01*
X41246645Y-95662275D01*
X41326770Y-95859603D01*
X41331413Y-95868794D01*
X41442694Y-96050388D01*
X41448777Y-96058699D01*
X41588213Y-96219667D01*
X41595580Y-96226883D01*
X41759434Y-96362916D01*
X41767881Y-96368831D01*
X41951756Y-96476279D01*
X41961042Y-96480729D01*
X42160001Y-96556703D01*
X42169899Y-96559579D01*
X42273250Y-96580606D01*
X42287299Y-96579410D01*
X42291000Y-96569065D01*
X42291000Y-96568517D01*
X42799000Y-96568517D01*
X42803064Y-96582359D01*
X42816478Y-96584393D01*
X42823184Y-96583534D01*
X42833262Y-96581392D01*
X43037255Y-96520191D01*
X43046842Y-96516433D01*
X43238095Y-96422739D01*
X43246945Y-96417464D01*
X43420328Y-96293792D01*
X43428200Y-96287139D01*
X43579052Y-96136812D01*
X43585730Y-96128965D01*
X43632915Y-96063300D01*
X44776383Y-96063300D01*
X45263300Y-96063300D01*
X46277300Y-96063300D01*
X47803300Y-96063300D01*
X47803300Y-96012000D01*
X48870496Y-96012000D01*
X48871186Y-96018565D01*
X48889539Y-96193181D01*
X48890458Y-96201928D01*
X48949473Y-96383556D01*
X48952776Y-96389278D01*
X48952777Y-96389279D01*
X48979078Y-96434834D01*
X49044960Y-96548944D01*
X49049378Y-96553851D01*
X49049379Y-96553852D01*
X49152600Y-96668491D01*
X49172747Y-96690866D01*
X49327248Y-96803118D01*
X49333276Y-96805802D01*
X49333278Y-96805803D01*
X49495681Y-96878109D01*
X49501712Y-96880794D01*
X49591532Y-96899886D01*
X49682056Y-96919128D01*
X49682061Y-96919128D01*
X49688513Y-96920500D01*
X49743172Y-96920500D01*
X49811293Y-96940502D01*
X49829424Y-96954649D01*
X49849666Y-96973657D01*
X49852509Y-96976413D01*
X49872230Y-96996134D01*
X49875425Y-96998612D01*
X49884447Y-97006318D01*
X49916679Y-97036586D01*
X49923628Y-97040406D01*
X49934432Y-97046346D01*
X49950955Y-97057199D01*
X49952447Y-97058356D01*
X49966959Y-97069613D01*
X50007543Y-97087176D01*
X50018173Y-97092383D01*
X50056940Y-97113695D01*
X50064617Y-97115666D01*
X50064622Y-97115668D01*
X50076558Y-97118732D01*
X50095266Y-97125137D01*
X50113855Y-97133181D01*
X50121680Y-97134420D01*
X50121682Y-97134421D01*
X50157519Y-97140097D01*
X50169140Y-97142504D01*
X50204044Y-97151465D01*
X50211970Y-97153500D01*
X50232231Y-97153500D01*
X50251940Y-97155051D01*
X50271943Y-97158219D01*
X50279835Y-97157473D01*
X50285062Y-97156979D01*
X50315954Y-97154059D01*
X50327811Y-97153500D01*
X55098631Y-97153500D01*
X55109814Y-97154027D01*
X55117307Y-97155702D01*
X55125233Y-97155453D01*
X55125234Y-97155453D01*
X55185384Y-97153562D01*
X55189343Y-97153500D01*
X55199345Y-97153500D01*
X55225542Y-97156253D01*
X55325155Y-97177427D01*
X55325159Y-97177427D01*
X55331612Y-97178799D01*
X55522586Y-97178799D01*
X55529038Y-97177427D01*
X55529043Y-97177427D01*
X55631248Y-97155702D01*
X55709387Y-97139093D01*
X55728173Y-97130729D01*
X55877821Y-97064102D01*
X55877823Y-97064101D01*
X55883851Y-97061417D01*
X55898020Y-97051123D01*
X55973705Y-96996134D01*
X56038352Y-96949165D01*
X56052767Y-96933156D01*
X56161720Y-96812151D01*
X56161721Y-96812150D01*
X56166139Y-96807243D01*
X56261626Y-96641855D01*
X56320641Y-96460227D01*
X56322301Y-96444438D01*
X56339913Y-96276864D01*
X56340603Y-96270299D01*
X56331960Y-96188069D01*
X56321331Y-96086934D01*
X56321331Y-96086932D01*
X56320641Y-96080371D01*
X56261626Y-95898743D01*
X56256905Y-95890565D01*
X56212031Y-95812842D01*
X56166139Y-95733355D01*
X56113972Y-95675417D01*
X56042774Y-95596344D01*
X56042773Y-95596343D01*
X56038352Y-95591433D01*
X55883851Y-95479181D01*
X55877823Y-95476497D01*
X55877821Y-95476496D01*
X55715418Y-95404190D01*
X55715417Y-95404190D01*
X55709387Y-95401505D01*
X55615987Y-95381652D01*
X55529043Y-95363171D01*
X55529038Y-95363171D01*
X55522586Y-95361799D01*
X55331612Y-95361799D01*
X55325160Y-95363171D01*
X55325155Y-95363171D01*
X55238211Y-95381652D01*
X55144811Y-95401505D01*
X55138781Y-95404190D01*
X55138780Y-95404190D01*
X54976377Y-95476496D01*
X54976375Y-95476497D01*
X54970347Y-95479181D01*
X54815846Y-95591433D01*
X54811425Y-95596343D01*
X54811424Y-95596344D01*
X54740227Y-95675417D01*
X54688059Y-95733355D01*
X54659260Y-95783237D01*
X54636014Y-95823500D01*
X54584632Y-95872493D01*
X54526895Y-95886500D01*
X50790020Y-95886500D01*
X50721899Y-95866498D01*
X50675406Y-95812842D01*
X50670187Y-95799436D01*
X50656160Y-95756267D01*
X50618527Y-95640444D01*
X50612981Y-95630837D01*
X50552652Y-95526345D01*
X50523040Y-95475056D01*
X50514774Y-95465875D01*
X50399675Y-95338045D01*
X50399674Y-95338044D01*
X50395253Y-95333134D01*
X50240752Y-95220882D01*
X50234724Y-95218198D01*
X50234722Y-95218197D01*
X50072319Y-95145891D01*
X50072318Y-95145891D01*
X50066288Y-95143206D01*
X49972888Y-95123353D01*
X49885944Y-95104872D01*
X49885939Y-95104872D01*
X49879487Y-95103500D01*
X49688513Y-95103500D01*
X49682061Y-95104872D01*
X49682056Y-95104872D01*
X49595112Y-95123353D01*
X49501712Y-95143206D01*
X49495682Y-95145891D01*
X49495681Y-95145891D01*
X49333278Y-95218197D01*
X49333276Y-95218198D01*
X49327248Y-95220882D01*
X49172747Y-95333134D01*
X49168326Y-95338044D01*
X49168325Y-95338045D01*
X49053227Y-95465875D01*
X49044960Y-95475056D01*
X49015348Y-95526345D01*
X48955020Y-95630837D01*
X48949473Y-95640444D01*
X48890458Y-95822072D01*
X48889768Y-95828633D01*
X48889768Y-95828635D01*
X48881739Y-95905028D01*
X48870496Y-96012000D01*
X47803300Y-96012000D01*
X47803300Y-94537300D01*
X46277300Y-94537300D01*
X46277300Y-96063300D01*
X45263300Y-96063300D01*
X45263300Y-94537300D01*
X44810681Y-94537300D01*
X44817043Y-94558848D01*
X44818405Y-94563833D01*
X44864909Y-94748970D01*
X44865661Y-94752136D01*
X44874255Y-94790519D01*
X44874924Y-94793700D01*
X44877438Y-94806464D01*
X44879771Y-94827558D01*
X44886379Y-95083258D01*
X44885138Y-95104445D01*
X44875034Y-95174719D01*
X44872940Y-95185764D01*
X44855526Y-95259455D01*
X44866547Y-95289547D01*
X44872727Y-95313462D01*
X44883667Y-95383610D01*
X44885163Y-95401525D01*
X44887746Y-95618398D01*
X44886677Y-95636344D01*
X44882206Y-95670307D01*
X44881427Y-95675417D01*
X44870735Y-95736995D01*
X44869746Y-95742067D01*
X44865382Y-95762251D01*
X44864187Y-95767277D01*
X44848489Y-95827761D01*
X44847088Y-95832737D01*
X44782172Y-96046400D01*
X44780569Y-96051313D01*
X44776383Y-96063300D01*
X43632915Y-96063300D01*
X43710003Y-95956020D01*
X43715313Y-95947183D01*
X43809670Y-95756267D01*
X43813469Y-95746672D01*
X43875377Y-95542910D01*
X43877555Y-95532837D01*
X43878986Y-95521962D01*
X43876775Y-95507778D01*
X43863617Y-95504000D01*
X42817115Y-95504000D01*
X42801876Y-95508475D01*
X42800671Y-95509865D01*
X42799000Y-95517548D01*
X42799000Y-96568517D01*
X42291000Y-96568517D01*
X42291000Y-95522115D01*
X42286525Y-95506876D01*
X42285135Y-95505671D01*
X42277452Y-95504000D01*
X41228225Y-95504000D01*
X41214694Y-95507973D01*
X41213257Y-95517966D01*
X40183300Y-95517966D01*
X40183300Y-94537300D01*
X39419300Y-94537300D01*
X39419300Y-96063300D01*
X38405300Y-96063300D01*
X38405300Y-93523300D01*
X39419300Y-93523300D01*
X40172500Y-93523300D01*
X40172500Y-91997300D01*
X39419300Y-91997300D01*
X39419300Y-93523300D01*
X38405300Y-93523300D01*
X38405300Y-90983300D01*
X39419300Y-90983300D01*
X40183300Y-90983300D01*
X40183300Y-90420568D01*
X41197300Y-90420568D01*
X41228741Y-90408781D01*
X41236210Y-90406245D01*
X41327426Y-90378422D01*
X41335041Y-90376357D01*
X41365663Y-90369076D01*
X41373391Y-90367493D01*
X41467364Y-90351283D01*
X41475174Y-90350186D01*
X41537356Y-90343431D01*
X41540748Y-90343109D01*
X41581833Y-90339767D01*
X41585235Y-90339536D01*
X41598843Y-90338799D01*
X41602249Y-90338661D01*
X41643458Y-90337546D01*
X41646866Y-90337500D01*
X42587585Y-90337500D01*
X42723300Y-90201785D01*
X42723300Y-89940400D01*
X41197300Y-89940400D01*
X41197300Y-90420568D01*
X40183300Y-90420568D01*
X40183300Y-89940400D01*
X39419300Y-89940400D01*
X39419300Y-90983300D01*
X38405300Y-90983300D01*
X38405300Y-88924400D01*
X38425302Y-88856279D01*
X38478958Y-88809786D01*
X38531300Y-88798400D01*
X43129200Y-88798400D01*
X43129200Y-88443300D01*
X44271200Y-88443300D01*
X44481785Y-88443300D01*
X45263300Y-87661785D01*
X45263300Y-86917300D01*
X44271200Y-86917300D01*
X44271200Y-88443300D01*
X43129200Y-88443300D01*
X43129200Y-85903300D01*
X44271200Y-85903300D01*
X45263300Y-85903300D01*
X46277300Y-85903300D01*
X47021785Y-85903300D01*
X47725898Y-85199187D01*
X47727392Y-85197381D01*
X47732627Y-85191443D01*
X47757271Y-85165200D01*
X46277300Y-85165200D01*
X46277300Y-85903300D01*
X45263300Y-85903300D01*
X45263300Y-85165200D01*
X44271200Y-85165200D01*
X44271200Y-85903300D01*
X43129200Y-85903300D01*
X43129200Y-84251300D01*
X43149202Y-84183179D01*
X43202858Y-84136686D01*
X43255200Y-84125300D01*
X83694000Y-84125300D01*
X83762121Y-84145302D01*
G37*
%TD.AperFunction*%
%TA.AperFunction,Conductor*%
G36*
X68796859Y-90067590D02*
G01*
X68846339Y-90118504D01*
X68860900Y-90177304D01*
X68860900Y-94418470D01*
X68844019Y-94481470D01*
X68801082Y-94555839D01*
X68761473Y-94624444D01*
X68702458Y-94806072D01*
X68701768Y-94812633D01*
X68701768Y-94812635D01*
X68690413Y-94920670D01*
X68682496Y-94996000D01*
X68683186Y-95002565D01*
X68700296Y-95165353D01*
X68702458Y-95185928D01*
X68761473Y-95367556D01*
X68764776Y-95373278D01*
X68764777Y-95373279D01*
X68782624Y-95404190D01*
X68856960Y-95532944D01*
X68861378Y-95537851D01*
X68861379Y-95537852D01*
X68953753Y-95640444D01*
X68984747Y-95674866D01*
X69139248Y-95787118D01*
X69145276Y-95789802D01*
X69145278Y-95789803D01*
X69307681Y-95862109D01*
X69313712Y-95864794D01*
X69407112Y-95884647D01*
X69494056Y-95903128D01*
X69494061Y-95903128D01*
X69500513Y-95904500D01*
X69691487Y-95904500D01*
X69697939Y-95903128D01*
X69697944Y-95903128D01*
X69784888Y-95884647D01*
X69878288Y-95864794D01*
X69884319Y-95862109D01*
X70046722Y-95789803D01*
X70046724Y-95789802D01*
X70052752Y-95787118D01*
X70207253Y-95674866D01*
X70238247Y-95640444D01*
X70330621Y-95537852D01*
X70330622Y-95537851D01*
X70335040Y-95532944D01*
X70409376Y-95404190D01*
X70427223Y-95373279D01*
X70427224Y-95373278D01*
X70430527Y-95367556D01*
X70489542Y-95185928D01*
X70491705Y-95165353D01*
X70508814Y-95002565D01*
X70509504Y-94996000D01*
X70501587Y-94920670D01*
X70490232Y-94812635D01*
X70490232Y-94812633D01*
X70489542Y-94806072D01*
X70430527Y-94624444D01*
X70335040Y-94459056D01*
X70316423Y-94438379D01*
X70229792Y-94342166D01*
X70207253Y-94317134D01*
X70201916Y-94313256D01*
X70201910Y-94313251D01*
X70179839Y-94297216D01*
X70136485Y-94240994D01*
X70127900Y-94195280D01*
X70127900Y-92737093D01*
X70147902Y-92668972D01*
X70201558Y-92622479D01*
X70271832Y-92612375D01*
X70280097Y-92613846D01*
X70459256Y-92651928D01*
X70459261Y-92651928D01*
X70465713Y-92653300D01*
X70656687Y-92653300D01*
X70663139Y-92651928D01*
X70663144Y-92651928D01*
X70744602Y-92634613D01*
X70815393Y-92640015D01*
X70872025Y-92682832D01*
X70896519Y-92749469D01*
X70881098Y-92818771D01*
X70870361Y-92835083D01*
X70861386Y-92846654D01*
X70858241Y-92853923D01*
X70858238Y-92853927D01*
X70843826Y-92887232D01*
X70838609Y-92897882D01*
X70817305Y-92936635D01*
X70815334Y-92944310D01*
X70815334Y-92944311D01*
X70812267Y-92956257D01*
X70805863Y-92974961D01*
X70801225Y-92985680D01*
X70797819Y-92993550D01*
X70796580Y-93001373D01*
X70796577Y-93001383D01*
X70790901Y-93037219D01*
X70788495Y-93048839D01*
X70780867Y-93078550D01*
X70777500Y-93091665D01*
X70777500Y-93111919D01*
X70775949Y-93131629D01*
X70772780Y-93151638D01*
X70773526Y-93159530D01*
X70776941Y-93195656D01*
X70777500Y-93207514D01*
X70777500Y-95914406D01*
X70757498Y-95982527D01*
X70740595Y-96003501D01*
X69203747Y-97540348D01*
X69195461Y-97547888D01*
X69188982Y-97552000D01*
X69183557Y-97557777D01*
X69142357Y-97601651D01*
X69139602Y-97604493D01*
X69119865Y-97624230D01*
X69117385Y-97627427D01*
X69109682Y-97636447D01*
X69079414Y-97668679D01*
X69075595Y-97675625D01*
X69075593Y-97675628D01*
X69069652Y-97686434D01*
X69058801Y-97702953D01*
X69046386Y-97718959D01*
X69043241Y-97726228D01*
X69043238Y-97726232D01*
X69028826Y-97759537D01*
X69023609Y-97770187D01*
X69002305Y-97808940D01*
X68998487Y-97823812D01*
X68997267Y-97828562D01*
X68990864Y-97847263D01*
X68984572Y-97861804D01*
X68983165Y-97865056D01*
X68961167Y-97899322D01*
X68856960Y-98015056D01*
X68830217Y-98061377D01*
X68767068Y-98170754D01*
X68761473Y-98180444D01*
X68702458Y-98362072D01*
X68701768Y-98368633D01*
X68701768Y-98368635D01*
X68688832Y-98491715D01*
X68682496Y-98552000D01*
X68683186Y-98558565D01*
X68689848Y-98621946D01*
X68702458Y-98741928D01*
X68761473Y-98923556D01*
X68764776Y-98929278D01*
X68764777Y-98929279D01*
X68798686Y-98988010D01*
X68856960Y-99088944D01*
X68861378Y-99093851D01*
X68861379Y-99093852D01*
X68974044Y-99218979D01*
X68984747Y-99230866D01*
X69073771Y-99295546D01*
X69128207Y-99335096D01*
X69139248Y-99343118D01*
X69145276Y-99345802D01*
X69145278Y-99345803D01*
X69307681Y-99418109D01*
X69313712Y-99420794D01*
X69407112Y-99440647D01*
X69494056Y-99459128D01*
X69494061Y-99459128D01*
X69500513Y-99460500D01*
X69691487Y-99460500D01*
X69697939Y-99459128D01*
X69697944Y-99459128D01*
X69784888Y-99440647D01*
X69878288Y-99420794D01*
X69884319Y-99418109D01*
X70046722Y-99345803D01*
X70046724Y-99345802D01*
X70052752Y-99343118D01*
X70063794Y-99335096D01*
X70118229Y-99295546D01*
X70207253Y-99230866D01*
X70217956Y-99218979D01*
X70330621Y-99093852D01*
X70330622Y-99093851D01*
X70335040Y-99088944D01*
X70393314Y-98988010D01*
X70427223Y-98929279D01*
X70427224Y-98929278D01*
X70430527Y-98923556D01*
X70489542Y-98741928D01*
X70502153Y-98621946D01*
X70504113Y-98603300D01*
X71677300Y-98603300D01*
X73203300Y-98603300D01*
X74217300Y-98603300D01*
X75553059Y-98603300D01*
X75568500Y-98576555D01*
X75568500Y-98218415D01*
X74427385Y-97077300D01*
X74217300Y-97077300D01*
X74217300Y-98603300D01*
X73203300Y-98603300D01*
X73203300Y-97077300D01*
X72828057Y-97077300D01*
X72824510Y-97083298D01*
X72820269Y-97089981D01*
X72789867Y-97134716D01*
X72760862Y-97180421D01*
X72756414Y-97186967D01*
X72737849Y-97212520D01*
X72732997Y-97218775D01*
X72672002Y-97292506D01*
X72666767Y-97298444D01*
X72651582Y-97314615D01*
X72642287Y-97325156D01*
X72639625Y-97328081D01*
X72606891Y-97362936D01*
X72604140Y-97365774D01*
X72594297Y-97375617D01*
X72557194Y-97415128D01*
X72551598Y-97420724D01*
X72512067Y-97457847D01*
X71677300Y-98292614D01*
X71677300Y-98603300D01*
X70504113Y-98603300D01*
X70508814Y-98558565D01*
X70509504Y-98552000D01*
X70503168Y-98491715D01*
X70490232Y-98368635D01*
X70490232Y-98368633D01*
X70489542Y-98362072D01*
X70455595Y-98257594D01*
X70435978Y-98197219D01*
X70433950Y-98126251D01*
X70466716Y-98069188D01*
X71803247Y-96732657D01*
X71811537Y-96725113D01*
X71818018Y-96721000D01*
X71864659Y-96671332D01*
X71867413Y-96668491D01*
X71887135Y-96648769D01*
X71889612Y-96645576D01*
X71897317Y-96636555D01*
X71898242Y-96635570D01*
X71927586Y-96604321D01*
X71931510Y-96597183D01*
X71937346Y-96586568D01*
X71948202Y-96570041D01*
X71955757Y-96560302D01*
X71955758Y-96560300D01*
X71960614Y-96554040D01*
X71978174Y-96513460D01*
X71983391Y-96502812D01*
X72000875Y-96471009D01*
X72000876Y-96471007D01*
X72004695Y-96464060D01*
X72007365Y-96453664D01*
X72009733Y-96444438D01*
X72016137Y-96425734D01*
X72021033Y-96414420D01*
X72021033Y-96414419D01*
X72024181Y-96407145D01*
X72025420Y-96399322D01*
X72025423Y-96399312D01*
X72031099Y-96363476D01*
X72033505Y-96351856D01*
X72042528Y-96316711D01*
X72042528Y-96316710D01*
X72044500Y-96309030D01*
X72044500Y-96288776D01*
X72046051Y-96269065D01*
X72047980Y-96256886D01*
X72049220Y-96249057D01*
X72045059Y-96205038D01*
X72044500Y-96193181D01*
X72044500Y-94506500D01*
X72064502Y-94438379D01*
X72118158Y-94391886D01*
X72170500Y-94380500D01*
X72231487Y-94380500D01*
X72237939Y-94379128D01*
X72237944Y-94379128D01*
X72324887Y-94360647D01*
X72418288Y-94340794D01*
X72424319Y-94338109D01*
X72586722Y-94265803D01*
X72586724Y-94265802D01*
X72592752Y-94263118D01*
X72601618Y-94256677D01*
X72741914Y-94154745D01*
X72747253Y-94150866D01*
X72751668Y-94145963D01*
X72756580Y-94141540D01*
X72758614Y-94143799D01*
X72807895Y-94113496D01*
X72878878Y-94114909D01*
X72930076Y-94145980D01*
X76545595Y-97761500D01*
X76579621Y-97823812D01*
X76582500Y-97850595D01*
X76582500Y-98865476D01*
X76562498Y-98933597D01*
X76550142Y-98949779D01*
X76476960Y-99031056D01*
X76381473Y-99196444D01*
X76322458Y-99378072D01*
X76321768Y-99384633D01*
X76321768Y-99384635D01*
X76306054Y-99534148D01*
X76302496Y-99568000D01*
X76303186Y-99574565D01*
X76320793Y-99742082D01*
X76322458Y-99757928D01*
X76381473Y-99939556D01*
X76384776Y-99945278D01*
X76384777Y-99945279D01*
X76397246Y-99966876D01*
X76476960Y-100104944D01*
X76604747Y-100246866D01*
X76654814Y-100283242D01*
X76736918Y-100342894D01*
X76759248Y-100359118D01*
X76765276Y-100361802D01*
X76765278Y-100361803D01*
X76856859Y-100402577D01*
X76933712Y-100436794D01*
X77027112Y-100456647D01*
X77114056Y-100475128D01*
X77114061Y-100475128D01*
X77120513Y-100476500D01*
X77311487Y-100476500D01*
X77317939Y-100475128D01*
X77317944Y-100475128D01*
X77404888Y-100456647D01*
X77498288Y-100436794D01*
X77575141Y-100402577D01*
X77666722Y-100361803D01*
X77666724Y-100361802D01*
X77672752Y-100359118D01*
X77695083Y-100342894D01*
X77777186Y-100283242D01*
X77827253Y-100246866D01*
X77955040Y-100104944D01*
X78034754Y-99966876D01*
X78047223Y-99945279D01*
X78047224Y-99945278D01*
X78050527Y-99939556D01*
X78109542Y-99757928D01*
X78111208Y-99742082D01*
X78128814Y-99574565D01*
X78129504Y-99568000D01*
X78125946Y-99534148D01*
X78110232Y-99384635D01*
X78110232Y-99384633D01*
X78109542Y-99378072D01*
X78050527Y-99196444D01*
X77955040Y-99031056D01*
X77881863Y-98949785D01*
X77851147Y-98885779D01*
X77849500Y-98865476D01*
X77849500Y-97614767D01*
X77850027Y-97603584D01*
X77851702Y-97596091D01*
X77851172Y-97579209D01*
X77849562Y-97528001D01*
X77849500Y-97524043D01*
X77849500Y-97496144D01*
X77848996Y-97492153D01*
X77848063Y-97480311D01*
X77847753Y-97470430D01*
X77846674Y-97436111D01*
X77844462Y-97428497D01*
X77844461Y-97428492D01*
X77841023Y-97416659D01*
X77837012Y-97397295D01*
X77836112Y-97390166D01*
X77834474Y-97377203D01*
X77831557Y-97369836D01*
X77831556Y-97369831D01*
X77818198Y-97336092D01*
X77814354Y-97324865D01*
X77810360Y-97311118D01*
X77802018Y-97282407D01*
X77791707Y-97264972D01*
X77783012Y-97247224D01*
X77775552Y-97228383D01*
X77768572Y-97218775D01*
X77749564Y-97192613D01*
X77743048Y-97182693D01*
X77724580Y-97151465D01*
X77724578Y-97151462D01*
X77720542Y-97144638D01*
X77706221Y-97130317D01*
X77693380Y-97115283D01*
X77689926Y-97110529D01*
X77681472Y-97098893D01*
X77647395Y-97070702D01*
X77638616Y-97062712D01*
X75604284Y-95028380D01*
X75570259Y-94966069D01*
X75575324Y-94895254D01*
X75617871Y-94838418D01*
X75684391Y-94813607D01*
X75754850Y-94829298D01*
X75771169Y-94838418D01*
X75814409Y-94862584D01*
X75993180Y-94920670D01*
X76179830Y-94942927D01*
X76185965Y-94942455D01*
X76185967Y-94942455D01*
X76361105Y-94928979D01*
X76361109Y-94928978D01*
X76367247Y-94928506D01*
X76458415Y-94903051D01*
X76542350Y-94879616D01*
X76542353Y-94879615D01*
X76548294Y-94877956D01*
X76645445Y-94828882D01*
X76715266Y-94816022D01*
X76780957Y-94842951D01*
X76791349Y-94852253D01*
X83734778Y-101795682D01*
X83768804Y-101857994D01*
X83767100Y-101918448D01*
X83745989Y-101994570D01*
X83745441Y-101999700D01*
X83745440Y-101999704D01*
X83741933Y-102032522D01*
X83722251Y-102216695D01*
X83722548Y-102221848D01*
X83722548Y-102221851D01*
X83732376Y-102392296D01*
X83735110Y-102439715D01*
X83736247Y-102444761D01*
X83736248Y-102444767D01*
X83750952Y-102510010D01*
X83784222Y-102657639D01*
X83868266Y-102864616D01*
X83897253Y-102911918D01*
X83975207Y-103039128D01*
X83984987Y-103055088D01*
X84131250Y-103223938D01*
X84303126Y-103366632D01*
X84365768Y-103403237D01*
X84376445Y-103409476D01*
X84425169Y-103461114D01*
X84438240Y-103530897D01*
X84411509Y-103596669D01*
X84371055Y-103630027D01*
X84358607Y-103636507D01*
X84354474Y-103639610D01*
X84354471Y-103639612D01*
X84184100Y-103767530D01*
X84179965Y-103770635D01*
X84025629Y-103932138D01*
X83899743Y-104116680D01*
X83894350Y-104128299D01*
X83816963Y-104295016D01*
X83805688Y-104319305D01*
X83745989Y-104534570D01*
X83722251Y-104756695D01*
X83722548Y-104761848D01*
X83722548Y-104761851D01*
X83727953Y-104855594D01*
X83735110Y-104979715D01*
X83736247Y-104984761D01*
X83736248Y-104984767D01*
X83756119Y-105072939D01*
X83784222Y-105197639D01*
X83868266Y-105404616D01*
X83918081Y-105485907D01*
X83975207Y-105579128D01*
X83984987Y-105595088D01*
X84131250Y-105763938D01*
X84303126Y-105906632D01*
X84343063Y-105929969D01*
X84376445Y-105949476D01*
X84425169Y-106001114D01*
X84438240Y-106070897D01*
X84411509Y-106136669D01*
X84371055Y-106170027D01*
X84358607Y-106176507D01*
X84354474Y-106179610D01*
X84354471Y-106179612D01*
X84330247Y-106197800D01*
X84179965Y-106310635D01*
X84025629Y-106472138D01*
X83899743Y-106656680D01*
X83805688Y-106859305D01*
X83745989Y-107074570D01*
X83722251Y-107296695D01*
X83722548Y-107301848D01*
X83722548Y-107301851D01*
X83728011Y-107396590D01*
X83735110Y-107519715D01*
X83736247Y-107524761D01*
X83736248Y-107524767D01*
X83756119Y-107612939D01*
X83784222Y-107737639D01*
X83845673Y-107888976D01*
X83850437Y-107900707D01*
X83868266Y-107944616D01*
X83984987Y-108135088D01*
X84131250Y-108303938D01*
X84135225Y-108307238D01*
X84135228Y-108307241D01*
X84203060Y-108363556D01*
X84242695Y-108422459D01*
X84244193Y-108493440D01*
X84207078Y-108553962D01*
X84143134Y-108584811D01*
X84122575Y-108586500D01*
X83390767Y-108586500D01*
X83379584Y-108585973D01*
X83372091Y-108584298D01*
X83364165Y-108584547D01*
X83364164Y-108584547D01*
X83304001Y-108586438D01*
X83300043Y-108586500D01*
X83272144Y-108586500D01*
X83268154Y-108587004D01*
X83256320Y-108587936D01*
X83212111Y-108589326D01*
X83204497Y-108591538D01*
X83204492Y-108591539D01*
X83192659Y-108594977D01*
X83173296Y-108598988D01*
X83153203Y-108601526D01*
X83145836Y-108604443D01*
X83145831Y-108604444D01*
X83112092Y-108617802D01*
X83100865Y-108621646D01*
X83058407Y-108633982D01*
X83051581Y-108638019D01*
X83040972Y-108644293D01*
X83023224Y-108652988D01*
X83004383Y-108660448D01*
X82997967Y-108665110D01*
X82997966Y-108665110D01*
X82968613Y-108686436D01*
X82958693Y-108692952D01*
X82927465Y-108711420D01*
X82927462Y-108711422D01*
X82920638Y-108715458D01*
X82906317Y-108729779D01*
X82891284Y-108742619D01*
X82874893Y-108754528D01*
X82869843Y-108760632D01*
X82869838Y-108760637D01*
X82846707Y-108788598D01*
X82838717Y-108797379D01*
X81903742Y-109732353D01*
X81895463Y-109739887D01*
X81888982Y-109744000D01*
X81850372Y-109785116D01*
X81842357Y-109793651D01*
X81839602Y-109796493D01*
X81819865Y-109816230D01*
X81817385Y-109819427D01*
X81809682Y-109828447D01*
X81779414Y-109860679D01*
X81775595Y-109867625D01*
X81775593Y-109867628D01*
X81769652Y-109878434D01*
X81758801Y-109894953D01*
X81746386Y-109910959D01*
X81743241Y-109918228D01*
X81743238Y-109918232D01*
X81728826Y-109951537D01*
X81723609Y-109962187D01*
X81702305Y-110000940D01*
X81700334Y-110008615D01*
X81700334Y-110008616D01*
X81697267Y-110020562D01*
X81690863Y-110039266D01*
X81682819Y-110057855D01*
X81681580Y-110065678D01*
X81681577Y-110065688D01*
X81675901Y-110101524D01*
X81673495Y-110113144D01*
X81664741Y-110147243D01*
X81662500Y-110155970D01*
X81662500Y-110176224D01*
X81660949Y-110195934D01*
X81657780Y-110215943D01*
X81658526Y-110223835D01*
X81661941Y-110259961D01*
X81662500Y-110271819D01*
X81662500Y-112524500D01*
X81642498Y-112592621D01*
X81588842Y-112639114D01*
X81536500Y-112650500D01*
X78616460Y-112650500D01*
X78548339Y-112630498D01*
X78501846Y-112576842D01*
X78491742Y-112506568D01*
X78521236Y-112441988D01*
X78580253Y-112403814D01*
X78607426Y-112395662D01*
X78607432Y-112395660D01*
X78612384Y-112394174D01*
X78812994Y-112295896D01*
X78994860Y-112166173D01*
X79153096Y-112008489D01*
X79283453Y-111827077D01*
X79289636Y-111814568D01*
X79380136Y-111631453D01*
X79380137Y-111631451D01*
X79382430Y-111626811D01*
X79447370Y-111413069D01*
X79476529Y-111191590D01*
X79478156Y-111125000D01*
X79459852Y-110902361D01*
X79405431Y-110685702D01*
X79316354Y-110480840D01*
X79243878Y-110368809D01*
X79197822Y-110297617D01*
X79197820Y-110297614D01*
X79195014Y-110293277D01*
X79044670Y-110128051D01*
X79040619Y-110124852D01*
X79040615Y-110124848D01*
X78873414Y-109992800D01*
X78873410Y-109992798D01*
X78869359Y-109989598D01*
X78864831Y-109987098D01*
X78761507Y-109930061D01*
X78673789Y-109881638D01*
X78668920Y-109879914D01*
X78668916Y-109879912D01*
X78468087Y-109808795D01*
X78468083Y-109808794D01*
X78463212Y-109807069D01*
X78458119Y-109806162D01*
X78458116Y-109806161D01*
X78296092Y-109777300D01*
X80068902Y-109777300D01*
X80167728Y-109930061D01*
X80170446Y-109934457D01*
X80202211Y-109988276D01*
X80204746Y-109992779D01*
X80214503Y-110010976D01*
X80216850Y-110015579D01*
X80244094Y-110071811D01*
X80246251Y-110076506D01*
X80335328Y-110281368D01*
X80337291Y-110286147D01*
X80359831Y-110344407D01*
X80361596Y-110349262D01*
X80368251Y-110368809D01*
X80369816Y-110373736D01*
X80387519Y-110433689D01*
X80388881Y-110438675D01*
X80443302Y-110655334D01*
X80444458Y-110660373D01*
X80457187Y-110721574D01*
X80458136Y-110726655D01*
X80461508Y-110747027D01*
X80462246Y-110752139D01*
X80469913Y-110814137D01*
X80470442Y-110819277D01*
X80488746Y-111041916D01*
X80488977Y-111045263D01*
X80491223Y-111085761D01*
X80491364Y-111089110D01*
X80491750Y-111102512D01*
X80491802Y-111105863D01*
X80491891Y-111146413D01*
X80491853Y-111149768D01*
X80490226Y-111216358D01*
X80490100Y-111219707D01*
X80488032Y-111260194D01*
X80487816Y-111263539D01*
X80486776Y-111276908D01*
X80486472Y-111280250D01*
X80484060Y-111303300D01*
X80648500Y-111303300D01*
X80648500Y-110313698D01*
X80648280Y-110311371D01*
X80647783Y-110303471D01*
X80644777Y-110207826D01*
X80644777Y-110199911D01*
X80645769Y-110168342D01*
X80646266Y-110160442D01*
X80651359Y-110106558D01*
X80654756Y-110052565D01*
X80655500Y-110044686D01*
X80659458Y-110013352D01*
X80660697Y-110005533D01*
X80678627Y-109911535D01*
X80680352Y-109903816D01*
X80680936Y-109901543D01*
X80681305Y-109899211D01*
X80682788Y-109891440D01*
X80703667Y-109798043D01*
X80705636Y-109790376D01*
X80709435Y-109777300D01*
X80068902Y-109777300D01*
X78296092Y-109777300D01*
X78248373Y-109768800D01*
X78248367Y-109768799D01*
X78243284Y-109767894D01*
X78169452Y-109766992D01*
X78025081Y-109765228D01*
X78025079Y-109765228D01*
X78019911Y-109765165D01*
X77799091Y-109798955D01*
X77586756Y-109868357D01*
X77488942Y-109919276D01*
X77438201Y-109945690D01*
X77368542Y-109959403D01*
X77302527Y-109933278D01*
X77290926Y-109923022D01*
X75323290Y-107955386D01*
X76757300Y-107955386D01*
X77565214Y-108763300D01*
X77863482Y-108763300D01*
X79297300Y-108763300D01*
X80823300Y-108763300D01*
X80823300Y-108364782D01*
X81837300Y-108364782D01*
X82092103Y-108109980D01*
X82093592Y-108108180D01*
X82098828Y-108102241D01*
X82164347Y-108032472D01*
X82169945Y-108026874D01*
X82192969Y-108005254D01*
X82198905Y-108000021D01*
X82240608Y-107965521D01*
X82281167Y-107929763D01*
X82287265Y-107924718D01*
X82312220Y-107905360D01*
X82318624Y-107900707D01*
X82397779Y-107846911D01*
X82404463Y-107842669D01*
X82406485Y-107841473D01*
X82408375Y-107840100D01*
X82414923Y-107835651D01*
X82495735Y-107784368D01*
X82502549Y-107780337D01*
X82530227Y-107765122D01*
X82537279Y-107761530D01*
X82586224Y-107738500D01*
X82634436Y-107713934D01*
X82641598Y-107710564D01*
X82670583Y-107698021D01*
X82677941Y-107695108D01*
X82733497Y-107675106D01*
X82732836Y-107671011D01*
X82729962Y-107650563D01*
X82729348Y-107645433D01*
X82723194Y-107583238D01*
X82722791Y-107578084D01*
X82709932Y-107355064D01*
X82709740Y-107349901D01*
X82708704Y-107287438D01*
X82708725Y-107282272D01*
X82709229Y-107261630D01*
X82709461Y-107256467D01*
X82710717Y-107237300D01*
X81837300Y-107237300D01*
X81837300Y-108364782D01*
X80823300Y-108364782D01*
X80823300Y-107237300D01*
X79297300Y-107237300D01*
X79297300Y-108763300D01*
X77863482Y-108763300D01*
X77866534Y-108762833D01*
X77871654Y-108762156D01*
X77933736Y-108755246D01*
X77938881Y-108754780D01*
X77959479Y-108753339D01*
X77964642Y-108753084D01*
X78027129Y-108751283D01*
X78032298Y-108751240D01*
X78255671Y-108753969D01*
X78260839Y-108754139D01*
X78283300Y-108755336D01*
X78283300Y-107237300D01*
X76757300Y-107237300D01*
X76757300Y-107955386D01*
X75323290Y-107955386D01*
X72783290Y-105415386D01*
X74217300Y-105415386D01*
X75025214Y-106223300D01*
X75743300Y-106223300D01*
X76757300Y-106223300D01*
X78283300Y-106223300D01*
X79297300Y-106223300D01*
X80823300Y-106223300D01*
X81837300Y-106223300D01*
X82983203Y-106223300D01*
X83010896Y-106169533D01*
X83013356Y-106164987D01*
X83023556Y-106147033D01*
X83026199Y-106142595D01*
X83059256Y-106089591D01*
X83062080Y-106085265D01*
X83080012Y-106058978D01*
X83003688Y-105934429D01*
X83001079Y-105929969D01*
X82970638Y-105875390D01*
X82968214Y-105870825D01*
X82958904Y-105852394D01*
X82956669Y-105847735D01*
X82930806Y-105790852D01*
X82928764Y-105786105D01*
X82844720Y-105579128D01*
X82842874Y-105574299D01*
X82821753Y-105515469D01*
X82820107Y-105510570D01*
X82813933Y-105490867D01*
X82812489Y-105485907D01*
X82796269Y-105425581D01*
X82795031Y-105420566D01*
X82745919Y-105202642D01*
X82744886Y-105197579D01*
X82733660Y-105136112D01*
X82732836Y-105131011D01*
X82729962Y-105110563D01*
X82729348Y-105105433D01*
X82723194Y-105043238D01*
X82722791Y-105038084D01*
X82709932Y-104815064D01*
X82709740Y-104809901D01*
X82708704Y-104747438D01*
X82708725Y-104742272D01*
X82709229Y-104721630D01*
X82709461Y-104716467D01*
X82710717Y-104697300D01*
X81837300Y-104697300D01*
X81837300Y-106223300D01*
X80823300Y-106223300D01*
X80823300Y-104697300D01*
X79297300Y-104697300D01*
X79297300Y-106223300D01*
X78283300Y-106223300D01*
X78283300Y-104697300D01*
X76757300Y-104697300D01*
X76757300Y-106223300D01*
X75743300Y-106223300D01*
X75743300Y-104697300D01*
X74217300Y-104697300D01*
X74217300Y-105415386D01*
X72783290Y-105415386D01*
X70995146Y-103627242D01*
X70961120Y-103564930D01*
X70964874Y-103512438D01*
X72314352Y-103512438D01*
X72485214Y-103683300D01*
X73203300Y-103683300D01*
X74217300Y-103683300D01*
X74876557Y-103683300D01*
X76757300Y-103683300D01*
X78283300Y-103683300D01*
X79297300Y-103683300D01*
X80823300Y-103683300D01*
X81837300Y-103683300D01*
X82983203Y-103683300D01*
X83010896Y-103629533D01*
X83013356Y-103624987D01*
X83023556Y-103607033D01*
X83026199Y-103602595D01*
X83059256Y-103549591D01*
X83062080Y-103545265D01*
X83080012Y-103518978D01*
X83003688Y-103394429D01*
X83001079Y-103389969D01*
X82970638Y-103335390D01*
X82968214Y-103330825D01*
X82958904Y-103312394D01*
X82956669Y-103307735D01*
X82930806Y-103250852D01*
X82928764Y-103246105D01*
X82844720Y-103039128D01*
X82842874Y-103034299D01*
X82821753Y-102975469D01*
X82820107Y-102970570D01*
X82813933Y-102950867D01*
X82812489Y-102945907D01*
X82796269Y-102885581D01*
X82795031Y-102880566D01*
X82745919Y-102662642D01*
X82744886Y-102657579D01*
X82733660Y-102596112D01*
X82732836Y-102591011D01*
X82729962Y-102570563D01*
X82729348Y-102565433D01*
X82723194Y-102503238D01*
X82722791Y-102498084D01*
X82709932Y-102275064D01*
X82709740Y-102269901D01*
X82708704Y-102207438D01*
X82708719Y-102203633D01*
X82662386Y-102157300D01*
X81837300Y-102157300D01*
X81837300Y-103683300D01*
X80823300Y-103683300D01*
X80823300Y-102157300D01*
X79297300Y-102157300D01*
X79297300Y-103683300D01*
X78283300Y-103683300D01*
X78283300Y-102157300D01*
X76957607Y-102157300D01*
X76960738Y-102165903D01*
X77015808Y-102371425D01*
X77019622Y-102393056D01*
X77038166Y-102605019D01*
X77038166Y-102626981D01*
X77019622Y-102838944D01*
X77015808Y-102860575D01*
X76960738Y-103066097D01*
X76953226Y-103086735D01*
X76863305Y-103279572D01*
X76852323Y-103298593D01*
X76757300Y-103434299D01*
X76757300Y-103683300D01*
X74876557Y-103683300D01*
X74835114Y-103654281D01*
X74818290Y-103640163D01*
X74667837Y-103489710D01*
X74653719Y-103472886D01*
X74531677Y-103298593D01*
X74520695Y-103279572D01*
X74430774Y-103086735D01*
X74423262Y-103066097D01*
X74368192Y-102860575D01*
X74364378Y-102838944D01*
X74345834Y-102626981D01*
X74345834Y-102605019D01*
X74364378Y-102393056D01*
X74368192Y-102371425D01*
X74423262Y-102165903D01*
X74426393Y-102157300D01*
X74217300Y-102157300D01*
X74217300Y-103683300D01*
X73203300Y-103683300D01*
X73203300Y-102157300D01*
X72482035Y-102157300D01*
X72492428Y-102196087D01*
X72493968Y-102202502D01*
X72499445Y-102228268D01*
X72500648Y-102234754D01*
X72513127Y-102313540D01*
X72513988Y-102320082D01*
X72533950Y-102510010D01*
X72534467Y-102516586D01*
X72538641Y-102596236D01*
X72538814Y-102602830D01*
X72538814Y-102629170D01*
X72538641Y-102635764D01*
X72534467Y-102715414D01*
X72533950Y-102721990D01*
X72513988Y-102911918D01*
X72513127Y-102918460D01*
X72500648Y-102997246D01*
X72499445Y-103003732D01*
X72493968Y-103029498D01*
X72492428Y-103035913D01*
X72471785Y-103112950D01*
X72469912Y-103119273D01*
X72410897Y-103300901D01*
X72408695Y-103307119D01*
X72380112Y-103381580D01*
X72377588Y-103387675D01*
X72366874Y-103411739D01*
X72364034Y-103417692D01*
X72327824Y-103488759D01*
X72324676Y-103494557D01*
X72314352Y-103512438D01*
X70964874Y-103512438D01*
X70966185Y-103494115D01*
X71008732Y-103437279D01*
X71032991Y-103423041D01*
X71062717Y-103409806D01*
X71062725Y-103409801D01*
X71068752Y-103407118D01*
X71092356Y-103389969D01*
X71129025Y-103363327D01*
X71223253Y-103294866D01*
X71351040Y-103152944D01*
X71437188Y-103003732D01*
X71443223Y-102993279D01*
X71443224Y-102993278D01*
X71446527Y-102987556D01*
X71505542Y-102805928D01*
X71525504Y-102616000D01*
X71514364Y-102510010D01*
X71506232Y-102432635D01*
X71506232Y-102432633D01*
X71505542Y-102426072D01*
X71446527Y-102244444D01*
X71440933Y-102234754D01*
X71354341Y-102084774D01*
X71351040Y-102079056D01*
X71251356Y-101968345D01*
X71227675Y-101942045D01*
X71227674Y-101942044D01*
X71223253Y-101937134D01*
X71068752Y-101824882D01*
X71062724Y-101822198D01*
X71062722Y-101822197D01*
X70900319Y-101749891D01*
X70900318Y-101749891D01*
X70894288Y-101747206D01*
X70800887Y-101727353D01*
X70713944Y-101708872D01*
X70713939Y-101708872D01*
X70707487Y-101707500D01*
X70516513Y-101707500D01*
X70510061Y-101708872D01*
X70510056Y-101708872D01*
X70423113Y-101727353D01*
X70329712Y-101747206D01*
X70323682Y-101749891D01*
X70323681Y-101749891D01*
X70161278Y-101822197D01*
X70161276Y-101822198D01*
X70155248Y-101824882D01*
X70053452Y-101898841D01*
X69986588Y-101922698D01*
X69917436Y-101906618D01*
X69890299Y-101885999D01*
X69017945Y-101013645D01*
X71677300Y-101013645D01*
X71819269Y-101116792D01*
X71824503Y-101120808D01*
X71852278Y-101143300D01*
X73203300Y-101143300D01*
X74217300Y-101143300D01*
X75743300Y-101143300D01*
X79297300Y-101143300D01*
X80823300Y-101143300D01*
X80823300Y-100318214D01*
X80122386Y-99617300D01*
X79297300Y-99617300D01*
X79297300Y-101143300D01*
X75743300Y-101143300D01*
X75743300Y-100805530D01*
X75723411Y-100783441D01*
X75719127Y-100778426D01*
X75668938Y-100716449D01*
X75664923Y-100711216D01*
X75649440Y-100689906D01*
X75645703Y-100684469D01*
X75602258Y-100617570D01*
X75598811Y-100611945D01*
X75503324Y-100446557D01*
X75500176Y-100440759D01*
X75463966Y-100369692D01*
X75461126Y-100363739D01*
X75450412Y-100339675D01*
X75447888Y-100333580D01*
X75419305Y-100259119D01*
X75417103Y-100252901D01*
X75358088Y-100071273D01*
X75356215Y-100064950D01*
X75335572Y-99987913D01*
X75334032Y-99981498D01*
X75328555Y-99955732D01*
X75327352Y-99949246D01*
X75314873Y-99870460D01*
X75314012Y-99863918D01*
X75294050Y-99673990D01*
X75293533Y-99667414D01*
X75290907Y-99617300D01*
X74217300Y-99617300D01*
X74217300Y-101143300D01*
X73203300Y-101143300D01*
X73203300Y-99617300D01*
X71677300Y-99617300D01*
X71677300Y-101013645D01*
X69017945Y-101013645D01*
X65694405Y-97690104D01*
X65660379Y-97627792D01*
X65657500Y-97601009D01*
X65657500Y-97423174D01*
X66861485Y-97423174D01*
X67694056Y-98255746D01*
X67694873Y-98249540D01*
X67707352Y-98170754D01*
X67708555Y-98164268D01*
X67714032Y-98138502D01*
X67715572Y-98132087D01*
X67736215Y-98055050D01*
X67738088Y-98048727D01*
X67797103Y-97867099D01*
X67799305Y-97860881D01*
X67827888Y-97786420D01*
X67830412Y-97780325D01*
X67841126Y-97756261D01*
X67843966Y-97750308D01*
X67880176Y-97679241D01*
X67883324Y-97673443D01*
X67978811Y-97508055D01*
X67982258Y-97502430D01*
X68025703Y-97435531D01*
X68029440Y-97430094D01*
X68044923Y-97408784D01*
X68048938Y-97403551D01*
X68099126Y-97341575D01*
X68103411Y-97336558D01*
X68108564Y-97330835D01*
X68110133Y-97327501D01*
X68113730Y-97320443D01*
X68114854Y-97318399D01*
X68115781Y-97316256D01*
X68119152Y-97309090D01*
X68123300Y-97300949D01*
X68123300Y-97077300D01*
X67341510Y-97077300D01*
X67293072Y-97125739D01*
X67288288Y-97130279D01*
X67268713Y-97147905D01*
X67263696Y-97152190D01*
X67201703Y-97202392D01*
X67196469Y-97206408D01*
X67041968Y-97318660D01*
X67036532Y-97322396D01*
X66969649Y-97365831D01*
X66964026Y-97369277D01*
X66941214Y-97382448D01*
X66935415Y-97385597D01*
X66864336Y-97421814D01*
X66861485Y-97423174D01*
X65657500Y-97423174D01*
X65657500Y-96721089D01*
X65677502Y-96652968D01*
X65731158Y-96606475D01*
X65801432Y-96596371D01*
X65809697Y-96597842D01*
X65887256Y-96614328D01*
X65887261Y-96614328D01*
X65893713Y-96615700D01*
X66084687Y-96615700D01*
X66091139Y-96614328D01*
X66091144Y-96614328D01*
X66178087Y-96595847D01*
X66271488Y-96575994D01*
X66308357Y-96559579D01*
X66439922Y-96501003D01*
X66439924Y-96501002D01*
X66445952Y-96498318D01*
X66483540Y-96471009D01*
X66549977Y-96422739D01*
X66600453Y-96386066D01*
X66608372Y-96377271D01*
X66723821Y-96249052D01*
X66723822Y-96249051D01*
X66728240Y-96244144D01*
X66817400Y-96089715D01*
X66820423Y-96084479D01*
X66820424Y-96084478D01*
X66823727Y-96078756D01*
X66882742Y-95897128D01*
X66886141Y-95864794D01*
X66902014Y-95713765D01*
X66902704Y-95707200D01*
X66895368Y-95637403D01*
X66883432Y-95523835D01*
X66883432Y-95523833D01*
X66882742Y-95517272D01*
X66823727Y-95335644D01*
X66728240Y-95170256D01*
X66655063Y-95088985D01*
X66624347Y-95024979D01*
X66622700Y-95004676D01*
X66622700Y-94109567D01*
X66623227Y-94098384D01*
X66624902Y-94090891D01*
X66623851Y-94057438D01*
X66622762Y-94022814D01*
X66622700Y-94018855D01*
X66622700Y-93990944D01*
X66622195Y-93986944D01*
X66621262Y-93975101D01*
X66621187Y-93972696D01*
X66619873Y-93930911D01*
X66614221Y-93911457D01*
X66610213Y-93892100D01*
X66608668Y-93879870D01*
X66608668Y-93879869D01*
X66607674Y-93872003D01*
X66603639Y-93861811D01*
X66591396Y-93830888D01*
X66587551Y-93819658D01*
X66577429Y-93784817D01*
X66577429Y-93784816D01*
X66575218Y-93777207D01*
X66571185Y-93770388D01*
X66571183Y-93770383D01*
X66564907Y-93759772D01*
X66556212Y-93742024D01*
X66548752Y-93723183D01*
X66522764Y-93687413D01*
X66516248Y-93677493D01*
X66497778Y-93646263D01*
X66493742Y-93639438D01*
X66488136Y-93633831D01*
X66479420Y-93625115D01*
X66466579Y-93610081D01*
X66459331Y-93600105D01*
X66459330Y-93600104D01*
X66454672Y-93593693D01*
X66420607Y-93565512D01*
X66411826Y-93557522D01*
X66175047Y-93320742D01*
X66167513Y-93312463D01*
X66163400Y-93305982D01*
X66113747Y-93259355D01*
X66110906Y-93256601D01*
X66091170Y-93236865D01*
X66087973Y-93234385D01*
X66078951Y-93226680D01*
X66052500Y-93201841D01*
X66047766Y-93197395D01*
X67413956Y-93197395D01*
X67424832Y-93214534D01*
X67428863Y-93221349D01*
X67444078Y-93249027D01*
X67447670Y-93256079D01*
X67470700Y-93305024D01*
X67495269Y-93353242D01*
X67498639Y-93360405D01*
X67511183Y-93389393D01*
X67514097Y-93396753D01*
X67546509Y-93486782D01*
X67548954Y-93494306D01*
X67549603Y-93496541D01*
X67550470Y-93498730D01*
X67553150Y-93506176D01*
X67558714Y-93523300D01*
X67846900Y-93523300D01*
X67846900Y-91997300D01*
X67812615Y-91997300D01*
X67429119Y-92380796D01*
X67465408Y-92516225D01*
X67469222Y-92537856D01*
X67487766Y-92749819D01*
X67487766Y-92771781D01*
X67469222Y-92983744D01*
X67465408Y-93005375D01*
X67413956Y-93197395D01*
X66047766Y-93197395D01*
X66046721Y-93196414D01*
X66039775Y-93192595D01*
X66039772Y-93192593D01*
X66028966Y-93186652D01*
X66012447Y-93175801D01*
X66010228Y-93174080D01*
X65996441Y-93163386D01*
X65989172Y-93160241D01*
X65989168Y-93160238D01*
X65955863Y-93145826D01*
X65945213Y-93140609D01*
X65906460Y-93119305D01*
X65886837Y-93114267D01*
X65868134Y-93107863D01*
X65856820Y-93102967D01*
X65856819Y-93102967D01*
X65849545Y-93099819D01*
X65841722Y-93098580D01*
X65841712Y-93098577D01*
X65805876Y-93092901D01*
X65794256Y-93090495D01*
X65759111Y-93081472D01*
X65759110Y-93081472D01*
X65751430Y-93079500D01*
X65731176Y-93079500D01*
X65711465Y-93077949D01*
X65699286Y-93076020D01*
X65691457Y-93074780D01*
X65650909Y-93078613D01*
X65647439Y-93078941D01*
X65635581Y-93079500D01*
X65413626Y-93079500D01*
X65345505Y-93059498D01*
X65299012Y-93005842D01*
X65288908Y-92935568D01*
X65318402Y-92870988D01*
X65378474Y-92832503D01*
X65397340Y-92827022D01*
X65416700Y-92823013D01*
X65428930Y-92821468D01*
X65428931Y-92821468D01*
X65436797Y-92820474D01*
X65444168Y-92817555D01*
X65444170Y-92817555D01*
X65477912Y-92804196D01*
X65489142Y-92800351D01*
X65523983Y-92790229D01*
X65523984Y-92790229D01*
X65531593Y-92788018D01*
X65538412Y-92783985D01*
X65538417Y-92783983D01*
X65549028Y-92777707D01*
X65566776Y-92769012D01*
X65585617Y-92761552D01*
X65621387Y-92735564D01*
X65631307Y-92729048D01*
X65662535Y-92710580D01*
X65662538Y-92710578D01*
X65669362Y-92706542D01*
X65683683Y-92692221D01*
X65698717Y-92679380D01*
X65715107Y-92667472D01*
X65743298Y-92633395D01*
X65751288Y-92624616D01*
X68124100Y-90251805D01*
X68186412Y-90217779D01*
X68213195Y-90214900D01*
X68269087Y-90214900D01*
X68275539Y-90213528D01*
X68275544Y-90213528D01*
X68379786Y-90191370D01*
X68455888Y-90175194D01*
X68478654Y-90165058D01*
X68624322Y-90100203D01*
X68624324Y-90100202D01*
X68630352Y-90097518D01*
X68660838Y-90075368D01*
X68727707Y-90051509D01*
X68796859Y-90067590D01*
G37*
%TD.AperFunction*%
%TD*%
M02*
