%TF.GenerationSoftware,KiCad,Pcbnew,(6.0.6)*%
%TF.CreationDate,2022-11-25T13:48:06+01:00*%
%TF.ProjectId,MCU DataLogger,4d435520-4461-4746-914c-6f676765722e,1*%
%TF.SameCoordinates,Original*%
%TF.FileFunction,Copper,L1,Top*%
%TF.FilePolarity,Positive*%
%FSLAX46Y46*%
G04 Gerber Fmt 4.6, Leading zero omitted, Abs format (unit mm)*
G04 Created by KiCad (PCBNEW (6.0.6)) date 2022-11-25 13:48:06*
%MOMM*%
%LPD*%
G01*
G04 APERTURE LIST*
G04 Aperture macros list*
%AMRoundRect*
0 Rectangle with rounded corners*
0 $1 Rounding radius*
0 $2 $3 $4 $5 $6 $7 $8 $9 X,Y pos of 4 corners*
0 Add a 4 corners polygon primitive as box body*
4,1,4,$2,$3,$4,$5,$6,$7,$8,$9,$2,$3,0*
0 Add four circle primitives for the rounded corners*
1,1,$1+$1,$2,$3*
1,1,$1+$1,$4,$5*
1,1,$1+$1,$6,$7*
1,1,$1+$1,$8,$9*
0 Add four rect primitives between the rounded corners*
20,1,$1+$1,$2,$3,$4,$5,0*
20,1,$1+$1,$4,$5,$6,$7,0*
20,1,$1+$1,$6,$7,$8,$9,0*
20,1,$1+$1,$8,$9,$2,$3,0*%
G04 Aperture macros list end*
%TA.AperFunction,NonConductor*%
%ADD10C,0.200000*%
%TD*%
%TA.AperFunction,SMDPad,CuDef*%
%ADD11RoundRect,0.250000X-0.250000X-0.475000X0.250000X-0.475000X0.250000X0.475000X-0.250000X0.475000X0*%
%TD*%
%TA.AperFunction,ComponentPad*%
%ADD12R,1.700000X1.700000*%
%TD*%
%TA.AperFunction,ComponentPad*%
%ADD13O,1.700000X1.700000*%
%TD*%
%TA.AperFunction,SMDPad,CuDef*%
%ADD14RoundRect,0.250000X0.250000X0.475000X-0.250000X0.475000X-0.250000X-0.475000X0.250000X-0.475000X0*%
%TD*%
%TA.AperFunction,SMDPad,CuDef*%
%ADD15R,3.500000X2.400000*%
%TD*%
%TA.AperFunction,SMDPad,CuDef*%
%ADD16RoundRect,0.243750X-0.243750X-0.456250X0.243750X-0.456250X0.243750X0.456250X-0.243750X0.456250X0*%
%TD*%
%TA.AperFunction,SMDPad,CuDef*%
%ADD17RoundRect,0.250000X-0.262500X-0.450000X0.262500X-0.450000X0.262500X0.450000X-0.262500X0.450000X0*%
%TD*%
%TA.AperFunction,SMDPad,CuDef*%
%ADD18RoundRect,0.250000X0.262500X0.450000X-0.262500X0.450000X-0.262500X-0.450000X0.262500X-0.450000X0*%
%TD*%
%TA.AperFunction,SMDPad,CuDef*%
%ADD19R,2.400000X3.500000*%
%TD*%
%TA.AperFunction,SMDPad,CuDef*%
%ADD20RoundRect,0.150000X-0.650000X-0.150000X0.650000X-0.150000X0.650000X0.150000X-0.650000X0.150000X0*%
%TD*%
%TA.AperFunction,SMDPad,CuDef*%
%ADD21R,1.500000X0.550000*%
%TD*%
%TA.AperFunction,SMDPad,CuDef*%
%ADD22R,0.550000X1.500000*%
%TD*%
%TA.AperFunction,SMDPad,CuDef*%
%ADD23RoundRect,0.041300X-0.943700X-0.253700X0.943700X-0.253700X0.943700X0.253700X-0.943700X0.253700X0*%
%TD*%
%TA.AperFunction,ViaPad*%
%ADD24C,0.900000*%
%TD*%
%TA.AperFunction,ViaPad*%
%ADD25C,0.800000*%
%TD*%
%TA.AperFunction,Conductor*%
%ADD26C,0.250000*%
%TD*%
G04 APERTURE END LIST*
D10*
X38100000Y-83820000D02*
X88900000Y-83820000D01*
X88900000Y-83820000D02*
X88900000Y-114300000D01*
X88900000Y-114300000D02*
X38100000Y-114300000D01*
X38100000Y-114300000D02*
X38100000Y-83820000D01*
D11*
%TO.P,C1,1*%
%TO.N,/Vcc*%
X57470000Y-85725000D03*
%TO.P,C1,2*%
%TO.N,GND*%
X59370000Y-85725000D03*
%TD*%
D12*
%TO.P,BT1,1,+*%
%TO.N,/Vcc*%
X42545000Y-92710000D03*
D13*
%TO.P,BT1,2,-*%
%TO.N,GND*%
X42545000Y-95250000D03*
%TD*%
D14*
%TO.P,C2,1*%
%TO.N,GND*%
X73962500Y-100076000D03*
%TO.P,C2,2*%
%TO.N,Net-(U4-Pad7)*%
X72062500Y-100076000D03*
%TD*%
D15*
%TO.P,Y2,1,1*%
%TO.N,Net-(C3-Pad2)*%
X65465000Y-103505000D03*
%TO.P,Y2,2,2*%
%TO.N,Net-(U4-Pad7)*%
X60265000Y-103505000D03*
%TD*%
D16*
%TO.P,D2,1,K*%
%TO.N,Net-(D2-Pad1)*%
X72057500Y-85760000D03*
%TO.P,D2,2,A*%
%TO.N,/Vcc*%
X73932500Y-85760000D03*
%TD*%
D17*
%TO.P,R3,1*%
%TO.N,/Vcc*%
X47298600Y-106375200D03*
%TO.P,R3,2*%
%TO.N,Net-(R3-Pad2)*%
X49123600Y-106375200D03*
%TD*%
D18*
%TO.P,R1,1*%
%TO.N,/Vcc*%
X74005000Y-95285000D03*
%TO.P,R1,2*%
%TO.N,/SCK*%
X72180000Y-95285000D03*
%TD*%
D11*
%TO.P,C5,1*%
%TO.N,/Vcc*%
X66680000Y-85725000D03*
%TO.P,C5,2*%
%TO.N,GND*%
X68580000Y-85725000D03*
%TD*%
D19*
%TO.P,Y1,1,1*%
%TO.N,Net-(U3-Pad2)*%
X42545000Y-106105000D03*
%TO.P,Y1,2,2*%
%TO.N,Net-(U3-Pad1)*%
X42545000Y-100905000D03*
%TD*%
D17*
%TO.P,R7,1*%
%TO.N,Net-(D2-Pad1)*%
X72137500Y-88935000D03*
%TO.P,R7,2*%
%TO.N,GND*%
X73962500Y-88935000D03*
%TD*%
D20*
%TO.P,U2,1,A0*%
%TO.N,/Vcc*%
X46565000Y-85725000D03*
%TO.P,U2,2,A1*%
%TO.N,GND*%
X46565000Y-86995000D03*
%TO.P,U2,3,A2*%
%TO.N,/Vcc*%
X46565000Y-88265000D03*
%TO.P,U2,4,GND*%
%TO.N,GND*%
X46565000Y-89535000D03*
%TO.P,U2,5,SDA*%
%TO.N,/SDA*%
X53765000Y-89535000D03*
%TO.P,U2,6,SCL*%
%TO.N,/SCK*%
X53765000Y-88265000D03*
%TO.P,U2,7,WP*%
%TO.N,GND*%
X53765000Y-86995000D03*
%TO.P,U2,8,VCC*%
%TO.N,/Vcc*%
X53765000Y-85725000D03*
%TD*%
D12*
%TO.P,J3,1,Pin_1*%
%TO.N,/D2*%
X45085000Y-111125000D03*
D13*
%TO.P,J3,2,Pin_2*%
%TO.N,/D3*%
X47625000Y-111125000D03*
%TO.P,J3,3,Pin_3*%
%TO.N,/D4*%
X50165000Y-111125000D03*
%TO.P,J3,4,Pin_4*%
%TO.N,/D5*%
X52705000Y-111125000D03*
%TO.P,J3,5,Pin_5*%
%TO.N,/D6*%
X55245000Y-111125000D03*
%TO.P,J3,6,Pin_6*%
%TO.N,/D7*%
X57785000Y-111125000D03*
%TO.P,J3,7,Pin_7*%
%TO.N,/D8*%
X60325000Y-111125000D03*
%TO.P,J3,8,Pin_8*%
%TO.N,GND*%
X62865000Y-111125000D03*
%TO.P,J3,9,Pin_9*%
%TO.N,/Vcc*%
X65405000Y-111125000D03*
%TD*%
D21*
%TO.P,U4,1,PD3*%
%TO.N,/D3*%
X59200000Y-91180000D03*
%TO.P,U4,2,PD4*%
%TO.N,/D4*%
X59200000Y-91980000D03*
%TO.P,U4,3,GND*%
%TO.N,GND*%
X59200000Y-92780000D03*
%TO.P,U4,4,VCC*%
%TO.N,/Vcc*%
X59200000Y-93580000D03*
%TO.P,U4,5,GND*%
%TO.N,GND*%
X59200000Y-94380000D03*
%TO.P,U4,6,VCC*%
%TO.N,unconnected-(U4-Pad6)*%
X59200000Y-95180000D03*
%TO.P,U4,7,PB6*%
%TO.N,Net-(U4-Pad7)*%
X59200000Y-95980000D03*
%TO.P,U4,8,PB7*%
%TO.N,Net-(C3-Pad2)*%
X59200000Y-96780000D03*
D22*
%TO.P,U4,9,PD5*%
%TO.N,/D5*%
X60700000Y-98280000D03*
%TO.P,U4,10,PD6*%
%TO.N,/D6*%
X61500000Y-98280000D03*
%TO.P,U4,11,PD7*%
%TO.N,/D7*%
X62300000Y-98280000D03*
%TO.P,U4,12,PB0*%
%TO.N,/D8*%
X63100000Y-98280000D03*
%TO.P,U4,13,PB1*%
%TO.N,unconnected-(U4-Pad13)*%
X63900000Y-98280000D03*
%TO.P,U4,14,PB2*%
%TO.N,unconnected-(U4-Pad14)*%
X64700000Y-98280000D03*
%TO.P,U4,15,PB3*%
%TO.N,/MOSI*%
X65500000Y-98280000D03*
%TO.P,U4,16,PB4*%
%TO.N,/MISO*%
X66300000Y-98280000D03*
D21*
%TO.P,U4,17,PB5*%
%TO.N,/SCK*%
X67800000Y-96780000D03*
%TO.P,U4,18,AVCC*%
%TO.N,/Vcc*%
X67800000Y-95980000D03*
%TO.P,U4,19,ADC6*%
%TO.N,unconnected-(U4-Pad19)*%
X67800000Y-95180000D03*
%TO.P,U4,20,AREF*%
%TO.N,Net-(U4-Pad20)*%
X67800000Y-94380000D03*
%TO.P,U4,21,GND*%
%TO.N,GND*%
X67800000Y-93580000D03*
%TO.P,U4,22,ADC7*%
%TO.N,unconnected-(U4-Pad22)*%
X67800000Y-92780000D03*
%TO.P,U4,23,PC0*%
%TO.N,unconnected-(U4-Pad23)*%
X67800000Y-91980000D03*
%TO.P,U4,24,PC1*%
%TO.N,unconnected-(U4-Pad24)*%
X67800000Y-91180000D03*
D22*
%TO.P,U4,25,PC2*%
%TO.N,unconnected-(U4-Pad25)*%
X66300000Y-89680000D03*
%TO.P,U4,26,PC3*%
%TO.N,unconnected-(U4-Pad26)*%
X65500000Y-89680000D03*
%TO.P,U4,27,PC4*%
%TO.N,/SDA*%
X64700000Y-89680000D03*
%TO.P,U4,28,PC5*%
%TO.N,/SCK*%
X63900000Y-89680000D03*
%TO.P,U4,29,PC6/~{RESET}*%
%TO.N,/RESET*%
X63100000Y-89680000D03*
%TO.P,U4,30,PD0*%
%TO.N,/RX*%
X62300000Y-89680000D03*
%TO.P,U4,31,PD1*%
%TO.N,/TX*%
X61500000Y-89680000D03*
%TO.P,U4,32,PD2*%
%TO.N,/D2*%
X60700000Y-89680000D03*
%TD*%
D12*
%TO.P,J2,1,Pin_1*%
%TO.N,GND*%
X70495000Y-111125000D03*
D13*
%TO.P,J2,2,Pin_2*%
%TO.N,/Vcc*%
X73035000Y-111125000D03*
%TO.P,J2,3,Pin_3*%
%TO.N,/RX*%
X75575000Y-111125000D03*
%TO.P,J2,4,Pin_4*%
%TO.N,/TX*%
X78115000Y-111125000D03*
%TD*%
D20*
%TO.P,U1,8,VCC*%
%TO.N,/Vcc*%
X53765000Y-92710000D03*
%TO.P,U1,7,WP*%
%TO.N,GND*%
X53765000Y-93980000D03*
%TO.P,U1,6,SCL*%
%TO.N,/SCK*%
X53765000Y-95250000D03*
%TO.P,U1,5,SDA*%
%TO.N,/SDA*%
X53765000Y-96520000D03*
%TO.P,U1,4,GND*%
%TO.N,GND*%
X46565000Y-96520000D03*
%TO.P,U1,3,A2*%
%TO.N,/Vcc*%
X46565000Y-95250000D03*
%TO.P,U1,2,A1*%
X46565000Y-93980000D03*
%TO.P,U1,1,A0*%
X46565000Y-92710000D03*
%TD*%
D16*
%TO.P,D1,1,K*%
%TO.N,Net-(D1-Pad1)*%
X76532500Y-85760000D03*
%TO.P,D1,2,A*%
%TO.N,/SCK*%
X78407500Y-85760000D03*
%TD*%
D11*
%TO.P,C3,1*%
%TO.N,GND*%
X61600000Y-85725000D03*
%TO.P,C3,2*%
%TO.N,Net-(C3-Pad2)*%
X63500000Y-85725000D03*
%TD*%
D13*
%TO.P,J4,6,Pin_6*%
%TO.N,GND*%
X85344000Y-95900000D03*
%TO.P,J4,5,Pin_5*%
%TO.N,/RESET*%
X82804000Y-95900000D03*
%TO.P,J4,4,Pin_4*%
%TO.N,/MOSI*%
X85344000Y-93360000D03*
%TO.P,J4,3,Pin_3*%
%TO.N,/SCK*%
X82804000Y-93360000D03*
%TO.P,J4,2,Pin_2*%
%TO.N,/Vcc*%
X85344000Y-90820000D03*
D12*
%TO.P,J4,1,Pin_1*%
%TO.N,/MISO*%
X82804000Y-90820000D03*
%TD*%
D18*
%TO.P,R2,1*%
%TO.N,/Vcc*%
X74005000Y-92110000D03*
%TO.P,R2,2*%
%TO.N,/SDA*%
X72180000Y-92110000D03*
%TD*%
D23*
%TO.P,U3,1,X1*%
%TO.N,Net-(U3-Pad1)*%
X47690000Y-99695000D03*
%TO.P,U3,2,X2*%
%TO.N,Net-(U3-Pad2)*%
X47690000Y-100965000D03*
%TO.P,U3,3,~{INTA}*%
%TO.N,Net-(R3-Pad2)*%
X47690000Y-102235000D03*
%TO.P,U3,4,GND*%
%TO.N,GND*%
X47690000Y-103505000D03*
%TO.P,U3,5,SDA*%
%TO.N,/SDA*%
X52640000Y-103505000D03*
%TO.P,U3,6,SCL*%
%TO.N,/SCK*%
X52640000Y-102235000D03*
%TO.P,U3,7,SQW/~{INT}*%
%TO.N,Net-(R4-Pad2)*%
X52640000Y-100965000D03*
%TO.P,U3,8,VCC*%
%TO.N,/Vcc*%
X52640000Y-99695000D03*
%TD*%
D14*
%TO.P,C4,1*%
%TO.N,GND*%
X73975000Y-102806000D03*
%TO.P,C4,2*%
%TO.N,Net-(U4-Pad20)*%
X72075000Y-102806000D03*
%TD*%
D12*
%TO.P,J1,1,Pin_1*%
%TO.N,GND*%
X85085000Y-99710000D03*
D13*
%TO.P,J1,2,Pin_2*%
%TO.N,/Vcc*%
X85085000Y-102250000D03*
%TO.P,J1,3,Pin_3*%
%TO.N,/SDA*%
X85085000Y-104790000D03*
%TO.P,J1,4,Pin_4*%
%TO.N,/SCK*%
X85085000Y-107330000D03*
%TD*%
D17*
%TO.P,R6,1*%
%TO.N,/Vcc*%
X76582500Y-92110000D03*
%TO.P,R6,2*%
%TO.N,/RESET*%
X78407500Y-92110000D03*
%TD*%
D18*
%TO.P,R4,1*%
%TO.N,/Vcc*%
X52959000Y-106375200D03*
%TO.P,R4,2*%
%TO.N,Net-(R4-Pad2)*%
X51134000Y-106375200D03*
%TD*%
%TO.P,R5,1*%
%TO.N,GND*%
X78327500Y-88935000D03*
%TO.P,R5,2*%
%TO.N,Net-(D1-Pad1)*%
X76502500Y-88935000D03*
%TD*%
D24*
%TO.N,GND*%
X55473600Y-87477600D03*
X70967600Y-106883200D03*
X66141600Y-92760800D03*
X57658000Y-94386400D03*
X70154800Y-85547200D03*
D25*
%TO.N,/Vcc*%
X65278000Y-85547200D03*
%TO.N,/SCK*%
X79502000Y-94843600D03*
%TO.N,/Vcc*%
X74879200Y-86969600D03*
X65989200Y-95707200D03*
X60896700Y-94132400D03*
%TO.N,Net-(C3-Pad2)*%
X63398400Y-87159500D03*
X60909200Y-96520000D03*
%TO.N,/RESET*%
X63144400Y-92202000D03*
X68173600Y-89306400D03*
X72542400Y-90779600D03*
X70561200Y-91744800D03*
%TO.N,/D8*%
X63601600Y-100533200D03*
%TO.N,/D7*%
X62331600Y-100736400D03*
%TO.N,/D6*%
X59385200Y-100076000D03*
%TO.N,/D5*%
X59334400Y-98552000D03*
D24*
%TO.N,/D2*%
X60643500Y-91564236D03*
D25*
%TO.N,/SCK*%
X49784000Y-96012000D03*
X55427099Y-96270299D03*
%TO.N,/Vcc*%
X69596000Y-94996000D03*
%TO.N,/MISO*%
X69596000Y-98552000D03*
%TO.N,/TX*%
X61874400Y-95351600D03*
%TO.N,/RX*%
X62992000Y-94996000D03*
%TO.N,Net-(U4-Pad20)*%
X65024000Y-94488000D03*
X70612000Y-102616000D03*
D24*
%TO.N,GND*%
X75692000Y-102616000D03*
D25*
%TO.N,/SDA*%
X72136000Y-93472000D03*
X77216000Y-99568000D03*
D24*
%TO.N,/Vcc*%
X76200000Y-93980000D03*
%TO.N,GND*%
X78232000Y-87376000D03*
D25*
X73962500Y-87678500D03*
D24*
X51435000Y-94615000D03*
X49530000Y-102235000D03*
%TD*%
D26*
%TO.N,/Vcc*%
X60344300Y-93580000D02*
X59200000Y-93580000D01*
X60896700Y-94132400D02*
X60344300Y-93580000D01*
%TO.N,/TX*%
X61671200Y-89851200D02*
X61500000Y-89680000D01*
X61671200Y-95148400D02*
X61671200Y-89851200D01*
X61874400Y-95351600D02*
X61671200Y-95148400D01*
%TO.N,GND*%
X45828400Y-90271600D02*
X46565000Y-89535000D01*
X40640000Y-92151200D02*
X42519600Y-90271600D01*
X42519600Y-90271600D02*
X45828400Y-90271600D01*
X40640000Y-94615000D02*
X40640000Y-92151200D01*
X42545000Y-95250000D02*
X41275000Y-95250000D01*
X41275000Y-95250000D02*
X40640000Y-94615000D01*
%TO.N,/Vcc*%
X46565000Y-85725000D02*
X53765000Y-85725000D01*
%TO.N,GND*%
X55499000Y-86995000D02*
X55499000Y-87452200D01*
X55499000Y-86995000D02*
X53765000Y-86995000D01*
X55499000Y-87452200D02*
X55473600Y-87477600D01*
X58420000Y-86995000D02*
X55499000Y-86995000D01*
X61600000Y-85725000D02*
X59370000Y-85725000D01*
X73975000Y-103875800D02*
X70967600Y-106883200D01*
X73975000Y-102806000D02*
X73975000Y-103875800D01*
X66960800Y-93580000D02*
X66141600Y-92760800D01*
X67800000Y-93580000D02*
X66960800Y-93580000D01*
X57778800Y-92780000D02*
X59200000Y-92780000D01*
X57658000Y-92862400D02*
X57759600Y-92760800D01*
X57658000Y-94386400D02*
X57658000Y-92862400D01*
X57759600Y-92760800D02*
X57778800Y-92780000D01*
X57664400Y-94380000D02*
X57658000Y-94386400D01*
X59200000Y-94380000D02*
X57664400Y-94380000D01*
%TO.N,/D4*%
X58325000Y-91980000D02*
X59200000Y-91980000D01*
X58125000Y-91780000D02*
X58325000Y-91980000D01*
X57230000Y-89538800D02*
X58125000Y-90433800D01*
X58125000Y-90433800D02*
X58125000Y-91780000D01*
X56830800Y-91382388D02*
X57230000Y-90983188D01*
X56830800Y-96561196D02*
X56830800Y-91382388D01*
X57230000Y-90983188D02*
X57230000Y-89538800D01*
X56330000Y-107906400D02*
X56330000Y-97061996D01*
X56330000Y-97061996D02*
X56830800Y-96561196D01*
X55067200Y-109169200D02*
X56330000Y-107906400D01*
X52120800Y-109169200D02*
X55067200Y-109169200D01*
X50165000Y-111125000D02*
X52120800Y-109169200D01*
%TO.N,/D3*%
X50038000Y-108712000D02*
X47625000Y-111125000D01*
X54406800Y-108712000D02*
X50038000Y-108712000D01*
X55880000Y-107238800D02*
X54406800Y-108712000D01*
X55880000Y-96875600D02*
X55880000Y-107238800D01*
X56380800Y-96374800D02*
X55880000Y-96875600D01*
X56780000Y-88941196D02*
X56780000Y-90796792D01*
X56879196Y-88842000D02*
X56780000Y-88941196D01*
X56780000Y-90796792D02*
X56380800Y-91195992D01*
X57396800Y-88842000D02*
X56879196Y-88842000D01*
X59200000Y-90645200D02*
X57396800Y-88842000D01*
X56380800Y-91195992D02*
X56380800Y-96374800D01*
X59200000Y-91180000D02*
X59200000Y-90645200D01*
%TO.N,GND*%
X69977000Y-85725000D02*
X70154800Y-85547200D01*
X68580000Y-85725000D02*
X69977000Y-85725000D01*
%TO.N,Net-(D2-Pad1)*%
X72057500Y-88855000D02*
X72137500Y-88935000D01*
X72057500Y-85760000D02*
X72057500Y-88855000D01*
%TO.N,/Vcc*%
X65455800Y-85725000D02*
X65278000Y-85547200D01*
X66680000Y-85725000D02*
X65455800Y-85725000D01*
%TO.N,/SCK*%
X73618200Y-96723200D02*
X77520800Y-96723200D01*
X77622400Y-96723200D02*
X79502000Y-94843600D01*
X77520800Y-96723200D02*
X77622400Y-96723200D01*
X72180000Y-95285000D02*
X73618200Y-96723200D01*
%TO.N,/Vcc*%
X73932500Y-86022900D02*
X74879200Y-86969600D01*
X73932500Y-85760000D02*
X73932500Y-86022900D01*
%TO.N,/RESET*%
X77077100Y-90779600D02*
X78407500Y-92110000D01*
X72542400Y-90779600D02*
X77077100Y-90779600D01*
%TO.N,/Vcc*%
X66262000Y-95980000D02*
X67800000Y-95980000D01*
X65989200Y-95707200D02*
X66262000Y-95980000D01*
%TO.N,Net-(C3-Pad2)*%
X60200000Y-96780000D02*
X59200000Y-96780000D01*
X60460000Y-96520000D02*
X60200000Y-96780000D01*
X60909200Y-96520000D02*
X60460000Y-96520000D01*
%TO.N,/D2*%
X60700000Y-91507736D02*
X60700000Y-89680000D01*
X60643500Y-91564236D02*
X60700000Y-91507736D01*
%TO.N,Net-(C3-Pad2)*%
X63398400Y-87159500D02*
X63398400Y-85826600D01*
X63398400Y-85826600D02*
X63500000Y-85725000D01*
%TO.N,/RESET*%
X63100000Y-92157600D02*
X63100000Y-89680000D01*
X63144400Y-92202000D02*
X63100000Y-92157600D01*
X70561200Y-91744800D02*
X68173600Y-89357200D01*
X68173600Y-89357200D02*
X68173600Y-89306400D01*
%TO.N,/SCK*%
X64268000Y-96780000D02*
X67800000Y-96780000D01*
X63900000Y-89680000D02*
X63900000Y-96412000D01*
X63900000Y-96412000D02*
X64268000Y-96780000D01*
%TO.N,/Vcc*%
X43484800Y-112776000D02*
X43484800Y-109982000D01*
X43586400Y-112877600D02*
X43484800Y-112776000D01*
X63652400Y-112877600D02*
X43586400Y-112877600D01*
X65405000Y-111125000D02*
X63652400Y-112877600D01*
X43484800Y-109982000D02*
X47091600Y-106375200D01*
X47091600Y-106375200D02*
X47298600Y-106375200D01*
%TO.N,Net-(R3-Pad2)*%
X46355000Y-102235000D02*
X47690000Y-102235000D01*
X45923200Y-104698800D02*
X45923200Y-102666800D01*
X45923200Y-102666800D02*
X46355000Y-102235000D01*
X47447200Y-104698800D02*
X45923200Y-104698800D01*
X49123600Y-106375200D02*
X47447200Y-104698800D01*
%TO.N,/Vcc*%
X47298600Y-107293400D02*
X47298600Y-106375200D01*
X47599600Y-107594400D02*
X47298600Y-107293400D01*
X51739800Y-107594400D02*
X47599600Y-107594400D01*
X52959000Y-106375200D02*
X51739800Y-107594400D01*
%TO.N,Net-(R4-Pad2)*%
X51536600Y-100965000D02*
X52640000Y-100965000D01*
X51155600Y-101346000D02*
X51536600Y-100965000D01*
X51155600Y-103273974D02*
X51155600Y-101346000D01*
X51134000Y-103295574D02*
X51155600Y-103273974D01*
X51134000Y-106375200D02*
X51134000Y-103295574D01*
%TO.N,/D8*%
X63100000Y-100031600D02*
X63100000Y-98280000D01*
X63601600Y-100533200D02*
X63100000Y-100031600D01*
%TO.N,/D6*%
X61468000Y-98312000D02*
X61500000Y-98280000D01*
X61468000Y-99060000D02*
X61468000Y-98312000D01*
%TO.N,/D7*%
X62331600Y-98311600D02*
X62300000Y-98280000D01*
X62331600Y-100736400D02*
X62331600Y-98311600D01*
%TO.N,/D6*%
X59385200Y-100076000D02*
X60452000Y-100076000D01*
X60452000Y-100076000D02*
X61468000Y-99060000D01*
%TO.N,/D5*%
X59334400Y-98552000D02*
X60428000Y-98552000D01*
X60428000Y-98552000D02*
X60700000Y-98280000D01*
%TO.N,/SCK*%
X63900000Y-88500000D02*
X63900000Y-89680000D01*
X56692800Y-88392000D02*
X64008000Y-88392000D01*
X64008000Y-88392000D02*
X63900000Y-88500000D01*
X56330000Y-88754800D02*
X56692800Y-88392000D01*
X56330000Y-90610396D02*
X56330000Y-88754800D01*
X55930800Y-95766598D02*
X55930800Y-91009596D01*
X55930800Y-91009596D02*
X56330000Y-90610396D01*
X55427099Y-96270299D02*
X55930800Y-95766598D01*
%TO.N,/SDA*%
X56286400Y-87884000D02*
X64516000Y-87884000D01*
X55880000Y-88290400D02*
X56286400Y-87884000D01*
X55880000Y-90424000D02*
X55880000Y-88290400D01*
X55390000Y-90914000D02*
X55880000Y-90424000D01*
X55390000Y-95282800D02*
X55390000Y-90914000D01*
X54152800Y-96520000D02*
X55390000Y-95282800D01*
X53765000Y-96520000D02*
X54152800Y-96520000D01*
%TO.N,Net-(U4-Pad7)*%
X58200000Y-95980000D02*
X59200000Y-95980000D01*
X57970000Y-96210000D02*
X58200000Y-95980000D01*
X57970000Y-101210000D02*
X57970000Y-96210000D01*
X60265000Y-103505000D02*
X57970000Y-101210000D01*
%TO.N,/SDA*%
X55314000Y-102166000D02*
X55314000Y-98069000D01*
X55314000Y-98069000D02*
X53765000Y-96520000D01*
X53975000Y-103505000D02*
X55314000Y-102166000D01*
X52640000Y-103505000D02*
X53975000Y-103505000D01*
%TO.N,/SCK*%
X51943000Y-88265000D02*
X53765000Y-88265000D01*
X51816000Y-88392000D02*
X51943000Y-88265000D01*
X51816000Y-90932000D02*
X51816000Y-88392000D01*
X54864000Y-90932000D02*
X51816000Y-90932000D01*
X54940000Y-91008000D02*
X54864000Y-90932000D01*
X54940000Y-93077462D02*
X54940000Y-91008000D01*
X54914800Y-93102662D02*
X54940000Y-93077462D01*
X54940000Y-94970800D02*
X54940000Y-93612538D01*
X54940000Y-93612538D02*
X54914800Y-93587338D01*
X54356000Y-94996000D02*
X54914800Y-94996000D01*
X54914800Y-94996000D02*
X54940000Y-94970800D01*
X53765000Y-95250000D02*
X54102000Y-95250000D01*
X54102000Y-95250000D02*
X54356000Y-94996000D01*
X54914800Y-93587338D02*
X54914800Y-93102662D01*
%TO.N,/RX*%
X62300000Y-94304000D02*
X62300000Y-89680000D01*
X62992000Y-94996000D02*
X62300000Y-94304000D01*
%TO.N,/SCK*%
X49784000Y-96012000D02*
X51308000Y-96012000D01*
%TO.N,/Vcc*%
X68612000Y-95980000D02*
X69596000Y-94996000D01*
X67800000Y-95980000D02*
X68612000Y-95980000D01*
%TO.N,/SCK*%
X52578000Y-95250000D02*
X52324000Y-95504000D01*
X53765000Y-95250000D02*
X52578000Y-95250000D01*
X54356000Y-98044000D02*
X52324000Y-98044000D01*
X54864000Y-98552000D02*
X54356000Y-98044000D01*
X54864000Y-100456426D02*
X54864000Y-98552000D01*
X53085426Y-102235000D02*
X54864000Y-100456426D01*
X52324000Y-98044000D02*
X51308000Y-97028000D01*
X51308000Y-95504000D02*
X52324000Y-95504000D01*
X51308000Y-97028000D02*
X51308000Y-95504000D01*
X52640000Y-102235000D02*
X53085426Y-102235000D01*
%TO.N,Net-(C3-Pad2)*%
X59176000Y-96780000D02*
X59200000Y-96780000D01*
X59055000Y-101600000D02*
X58420000Y-100965000D01*
X63560000Y-101600000D02*
X59055000Y-101600000D01*
X58420000Y-97536000D02*
X59176000Y-96780000D01*
X65465000Y-103505000D02*
X63560000Y-101600000D01*
X58420000Y-100965000D02*
X58420000Y-97536000D01*
%TO.N,/SDA*%
X55880000Y-90424000D02*
X54991000Y-89535000D01*
X54991000Y-89535000D02*
X53765000Y-89535000D01*
%TO.N,/MISO*%
X69324000Y-98280000D02*
X66300000Y-98280000D01*
X69596000Y-98552000D02*
X69324000Y-98280000D01*
%TO.N,Net-(U4-Pad20)*%
X65132000Y-94380000D02*
X67800000Y-94380000D01*
X65024000Y-94488000D02*
X65132000Y-94380000D01*
X70802000Y-102806000D02*
X70612000Y-102616000D01*
X72075000Y-102806000D02*
X70802000Y-102806000D01*
%TO.N,Net-(U4-Pad7)*%
X70612000Y-100076000D02*
X72062500Y-100076000D01*
X69596000Y-101092000D02*
X70612000Y-100076000D01*
X69596000Y-106172000D02*
X69596000Y-101092000D01*
X62932000Y-106172000D02*
X69596000Y-106172000D01*
X60265000Y-103505000D02*
X62932000Y-106172000D01*
%TO.N,GND*%
X75502000Y-102806000D02*
X75692000Y-102616000D01*
X73975000Y-102806000D02*
X75502000Y-102806000D01*
%TO.N,/SDA*%
X72136000Y-92154000D02*
X72180000Y-92110000D01*
X72136000Y-93472000D02*
X72136000Y-92154000D01*
X82438000Y-104790000D02*
X77216000Y-99568000D01*
X85085000Y-104790000D02*
X82438000Y-104790000D01*
%TO.N,/MOSI*%
X65500000Y-100552000D02*
X65500000Y-98280000D01*
X69088000Y-100584000D02*
X65532000Y-100584000D01*
X71877722Y-97794278D02*
X69088000Y-100584000D01*
X84069722Y-97794278D02*
X71877722Y-97794278D01*
X65532000Y-100584000D02*
X65500000Y-100552000D01*
X84069722Y-94634278D02*
X84069722Y-97794278D01*
X85344000Y-93360000D02*
X84069722Y-94634278D01*
%TO.N,/SCK*%
X87376000Y-105039000D02*
X85085000Y-107330000D01*
X87105000Y-92185000D02*
X87376000Y-92456000D01*
X83979000Y-92185000D02*
X87105000Y-92185000D01*
X82804000Y-93360000D02*
X83979000Y-92185000D01*
X87376000Y-92456000D02*
X87376000Y-105039000D01*
%TO.N,/Vcc*%
X75855000Y-93635000D02*
X76200000Y-93980000D01*
X74005000Y-93635000D02*
X75855000Y-93635000D01*
X74005000Y-93635000D02*
X74005000Y-92110000D01*
X74005000Y-95285000D02*
X74005000Y-93635000D01*
%TO.N,/RESET*%
X78755000Y-92110000D02*
X82545000Y-95900000D01*
X78407500Y-92110000D02*
X78755000Y-92110000D01*
%TO.N,/SCK*%
X80772000Y-88124500D02*
X80772000Y-92456000D01*
X80772000Y-92456000D02*
X81641000Y-92456000D01*
X81641000Y-92456000D02*
X82545000Y-93360000D01*
X78407500Y-85760000D02*
X80772000Y-88124500D01*
%TO.N,GND*%
X78327500Y-87471500D02*
X78232000Y-87376000D01*
X78327500Y-88935000D02*
X78327500Y-87471500D01*
%TO.N,Net-(D1-Pad1)*%
X76502500Y-85790000D02*
X76532500Y-85760000D01*
X76502500Y-88935000D02*
X76502500Y-85790000D01*
%TO.N,/SDA*%
X64516000Y-87884000D02*
X64700000Y-88068000D01*
X64700000Y-88068000D02*
X64700000Y-89680000D01*
X68580000Y-87884000D02*
X64516000Y-87884000D01*
X72180000Y-91484000D02*
X68580000Y-87884000D01*
X72180000Y-92110000D02*
X72180000Y-91484000D01*
%TO.N,/SCK*%
X70685000Y-96780000D02*
X72180000Y-95285000D01*
X67800000Y-96780000D02*
X70685000Y-96780000D01*
%TO.N,/Vcc*%
X74005000Y-92110000D02*
X76582500Y-92110000D01*
%TO.N,GND*%
X73962500Y-87678500D02*
X73962500Y-88935000D01*
X73962500Y-102793500D02*
X73975000Y-102806000D01*
X73962500Y-100076000D02*
X73962500Y-102793500D01*
X52070000Y-93980000D02*
X51435000Y-94615000D01*
X53765000Y-93980000D02*
X52070000Y-93980000D01*
X48260000Y-103505000D02*
X49530000Y-102235000D01*
X47690000Y-103505000D02*
X48260000Y-103505000D01*
%TO.N,Net-(U3-Pad2)*%
X45720000Y-100965000D02*
X47690000Y-100965000D01*
X45085000Y-101600000D02*
X45720000Y-100965000D01*
X42545000Y-106105000D02*
X45085000Y-103565000D01*
X45085000Y-103565000D02*
X45085000Y-101600000D01*
%TO.N,Net-(U3-Pad1)*%
X43755000Y-99695000D02*
X47690000Y-99695000D01*
X42545000Y-100905000D02*
X43755000Y-99695000D01*
%TO.N,/Vcc*%
X51435000Y-92710000D02*
X53765000Y-92710000D01*
X48895000Y-95250000D02*
X51435000Y-92710000D01*
X46565000Y-95250000D02*
X48895000Y-95250000D01*
X46565000Y-92710000D02*
X46565000Y-93980000D01*
X46565000Y-95250000D02*
X46565000Y-93980000D01*
%TO.N,GND*%
X43815000Y-96520000D02*
X46565000Y-96520000D01*
X42545000Y-95250000D02*
X43815000Y-96520000D01*
X50165000Y-88265000D02*
X50165000Y-86995000D01*
X46565000Y-89535000D02*
X48895000Y-89535000D01*
X48895000Y-89535000D02*
X50165000Y-88265000D01*
X46565000Y-86995000D02*
X50165000Y-86995000D01*
X50165000Y-86995000D02*
X53765000Y-86995000D01*
X59370000Y-86045000D02*
X58420000Y-86995000D01*
X59370000Y-85725000D02*
X59370000Y-86045000D01*
%TO.N,/Vcc*%
X45085000Y-85725000D02*
X46565000Y-85725000D01*
X44450000Y-87630000D02*
X44450000Y-86360000D01*
X45085000Y-88265000D02*
X44450000Y-87630000D01*
X44450000Y-86360000D02*
X45085000Y-85725000D01*
X46565000Y-88265000D02*
X45085000Y-88265000D01*
X57470000Y-85725000D02*
X53765000Y-85725000D01*
%TD*%
%TA.AperFunction,Conductor*%
%TO.N,/Vcc*%
G36*
X56735510Y-84448502D02*
G01*
X56782003Y-84502158D01*
X56792107Y-84572432D01*
X56762613Y-84637012D01*
X56745653Y-84653246D01*
X56740793Y-84657098D01*
X56626261Y-84771829D01*
X56617249Y-84783240D01*
X56532184Y-84921243D01*
X56526037Y-84934424D01*
X56474862Y-85088710D01*
X56471995Y-85102086D01*
X56462328Y-85196438D01*
X56462000Y-85202855D01*
X56462000Y-85452885D01*
X56466475Y-85468124D01*
X56467865Y-85469329D01*
X56475548Y-85471000D01*
X57598000Y-85471000D01*
X57666121Y-85491002D01*
X57712614Y-85544658D01*
X57724000Y-85597000D01*
X57724000Y-85853000D01*
X57703998Y-85921121D01*
X57650342Y-85967614D01*
X57598000Y-85979000D01*
X56480116Y-85979000D01*
X56464877Y-85983475D01*
X56463672Y-85984865D01*
X56462001Y-85992548D01*
X56462001Y-86235500D01*
X56441999Y-86303621D01*
X56388343Y-86350114D01*
X56336001Y-86361500D01*
X55570793Y-86361500D01*
X55547184Y-86359268D01*
X55546881Y-86359210D01*
X55546877Y-86359210D01*
X55539094Y-86357725D01*
X55483049Y-86361251D01*
X55475138Y-86361500D01*
X55112643Y-86361500D01*
X55044522Y-86341498D01*
X54998029Y-86287842D01*
X54987925Y-86217568D01*
X55004189Y-86171361D01*
X55019648Y-86145221D01*
X55025893Y-86130790D01*
X55064939Y-85996395D01*
X55064899Y-85982294D01*
X55057630Y-85979000D01*
X52478122Y-85979000D01*
X52464591Y-85982973D01*
X52463456Y-85990871D01*
X52504107Y-86130790D01*
X52510352Y-86145221D01*
X52525811Y-86171361D01*
X52543270Y-86240177D01*
X52520753Y-86307509D01*
X52465409Y-86351978D01*
X52417357Y-86361500D01*
X50236793Y-86361500D01*
X50213184Y-86359268D01*
X50212881Y-86359210D01*
X50212877Y-86359210D01*
X50205094Y-86357725D01*
X50149049Y-86361251D01*
X50141138Y-86361500D01*
X47912643Y-86361500D01*
X47844522Y-86341498D01*
X47798029Y-86287842D01*
X47787925Y-86217568D01*
X47804189Y-86171361D01*
X47819648Y-86145221D01*
X47825893Y-86130790D01*
X47864939Y-85996395D01*
X47864899Y-85982294D01*
X47857630Y-85979000D01*
X45278122Y-85979000D01*
X45264591Y-85982973D01*
X45263456Y-85990871D01*
X45304107Y-86130790D01*
X45310352Y-86145221D01*
X45386911Y-86274677D01*
X45392871Y-86282360D01*
X45418820Y-86348444D01*
X45404922Y-86418067D01*
X45394579Y-86434161D01*
X45390547Y-86438193D01*
X45305855Y-86581399D01*
X45259438Y-86741169D01*
X45258934Y-86747574D01*
X45258933Y-86747579D01*
X45256693Y-86776042D01*
X45256500Y-86778498D01*
X45256500Y-87211502D01*
X45259438Y-87248831D01*
X45305855Y-87408601D01*
X45323625Y-87438649D01*
X45355028Y-87491747D01*
X45390547Y-87551807D01*
X45393487Y-87554747D01*
X45418820Y-87619266D01*
X45404921Y-87688889D01*
X45392874Y-87707636D01*
X45386910Y-87715324D01*
X45310352Y-87844779D01*
X45304107Y-87859210D01*
X45265061Y-87993605D01*
X45265101Y-88007706D01*
X45272370Y-88011000D01*
X47851878Y-88011000D01*
X47865409Y-88007027D01*
X47866544Y-87999129D01*
X47825893Y-87859210D01*
X47819648Y-87844779D01*
X47804189Y-87818639D01*
X47786730Y-87749823D01*
X47809247Y-87682491D01*
X47864591Y-87638022D01*
X47912643Y-87628500D01*
X49405500Y-87628500D01*
X49473621Y-87648502D01*
X49520114Y-87702158D01*
X49531500Y-87754500D01*
X49531500Y-87950405D01*
X49511498Y-88018526D01*
X49494595Y-88039500D01*
X48669500Y-88864595D01*
X48607188Y-88898621D01*
X48580405Y-88901500D01*
X47912643Y-88901500D01*
X47844522Y-88881498D01*
X47798029Y-88827842D01*
X47787925Y-88757568D01*
X47804189Y-88711361D01*
X47819648Y-88685221D01*
X47825893Y-88670790D01*
X47864939Y-88536395D01*
X47864899Y-88522294D01*
X47857630Y-88519000D01*
X45278122Y-88519000D01*
X45264591Y-88522973D01*
X45263456Y-88530871D01*
X45304107Y-88670790D01*
X45310352Y-88685221D01*
X45386911Y-88814677D01*
X45392871Y-88822360D01*
X45418820Y-88888444D01*
X45404922Y-88958067D01*
X45394579Y-88974161D01*
X45390547Y-88978193D01*
X45305855Y-89121399D01*
X45259438Y-89281169D01*
X45258934Y-89287574D01*
X45258933Y-89287579D01*
X45256693Y-89316042D01*
X45256500Y-89318498D01*
X45256500Y-89512100D01*
X45236498Y-89580221D01*
X45182842Y-89626714D01*
X45130500Y-89638100D01*
X42598367Y-89638100D01*
X42587184Y-89637573D01*
X42579691Y-89635898D01*
X42571765Y-89636147D01*
X42571764Y-89636147D01*
X42511601Y-89638038D01*
X42507643Y-89638100D01*
X42479744Y-89638100D01*
X42475754Y-89638604D01*
X42463920Y-89639536D01*
X42419711Y-89640926D01*
X42412097Y-89643138D01*
X42412092Y-89643139D01*
X42400259Y-89646577D01*
X42380896Y-89650588D01*
X42360803Y-89653126D01*
X42353436Y-89656043D01*
X42353431Y-89656044D01*
X42319692Y-89669402D01*
X42308465Y-89673246D01*
X42266007Y-89685582D01*
X42259181Y-89689619D01*
X42248572Y-89695893D01*
X42230824Y-89704588D01*
X42211983Y-89712048D01*
X42205567Y-89716710D01*
X42205566Y-89716710D01*
X42176213Y-89738036D01*
X42166293Y-89744552D01*
X42135065Y-89763020D01*
X42135062Y-89763022D01*
X42128238Y-89767058D01*
X42113917Y-89781379D01*
X42098884Y-89794219D01*
X42082493Y-89806128D01*
X42077442Y-89812234D01*
X42054302Y-89840205D01*
X42046312Y-89848984D01*
X40247747Y-91647548D01*
X40239461Y-91655088D01*
X40232982Y-91659200D01*
X40227557Y-91664977D01*
X40186357Y-91708851D01*
X40183602Y-91711693D01*
X40163865Y-91731430D01*
X40161385Y-91734627D01*
X40153682Y-91743647D01*
X40123414Y-91775879D01*
X40119595Y-91782825D01*
X40119593Y-91782828D01*
X40113652Y-91793634D01*
X40102801Y-91810153D01*
X40090386Y-91826159D01*
X40087241Y-91833428D01*
X40087238Y-91833432D01*
X40072826Y-91866737D01*
X40067609Y-91877387D01*
X40046305Y-91916140D01*
X40044334Y-91923815D01*
X40044334Y-91923816D01*
X40041267Y-91935762D01*
X40034863Y-91954466D01*
X40026819Y-91973055D01*
X40025580Y-91980878D01*
X40025577Y-91980888D01*
X40019901Y-92016724D01*
X40017495Y-92028344D01*
X40013655Y-92043302D01*
X40006500Y-92071170D01*
X40006500Y-92091424D01*
X40004949Y-92111134D01*
X40001780Y-92131143D01*
X40002526Y-92139035D01*
X40005941Y-92175161D01*
X40006500Y-92187019D01*
X40006500Y-94536233D01*
X40005973Y-94547416D01*
X40004298Y-94554909D01*
X40004547Y-94562835D01*
X40004547Y-94562836D01*
X40006438Y-94622986D01*
X40006500Y-94626945D01*
X40006500Y-94654856D01*
X40006997Y-94658790D01*
X40006997Y-94658791D01*
X40007005Y-94658856D01*
X40007938Y-94670693D01*
X40009327Y-94714889D01*
X40014978Y-94734339D01*
X40018987Y-94753700D01*
X40020455Y-94765316D01*
X40021526Y-94773797D01*
X40024445Y-94781168D01*
X40024445Y-94781170D01*
X40037804Y-94814912D01*
X40041649Y-94826142D01*
X40053982Y-94868593D01*
X40058015Y-94875412D01*
X40058017Y-94875417D01*
X40064293Y-94886028D01*
X40072988Y-94903776D01*
X40080448Y-94922617D01*
X40085110Y-94929033D01*
X40085110Y-94929034D01*
X40106436Y-94958387D01*
X40112952Y-94968307D01*
X40129330Y-94996000D01*
X40135458Y-95006362D01*
X40149779Y-95020683D01*
X40162619Y-95035716D01*
X40174528Y-95052107D01*
X40180634Y-95057158D01*
X40208605Y-95080298D01*
X40217384Y-95088288D01*
X40771343Y-95642247D01*
X40778887Y-95650537D01*
X40783000Y-95657018D01*
X40788777Y-95662443D01*
X40832667Y-95703658D01*
X40835509Y-95706413D01*
X40855231Y-95726135D01*
X40858355Y-95728558D01*
X40858359Y-95728562D01*
X40858424Y-95728612D01*
X40867445Y-95736317D01*
X40899679Y-95766586D01*
X40906627Y-95770405D01*
X40906629Y-95770407D01*
X40917432Y-95776346D01*
X40933959Y-95787202D01*
X40943698Y-95794757D01*
X40943700Y-95794758D01*
X40949960Y-95799614D01*
X40990540Y-95817174D01*
X41001188Y-95822391D01*
X41025130Y-95835553D01*
X41039940Y-95843695D01*
X41047616Y-95845666D01*
X41047619Y-95845667D01*
X41059562Y-95848733D01*
X41078267Y-95855137D01*
X41096855Y-95863181D01*
X41104678Y-95864420D01*
X41104688Y-95864423D01*
X41140524Y-95870099D01*
X41152144Y-95872505D01*
X41187289Y-95881528D01*
X41194970Y-95883500D01*
X41215224Y-95883500D01*
X41234934Y-95885051D01*
X41254943Y-95888220D01*
X41262835Y-95887474D01*
X41270758Y-95887723D01*
X41270690Y-95889903D01*
X41329388Y-95901272D01*
X41378981Y-95947377D01*
X41392860Y-95970024D01*
X41429899Y-96030466D01*
X41444987Y-96055088D01*
X41591250Y-96223938D01*
X41763126Y-96366632D01*
X41956000Y-96479338D01*
X42164692Y-96559030D01*
X42169760Y-96560061D01*
X42169763Y-96560062D01*
X42277012Y-96581882D01*
X42383597Y-96603567D01*
X42388772Y-96603757D01*
X42388774Y-96603757D01*
X42601673Y-96611564D01*
X42601677Y-96611564D01*
X42606837Y-96611753D01*
X42611957Y-96611097D01*
X42611959Y-96611097D01*
X42823288Y-96584025D01*
X42823289Y-96584025D01*
X42828416Y-96583368D01*
X42833367Y-96581883D01*
X42833370Y-96581882D01*
X42874829Y-96569444D01*
X42945825Y-96569028D01*
X43000131Y-96601035D01*
X43311343Y-96912247D01*
X43318887Y-96920537D01*
X43323000Y-96927018D01*
X43328777Y-96932443D01*
X43372667Y-96973658D01*
X43375509Y-96976413D01*
X43395230Y-96996134D01*
X43398425Y-96998612D01*
X43407447Y-97006318D01*
X43439679Y-97036586D01*
X43446628Y-97040406D01*
X43457432Y-97046346D01*
X43473956Y-97057199D01*
X43489959Y-97069613D01*
X43530543Y-97087176D01*
X43541173Y-97092383D01*
X43579940Y-97113695D01*
X43587617Y-97115666D01*
X43587622Y-97115668D01*
X43599558Y-97118732D01*
X43618266Y-97125137D01*
X43636855Y-97133181D01*
X43644683Y-97134421D01*
X43644690Y-97134423D01*
X43680524Y-97140099D01*
X43692144Y-97142505D01*
X43721443Y-97150027D01*
X43734970Y-97153500D01*
X43755224Y-97153500D01*
X43774934Y-97155051D01*
X43794943Y-97158220D01*
X43802835Y-97157474D01*
X43838961Y-97154059D01*
X43850819Y-97153500D01*
X45415050Y-97153500D01*
X45483171Y-97173502D01*
X45496271Y-97184059D01*
X45496325Y-97183989D01*
X45502584Y-97188844D01*
X45508193Y-97194453D01*
X45515017Y-97198489D01*
X45515020Y-97198491D01*
X45584172Y-97239387D01*
X45651399Y-97279145D01*
X45659010Y-97281356D01*
X45659012Y-97281357D01*
X45697557Y-97292555D01*
X45811169Y-97325562D01*
X45817574Y-97326066D01*
X45817579Y-97326067D01*
X45846042Y-97328307D01*
X45846050Y-97328307D01*
X45848498Y-97328500D01*
X47281502Y-97328500D01*
X47283950Y-97328307D01*
X47283958Y-97328307D01*
X47312421Y-97326067D01*
X47312426Y-97326066D01*
X47318831Y-97325562D01*
X47432443Y-97292555D01*
X47470988Y-97281357D01*
X47470990Y-97281356D01*
X47478601Y-97279145D01*
X47545828Y-97239387D01*
X47614980Y-97198491D01*
X47614983Y-97198489D01*
X47621807Y-97194453D01*
X47739453Y-97076807D01*
X47743489Y-97069983D01*
X47743491Y-97069980D01*
X47809681Y-96958058D01*
X47824145Y-96933601D01*
X47827799Y-96921026D01*
X47845155Y-96861282D01*
X47870562Y-96773831D01*
X47871211Y-96765595D01*
X47873307Y-96738958D01*
X47873307Y-96738950D01*
X47873500Y-96736502D01*
X47873500Y-96303498D01*
X47873307Y-96301042D01*
X47871067Y-96272579D01*
X47871066Y-96272574D01*
X47870562Y-96266169D01*
X47838410Y-96155499D01*
X47826357Y-96114012D01*
X47826356Y-96114010D01*
X47824145Y-96106399D01*
X47769297Y-96013656D01*
X47743493Y-95970024D01*
X47743492Y-95970023D01*
X47739453Y-95963193D01*
X47736513Y-95960253D01*
X47711180Y-95895734D01*
X47725079Y-95826111D01*
X47737126Y-95807364D01*
X47743090Y-95799676D01*
X47819648Y-95670221D01*
X47825893Y-95655790D01*
X47864939Y-95521395D01*
X47864899Y-95507294D01*
X47857630Y-95504000D01*
X45278122Y-95504000D01*
X45264591Y-95507973D01*
X45263456Y-95515871D01*
X45304107Y-95655790D01*
X45310352Y-95670221D01*
X45325811Y-95696361D01*
X45343270Y-95765177D01*
X45320753Y-95832509D01*
X45265409Y-95876978D01*
X45217357Y-95886500D01*
X44129595Y-95886500D01*
X44061474Y-95866498D01*
X44040500Y-95849595D01*
X43896218Y-95705313D01*
X43862192Y-95643001D01*
X43864755Y-95579589D01*
X43875865Y-95543022D01*
X43877370Y-95538069D01*
X43906529Y-95316590D01*
X43906875Y-95302447D01*
X43908074Y-95253365D01*
X43908074Y-95253361D01*
X43908156Y-95250000D01*
X43889852Y-95027361D01*
X43835431Y-94810702D01*
X43746354Y-94605840D01*
X43690310Y-94519209D01*
X43627822Y-94422617D01*
X43627820Y-94422614D01*
X43625014Y-94418277D01*
X43621540Y-94414459D01*
X43621533Y-94414450D01*
X43477435Y-94256088D01*
X43472466Y-94245871D01*
X45263456Y-94245871D01*
X45304107Y-94385790D01*
X45310352Y-94400221D01*
X45386912Y-94529678D01*
X45393189Y-94537770D01*
X45419139Y-94603854D01*
X45405241Y-94673477D01*
X45393189Y-94692230D01*
X45386912Y-94700322D01*
X45310352Y-94829779D01*
X45304107Y-94844210D01*
X45265061Y-94978605D01*
X45265101Y-94992706D01*
X45272370Y-94996000D01*
X46292885Y-94996000D01*
X46308124Y-94991525D01*
X46309329Y-94990135D01*
X46311000Y-94982452D01*
X46311000Y-94977885D01*
X46819000Y-94977885D01*
X46823475Y-94993124D01*
X46824865Y-94994329D01*
X46832548Y-94996000D01*
X47851878Y-94996000D01*
X47865409Y-94992027D01*
X47866544Y-94984129D01*
X47825893Y-94844210D01*
X47819648Y-94829779D01*
X47743088Y-94700322D01*
X47736811Y-94692230D01*
X47710861Y-94626146D01*
X47724759Y-94556523D01*
X47736811Y-94537770D01*
X47743088Y-94529678D01*
X47819648Y-94400221D01*
X47825893Y-94385790D01*
X47864939Y-94251395D01*
X47864899Y-94237294D01*
X47857630Y-94234000D01*
X46837115Y-94234000D01*
X46821876Y-94238475D01*
X46820671Y-94239865D01*
X46819000Y-94247548D01*
X46819000Y-94977885D01*
X46311000Y-94977885D01*
X46311000Y-94252115D01*
X46306525Y-94236876D01*
X46305135Y-94235671D01*
X46297452Y-94234000D01*
X45278122Y-94234000D01*
X45264591Y-94237973D01*
X45263456Y-94245871D01*
X43472466Y-94245871D01*
X43446383Y-94192242D01*
X43454779Y-94121744D01*
X43499956Y-94066976D01*
X43526400Y-94053307D01*
X43633052Y-94013325D01*
X43648649Y-94004786D01*
X43750724Y-93928285D01*
X43763285Y-93915724D01*
X43830155Y-93826500D01*
X49120500Y-93826500D01*
X49622521Y-93826500D01*
X49623136Y-93825065D01*
X49625699Y-93819466D01*
X49658337Y-93752548D01*
X49661170Y-93747082D01*
X49751726Y-93582361D01*
X49754824Y-93577039D01*
X49793836Y-93513627D01*
X49797189Y-93508464D01*
X49811082Y-93488174D01*
X49814683Y-93483181D01*
X49859691Y-93423885D01*
X49863532Y-93419073D01*
X49984358Y-93275078D01*
X49988431Y-93270459D01*
X50039026Y-93215822D01*
X50043320Y-93211406D01*
X50060890Y-93194201D01*
X50065392Y-93190003D01*
X50121049Y-93140590D01*
X50125750Y-93136618D01*
X50272243Y-93018834D01*
X50277133Y-93015095D01*
X50337347Y-92971346D01*
X50342413Y-92967851D01*
X50362990Y-92954385D01*
X50368224Y-92951139D01*
X50432454Y-92913454D01*
X50437841Y-92910468D01*
X50604422Y-92823382D01*
X50609945Y-92820664D01*
X50646500Y-92803773D01*
X50646500Y-92438605D01*
X52465061Y-92438605D01*
X52465101Y-92452706D01*
X52472370Y-92456000D01*
X53492885Y-92456000D01*
X53508124Y-92451525D01*
X53509329Y-92450135D01*
X53511000Y-92442452D01*
X53511000Y-91920116D01*
X53506525Y-91904877D01*
X53505135Y-91903672D01*
X53497452Y-91902001D01*
X53051017Y-91902001D01*
X53046080Y-91902195D01*
X53017664Y-91904430D01*
X53005069Y-91906730D01*
X52859210Y-91949107D01*
X52844779Y-91955352D01*
X52715322Y-92031911D01*
X52702896Y-92041551D01*
X52596551Y-92147896D01*
X52586911Y-92160322D01*
X52510352Y-92289779D01*
X52504107Y-92304210D01*
X52465061Y-92438605D01*
X50646500Y-92438605D01*
X50646500Y-92300500D01*
X49120500Y-92300500D01*
X49120500Y-93826500D01*
X43830155Y-93826500D01*
X43839786Y-93813649D01*
X43848324Y-93798054D01*
X43893478Y-93677606D01*
X43897105Y-93662351D01*
X43902631Y-93611486D01*
X43903000Y-93604672D01*
X43903000Y-92982115D01*
X43901166Y-92975871D01*
X45263456Y-92975871D01*
X45304107Y-93115790D01*
X45310352Y-93130221D01*
X45386912Y-93259678D01*
X45393189Y-93267770D01*
X45419139Y-93333854D01*
X45405241Y-93403477D01*
X45393189Y-93422230D01*
X45386912Y-93430322D01*
X45310352Y-93559779D01*
X45304107Y-93574210D01*
X45265061Y-93708605D01*
X45265101Y-93722706D01*
X45272370Y-93726000D01*
X46292885Y-93726000D01*
X46308124Y-93721525D01*
X46309329Y-93720135D01*
X46311000Y-93712452D01*
X46311000Y-93707885D01*
X46819000Y-93707885D01*
X46823475Y-93723124D01*
X46824865Y-93724329D01*
X46832548Y-93726000D01*
X47851878Y-93726000D01*
X47865409Y-93722027D01*
X47866544Y-93714129D01*
X47825893Y-93574210D01*
X47819648Y-93559779D01*
X47743088Y-93430322D01*
X47736811Y-93422230D01*
X47710861Y-93356146D01*
X47724759Y-93286523D01*
X47736811Y-93267770D01*
X47743088Y-93259678D01*
X47819648Y-93130221D01*
X47825893Y-93115790D01*
X47864939Y-92981395D01*
X47864899Y-92967294D01*
X47857630Y-92964000D01*
X46837115Y-92964000D01*
X46821876Y-92968475D01*
X46820671Y-92969865D01*
X46819000Y-92977548D01*
X46819000Y-93707885D01*
X46311000Y-93707885D01*
X46311000Y-92982115D01*
X46306525Y-92966876D01*
X46305135Y-92965671D01*
X46297452Y-92964000D01*
X45278122Y-92964000D01*
X45264591Y-92967973D01*
X45263456Y-92975871D01*
X43901166Y-92975871D01*
X43898525Y-92966876D01*
X43897135Y-92965671D01*
X43889452Y-92964000D01*
X42417000Y-92964000D01*
X42348879Y-92943998D01*
X42302386Y-92890342D01*
X42291000Y-92838000D01*
X42291000Y-92437885D01*
X42799000Y-92437885D01*
X42803475Y-92453124D01*
X42804865Y-92454329D01*
X42812548Y-92456000D01*
X43884884Y-92456000D01*
X43900123Y-92451525D01*
X43901328Y-92450135D01*
X43902999Y-92442452D01*
X43902999Y-92438605D01*
X45265061Y-92438605D01*
X45265101Y-92452706D01*
X45272370Y-92456000D01*
X46292885Y-92456000D01*
X46308124Y-92451525D01*
X46309329Y-92450135D01*
X46311000Y-92442452D01*
X46311000Y-92437885D01*
X46819000Y-92437885D01*
X46823475Y-92453124D01*
X46824865Y-92454329D01*
X46832548Y-92456000D01*
X47851878Y-92456000D01*
X47865409Y-92452027D01*
X47866544Y-92444129D01*
X47825893Y-92304210D01*
X47819648Y-92289779D01*
X47743089Y-92160322D01*
X47733449Y-92147896D01*
X47627104Y-92041551D01*
X47614678Y-92031911D01*
X47485221Y-91955352D01*
X47470790Y-91949107D01*
X47324935Y-91906731D01*
X47312333Y-91904430D01*
X47283916Y-91902193D01*
X47278986Y-91902000D01*
X46837115Y-91902000D01*
X46821876Y-91906475D01*
X46820671Y-91907865D01*
X46819000Y-91915548D01*
X46819000Y-92437885D01*
X46311000Y-92437885D01*
X46311000Y-91920116D01*
X46306525Y-91904877D01*
X46305135Y-91903672D01*
X46297452Y-91902001D01*
X45851017Y-91902001D01*
X45846080Y-91902195D01*
X45817664Y-91904430D01*
X45805069Y-91906730D01*
X45659210Y-91949107D01*
X45644779Y-91955352D01*
X45515322Y-92031911D01*
X45502896Y-92041551D01*
X45396551Y-92147896D01*
X45386911Y-92160322D01*
X45310352Y-92289779D01*
X45304107Y-92304210D01*
X45265061Y-92438605D01*
X43902999Y-92438605D01*
X43902999Y-91815331D01*
X43902629Y-91808510D01*
X43897105Y-91757648D01*
X43893479Y-91742396D01*
X43848324Y-91621946D01*
X43839786Y-91606351D01*
X43763285Y-91504276D01*
X43750724Y-91491715D01*
X43648649Y-91415214D01*
X43633054Y-91406676D01*
X43512606Y-91361522D01*
X43497351Y-91357895D01*
X43446486Y-91352369D01*
X43439672Y-91352000D01*
X42817115Y-91352000D01*
X42801876Y-91356475D01*
X42800671Y-91357865D01*
X42799000Y-91365548D01*
X42799000Y-92437885D01*
X42291000Y-92437885D01*
X42291000Y-91448295D01*
X42311002Y-91380174D01*
X42327905Y-91359200D01*
X42745100Y-90942005D01*
X42807412Y-90907979D01*
X42834195Y-90905100D01*
X45749633Y-90905100D01*
X45760816Y-90905627D01*
X45768309Y-90907302D01*
X45776235Y-90907053D01*
X45776236Y-90907053D01*
X45836386Y-90905162D01*
X45840345Y-90905100D01*
X45868256Y-90905100D01*
X45872191Y-90904603D01*
X45872256Y-90904595D01*
X45884093Y-90903662D01*
X45916351Y-90902648D01*
X45920370Y-90902522D01*
X45928289Y-90902273D01*
X45947743Y-90896621D01*
X45967100Y-90892613D01*
X45979330Y-90891068D01*
X45979331Y-90891068D01*
X45987197Y-90890074D01*
X45994568Y-90887155D01*
X45994570Y-90887155D01*
X46028312Y-90873796D01*
X46039542Y-90869951D01*
X46074383Y-90859829D01*
X46074384Y-90859829D01*
X46081993Y-90857618D01*
X46088812Y-90853585D01*
X46088817Y-90853583D01*
X46099428Y-90847307D01*
X46117176Y-90838612D01*
X46136017Y-90831152D01*
X46171787Y-90805164D01*
X46181707Y-90798648D01*
X46212935Y-90780180D01*
X46212938Y-90780178D01*
X46219762Y-90776142D01*
X46234083Y-90761821D01*
X46249117Y-90748980D01*
X46259094Y-90741731D01*
X46265507Y-90737072D01*
X46293698Y-90702995D01*
X46301688Y-90694216D01*
X46615499Y-90380405D01*
X46677811Y-90346379D01*
X46704594Y-90343500D01*
X47281502Y-90343500D01*
X47283950Y-90343307D01*
X47283958Y-90343307D01*
X47312421Y-90341067D01*
X47312426Y-90341066D01*
X47318831Y-90340562D01*
X47418769Y-90311528D01*
X47470988Y-90296357D01*
X47470990Y-90296356D01*
X47478601Y-90294145D01*
X47508910Y-90276220D01*
X47614980Y-90213491D01*
X47614983Y-90213489D01*
X47621807Y-90209453D01*
X47627415Y-90203845D01*
X47633675Y-90198989D01*
X47634844Y-90200496D01*
X47688167Y-90171379D01*
X47714950Y-90168500D01*
X48816233Y-90168500D01*
X48827416Y-90169027D01*
X48834909Y-90170702D01*
X48842835Y-90170453D01*
X48842836Y-90170453D01*
X48902986Y-90168562D01*
X48906945Y-90168500D01*
X48934856Y-90168500D01*
X48938791Y-90168003D01*
X48938856Y-90167995D01*
X48950693Y-90167062D01*
X48982951Y-90166048D01*
X48986970Y-90165922D01*
X48994889Y-90165673D01*
X49014343Y-90160021D01*
X49033700Y-90156013D01*
X49045930Y-90154468D01*
X49045931Y-90154468D01*
X49053797Y-90153474D01*
X49061168Y-90150555D01*
X49061170Y-90150555D01*
X49094912Y-90137196D01*
X49106142Y-90133351D01*
X49140983Y-90123229D01*
X49140984Y-90123229D01*
X49148593Y-90121018D01*
X49155412Y-90116985D01*
X49155417Y-90116983D01*
X49166028Y-90110707D01*
X49183776Y-90102012D01*
X49202617Y-90094552D01*
X49238387Y-90068564D01*
X49248307Y-90062048D01*
X49279535Y-90043580D01*
X49279538Y-90043578D01*
X49286362Y-90039542D01*
X49300683Y-90025221D01*
X49315717Y-90012380D01*
X49325694Y-90005131D01*
X49332107Y-90000472D01*
X49360298Y-89966395D01*
X49368288Y-89957616D01*
X50557247Y-88768657D01*
X50565537Y-88761113D01*
X50572018Y-88757000D01*
X50618659Y-88707332D01*
X50621413Y-88704491D01*
X50641134Y-88684770D01*
X50643612Y-88681575D01*
X50651318Y-88672553D01*
X50676158Y-88646101D01*
X50681586Y-88640321D01*
X50691346Y-88622568D01*
X50702199Y-88606045D01*
X50709753Y-88596306D01*
X50714613Y-88590041D01*
X50732176Y-88549457D01*
X50737383Y-88538827D01*
X50758695Y-88500060D01*
X50760666Y-88492383D01*
X50760668Y-88492378D01*
X50763732Y-88480442D01*
X50770138Y-88461730D01*
X50775033Y-88450419D01*
X50778181Y-88443145D01*
X50779421Y-88435317D01*
X50779423Y-88435310D01*
X50785099Y-88399476D01*
X50787505Y-88387856D01*
X50796528Y-88352711D01*
X50796528Y-88352710D01*
X50798500Y-88345030D01*
X50798500Y-88324776D01*
X50800051Y-88305065D01*
X50801980Y-88292886D01*
X50803220Y-88285057D01*
X50799059Y-88241038D01*
X50798500Y-88229181D01*
X50798500Y-87754500D01*
X50818502Y-87686379D01*
X50872158Y-87639886D01*
X50924500Y-87628500D01*
X51379406Y-87628500D01*
X51447527Y-87648502D01*
X51494020Y-87702158D01*
X51504124Y-87772432D01*
X51474630Y-87837012D01*
X51468501Y-87843595D01*
X51423749Y-87888347D01*
X51415463Y-87895887D01*
X51408982Y-87900000D01*
X51403555Y-87905779D01*
X51403554Y-87905780D01*
X51362356Y-87949652D01*
X51359601Y-87952494D01*
X51339865Y-87972230D01*
X51337385Y-87975427D01*
X51329682Y-87984447D01*
X51299414Y-88016679D01*
X51295595Y-88023625D01*
X51295593Y-88023628D01*
X51289652Y-88034434D01*
X51278801Y-88050953D01*
X51266386Y-88066959D01*
X51263241Y-88074228D01*
X51263238Y-88074232D01*
X51248826Y-88107537D01*
X51243609Y-88118187D01*
X51222305Y-88156940D01*
X51220334Y-88164615D01*
X51220334Y-88164616D01*
X51217267Y-88176562D01*
X51210863Y-88195266D01*
X51202819Y-88213855D01*
X51201580Y-88221678D01*
X51201577Y-88221688D01*
X51195901Y-88257524D01*
X51193495Y-88269144D01*
X51182500Y-88311970D01*
X51182500Y-88332224D01*
X51180949Y-88351934D01*
X51177780Y-88371943D01*
X51178526Y-88379835D01*
X51181941Y-88415961D01*
X51182500Y-88427819D01*
X51182500Y-90860207D01*
X51180268Y-90883816D01*
X51178725Y-90891906D01*
X51181384Y-90934174D01*
X51182251Y-90947951D01*
X51182500Y-90955862D01*
X51182500Y-90971856D01*
X51184506Y-90987730D01*
X51185248Y-90995590D01*
X51188775Y-91051650D01*
X51191225Y-91059191D01*
X51191321Y-91059487D01*
X51196494Y-91082631D01*
X51196532Y-91082935D01*
X51196533Y-91082940D01*
X51197526Y-91090797D01*
X51200442Y-91098162D01*
X51200443Y-91098166D01*
X51218199Y-91143011D01*
X51220871Y-91150430D01*
X51238236Y-91203875D01*
X51242486Y-91210571D01*
X51242486Y-91210572D01*
X51242650Y-91210831D01*
X51253415Y-91231958D01*
X51253529Y-91232246D01*
X51253532Y-91232251D01*
X51256448Y-91239617D01*
X51261104Y-91246025D01*
X51261107Y-91246031D01*
X51289458Y-91285052D01*
X51293901Y-91291589D01*
X51324000Y-91339018D01*
X51329778Y-91344444D01*
X51329779Y-91344445D01*
X51330007Y-91344659D01*
X51345688Y-91362446D01*
X51350528Y-91369107D01*
X51356637Y-91374161D01*
X51356638Y-91374162D01*
X51393796Y-91404903D01*
X51399730Y-91410134D01*
X51434898Y-91443158D01*
X51434901Y-91443160D01*
X51440679Y-91448586D01*
X51447903Y-91452558D01*
X51467506Y-91465881D01*
X51467746Y-91466080D01*
X51467753Y-91466084D01*
X51473856Y-91471133D01*
X51507061Y-91486758D01*
X51524676Y-91495047D01*
X51531708Y-91498629D01*
X51580940Y-91525695D01*
X51588615Y-91527665D01*
X51588621Y-91527668D01*
X51588919Y-91527744D01*
X51611228Y-91535776D01*
X51611503Y-91535906D01*
X51611511Y-91535909D01*
X51618682Y-91539283D01*
X51673849Y-91549806D01*
X51681558Y-91551529D01*
X51715551Y-91560257D01*
X51728293Y-91563529D01*
X51728294Y-91563529D01*
X51735970Y-91565500D01*
X51744207Y-91565500D01*
X51767816Y-91567732D01*
X51768119Y-91567790D01*
X51768123Y-91567790D01*
X51775906Y-91569275D01*
X51831951Y-91565749D01*
X51839862Y-91565500D01*
X54180500Y-91565500D01*
X54248621Y-91585502D01*
X54295114Y-91639158D01*
X54306500Y-91691500D01*
X54306500Y-91776000D01*
X54286498Y-91844121D01*
X54232842Y-91890614D01*
X54180500Y-91902000D01*
X54037115Y-91902000D01*
X54021876Y-91906475D01*
X54020671Y-91907865D01*
X54019000Y-91915548D01*
X54019000Y-92838000D01*
X53998998Y-92906121D01*
X53945342Y-92952614D01*
X53893000Y-92964000D01*
X52478122Y-92964000D01*
X52464591Y-92967973D01*
X52463456Y-92975871D01*
X52504107Y-93115790D01*
X52510352Y-93130221D01*
X52525811Y-93156361D01*
X52543270Y-93225177D01*
X52520753Y-93292509D01*
X52465409Y-93336978D01*
X52417357Y-93346500D01*
X52148768Y-93346500D01*
X52137585Y-93345973D01*
X52130092Y-93344298D01*
X52122166Y-93344547D01*
X52122165Y-93344547D01*
X52062002Y-93346438D01*
X52058044Y-93346500D01*
X52030144Y-93346500D01*
X52026154Y-93347004D01*
X52014320Y-93347936D01*
X51970111Y-93349326D01*
X51962495Y-93351539D01*
X51962493Y-93351539D01*
X51950652Y-93354979D01*
X51931293Y-93358988D01*
X51929983Y-93359154D01*
X51911203Y-93361526D01*
X51903837Y-93364442D01*
X51903831Y-93364444D01*
X51870098Y-93377800D01*
X51858868Y-93381645D01*
X51824017Y-93391770D01*
X51816407Y-93393981D01*
X51809584Y-93398016D01*
X51798966Y-93404295D01*
X51781213Y-93412992D01*
X51773568Y-93416019D01*
X51762383Y-93420448D01*
X51749440Y-93429852D01*
X51726612Y-93446437D01*
X51716695Y-93452951D01*
X51678638Y-93475458D01*
X51664317Y-93489779D01*
X51649284Y-93502619D01*
X51632893Y-93514528D01*
X51627840Y-93520636D01*
X51604708Y-93548598D01*
X51596718Y-93557378D01*
X51538464Y-93615632D01*
X51476152Y-93649658D01*
X51448490Y-93652534D01*
X51447857Y-93652530D01*
X51441724Y-93651885D01*
X51435582Y-93652444D01*
X51260665Y-93668363D01*
X51260662Y-93668364D01*
X51254526Y-93668922D01*
X51248620Y-93670660D01*
X51248616Y-93670661D01*
X51143937Y-93701470D01*
X51074202Y-93721994D01*
X50907621Y-93809080D01*
X50761128Y-93926864D01*
X50757170Y-93931582D01*
X50757167Y-93931584D01*
X50688136Y-94013852D01*
X50640302Y-94070859D01*
X50637338Y-94076251D01*
X50637335Y-94076255D01*
X50573571Y-94192242D01*
X50549746Y-94235580D01*
X50547885Y-94241447D01*
X50547884Y-94241449D01*
X50544729Y-94251395D01*
X50492909Y-94414752D01*
X50471956Y-94601552D01*
X50472472Y-94607696D01*
X50486941Y-94780000D01*
X50487685Y-94788865D01*
X50510547Y-94868593D01*
X50536295Y-94958387D01*
X50539497Y-94969555D01*
X50542312Y-94975032D01*
X50542313Y-94975035D01*
X50588270Y-95064457D01*
X50625418Y-95136740D01*
X50630543Y-95143206D01*
X50655137Y-95174236D01*
X50681774Y-95240046D01*
X50668603Y-95309810D01*
X50619806Y-95361379D01*
X50556391Y-95378500D01*
X50492200Y-95378500D01*
X50424079Y-95358498D01*
X50404853Y-95342157D01*
X50404580Y-95342460D01*
X50399668Y-95338037D01*
X50395253Y-95333134D01*
X50290600Y-95257099D01*
X50246094Y-95224763D01*
X50246093Y-95224762D01*
X50240752Y-95220882D01*
X50234724Y-95218198D01*
X50234722Y-95218197D01*
X50072319Y-95145891D01*
X50072318Y-95145891D01*
X50066288Y-95143206D01*
X49972888Y-95123353D01*
X49885944Y-95104872D01*
X49885939Y-95104872D01*
X49879487Y-95103500D01*
X49688513Y-95103500D01*
X49682061Y-95104872D01*
X49682056Y-95104872D01*
X49595112Y-95123353D01*
X49501712Y-95143206D01*
X49495682Y-95145891D01*
X49495681Y-95145891D01*
X49333278Y-95218197D01*
X49333276Y-95218198D01*
X49327248Y-95220882D01*
X49321907Y-95224762D01*
X49321906Y-95224763D01*
X49300871Y-95240046D01*
X49172747Y-95333134D01*
X49168326Y-95338044D01*
X49168325Y-95338045D01*
X49053707Y-95465342D01*
X49044960Y-95475056D01*
X49020423Y-95517555D01*
X48955020Y-95630837D01*
X48949473Y-95640444D01*
X48890458Y-95822072D01*
X48889768Y-95828633D01*
X48889768Y-95828635D01*
X48876303Y-95956745D01*
X48870496Y-96012000D01*
X48871186Y-96018565D01*
X48880754Y-96109595D01*
X48890458Y-96201928D01*
X48949473Y-96383556D01*
X48952776Y-96389278D01*
X48952777Y-96389279D01*
X48970506Y-96419986D01*
X49044960Y-96548944D01*
X49049378Y-96553851D01*
X49049379Y-96553852D01*
X49106626Y-96617431D01*
X49172747Y-96690866D01*
X49327248Y-96803118D01*
X49333276Y-96805802D01*
X49333278Y-96805803D01*
X49495681Y-96878109D01*
X49501712Y-96880794D01*
X49595112Y-96900647D01*
X49682056Y-96919128D01*
X49682061Y-96919128D01*
X49688513Y-96920500D01*
X49879487Y-96920500D01*
X49885939Y-96919128D01*
X49885944Y-96919128D01*
X49972888Y-96900647D01*
X50066288Y-96880794D01*
X50072319Y-96878109D01*
X50234722Y-96805803D01*
X50234724Y-96805802D01*
X50240752Y-96803118D01*
X50395253Y-96690866D01*
X50399668Y-96685963D01*
X50404580Y-96681540D01*
X50405705Y-96682789D01*
X50459014Y-96649949D01*
X50492200Y-96645500D01*
X50548500Y-96645500D01*
X50616621Y-96665502D01*
X50663114Y-96719158D01*
X50674500Y-96771500D01*
X50674500Y-96949233D01*
X50673973Y-96960416D01*
X50672298Y-96967909D01*
X50672547Y-96975835D01*
X50672547Y-96975836D01*
X50674438Y-97035986D01*
X50674500Y-97039945D01*
X50674500Y-97067856D01*
X50674997Y-97071790D01*
X50674997Y-97071791D01*
X50675005Y-97071856D01*
X50675938Y-97083693D01*
X50677327Y-97127889D01*
X50682978Y-97147339D01*
X50686987Y-97166700D01*
X50687817Y-97173266D01*
X50689526Y-97186797D01*
X50692445Y-97194168D01*
X50692445Y-97194170D01*
X50705804Y-97227912D01*
X50709649Y-97239142D01*
X50718678Y-97270221D01*
X50721982Y-97281593D01*
X50726015Y-97288412D01*
X50726017Y-97288417D01*
X50732293Y-97299028D01*
X50740988Y-97316776D01*
X50748448Y-97335617D01*
X50753110Y-97342033D01*
X50753110Y-97342034D01*
X50774436Y-97371387D01*
X50780952Y-97381307D01*
X50799141Y-97412062D01*
X50803458Y-97419362D01*
X50817779Y-97433683D01*
X50830619Y-97448716D01*
X50842528Y-97465107D01*
X50848632Y-97470157D01*
X50848637Y-97470162D01*
X50876598Y-97493293D01*
X50885379Y-97501283D01*
X51820353Y-98436258D01*
X51827887Y-98444537D01*
X51832000Y-98451018D01*
X51846552Y-98464683D01*
X51881651Y-98497643D01*
X51884493Y-98500398D01*
X51904230Y-98520135D01*
X51907427Y-98522615D01*
X51916447Y-98530318D01*
X51948679Y-98560586D01*
X51955625Y-98564405D01*
X51955628Y-98564407D01*
X51966434Y-98570348D01*
X51982953Y-98581199D01*
X51998959Y-98593614D01*
X52006228Y-98596759D01*
X52006232Y-98596762D01*
X52039537Y-98611174D01*
X52050187Y-98616391D01*
X52088940Y-98637695D01*
X52096615Y-98639666D01*
X52096616Y-98639666D01*
X52108562Y-98642733D01*
X52127273Y-98649140D01*
X52130108Y-98650367D01*
X52184680Y-98695781D01*
X52206036Y-98763489D01*
X52187396Y-98831995D01*
X52134678Y-98879548D01*
X52080061Y-98892001D01*
X51657422Y-98892001D01*
X51649865Y-98892456D01*
X51572072Y-98901869D01*
X51556520Y-98905819D01*
X51432094Y-98955083D01*
X51417275Y-98963433D01*
X51311070Y-99044047D01*
X51299047Y-99056070D01*
X51218433Y-99162275D01*
X51210083Y-99177094D01*
X51160821Y-99301516D01*
X51156868Y-99317081D01*
X51147456Y-99394862D01*
X51147000Y-99402416D01*
X51147000Y-99422885D01*
X51151475Y-99438124D01*
X51152865Y-99439329D01*
X51160548Y-99441000D01*
X52768000Y-99441000D01*
X52836121Y-99461002D01*
X52882614Y-99514658D01*
X52894000Y-99567000D01*
X52894000Y-99823000D01*
X52873998Y-99891121D01*
X52820342Y-99937614D01*
X52768000Y-99949000D01*
X51165116Y-99949000D01*
X51149877Y-99953475D01*
X51148672Y-99954865D01*
X51147001Y-99962548D01*
X51147001Y-99987578D01*
X51147456Y-99995135D01*
X51156869Y-100072928D01*
X51160819Y-100088480D01*
X51210081Y-100212901D01*
X51218438Y-100227732D01*
X51231340Y-100244730D01*
X51256593Y-100311084D01*
X51241964Y-100380557D01*
X51205041Y-100422843D01*
X51193218Y-100431433D01*
X51183301Y-100437947D01*
X51152060Y-100456422D01*
X51152055Y-100456426D01*
X51145237Y-100460458D01*
X51130913Y-100474782D01*
X51115881Y-100487621D01*
X51099493Y-100499528D01*
X51077068Y-100526635D01*
X51071312Y-100533593D01*
X51063322Y-100542373D01*
X50763347Y-100842348D01*
X50755061Y-100849888D01*
X50748582Y-100854000D01*
X50743157Y-100859777D01*
X50701957Y-100903651D01*
X50699202Y-100906493D01*
X50679465Y-100926230D01*
X50676985Y-100929427D01*
X50669282Y-100938447D01*
X50639014Y-100970679D01*
X50635195Y-100977625D01*
X50635193Y-100977628D01*
X50629252Y-100988434D01*
X50618401Y-101004953D01*
X50605986Y-101020959D01*
X50602841Y-101028228D01*
X50602838Y-101028232D01*
X50588426Y-101061537D01*
X50583209Y-101072187D01*
X50561905Y-101110940D01*
X50559934Y-101118615D01*
X50559934Y-101118616D01*
X50556867Y-101130562D01*
X50550463Y-101149266D01*
X50546755Y-101157836D01*
X50542419Y-101167855D01*
X50541180Y-101175678D01*
X50541177Y-101175688D01*
X50535501Y-101211524D01*
X50533095Y-101223144D01*
X50529409Y-101237502D01*
X50522100Y-101265970D01*
X50522100Y-101286224D01*
X50520549Y-101305934D01*
X50517380Y-101325943D01*
X50518126Y-101333835D01*
X50521541Y-101369961D01*
X50522100Y-101381819D01*
X50522100Y-101580978D01*
X50502098Y-101649099D01*
X50448442Y-101695592D01*
X50378168Y-101705696D01*
X50313588Y-101676202D01*
X50298457Y-101660613D01*
X50213415Y-101556340D01*
X50157697Y-101510246D01*
X50073329Y-101440450D01*
X50073324Y-101440447D01*
X50068580Y-101436522D01*
X50063161Y-101433592D01*
X50063158Y-101433590D01*
X49956960Y-101376170D01*
X49903231Y-101347119D01*
X49723666Y-101291534D01*
X49717541Y-101290890D01*
X49717540Y-101290890D01*
X49542852Y-101272529D01*
X49542851Y-101272529D01*
X49536724Y-101271885D01*
X49459673Y-101278897D01*
X49355665Y-101288363D01*
X49355662Y-101288364D01*
X49349526Y-101288922D01*
X49343617Y-101290661D01*
X49337557Y-101291817D01*
X49337256Y-101290237D01*
X49274078Y-101290277D01*
X49214328Y-101251931D01*
X49184794Y-101187369D01*
X49183500Y-101169358D01*
X49183499Y-100672382D01*
X49183499Y-100668588D01*
X49182758Y-100662460D01*
X49173621Y-100586954D01*
X49172649Y-100578921D01*
X49156516Y-100538172D01*
X49135500Y-100485093D01*
X49117197Y-100438864D01*
X49092388Y-100406179D01*
X49067134Y-100339827D01*
X49081762Y-100270354D01*
X49092388Y-100253820D01*
X49112000Y-100227983D01*
X49112001Y-100227982D01*
X49117197Y-100221136D01*
X49172649Y-100081079D01*
X49183500Y-99991413D01*
X49183499Y-99398588D01*
X49182855Y-99393261D01*
X49173621Y-99316954D01*
X49172649Y-99308921D01*
X49160511Y-99278262D01*
X49130605Y-99202729D01*
X49117197Y-99168864D01*
X49026122Y-99048878D01*
X48906136Y-98957803D01*
X48766079Y-98902351D01*
X48676413Y-98891500D01*
X47690651Y-98891500D01*
X46703588Y-98891501D01*
X46699831Y-98891956D01*
X46699825Y-98891956D01*
X46626182Y-98900867D01*
X46613921Y-98902351D01*
X46606398Y-98905329D01*
X46606396Y-98905330D01*
X46535243Y-98933502D01*
X46473864Y-98957803D01*
X46467024Y-98962995D01*
X46467019Y-98962998D01*
X46371025Y-99035862D01*
X46304672Y-99061116D01*
X46294845Y-99061500D01*
X44340377Y-99061500D01*
X44272256Y-99041498D01*
X44225763Y-98987842D01*
X44222395Y-98979730D01*
X44198767Y-98916703D01*
X44195615Y-98908295D01*
X44108261Y-98791739D01*
X43991705Y-98704385D01*
X43855316Y-98653255D01*
X43793134Y-98646500D01*
X41296866Y-98646500D01*
X41234684Y-98653255D01*
X41098295Y-98704385D01*
X40981739Y-98791739D01*
X40894385Y-98908295D01*
X40843255Y-99044684D01*
X40836500Y-99106866D01*
X40836500Y-102703134D01*
X40843255Y-102765316D01*
X40894385Y-102901705D01*
X40981739Y-103018261D01*
X41098295Y-103105615D01*
X41234684Y-103156745D01*
X41296866Y-103163500D01*
X43793134Y-103163500D01*
X43855316Y-103156745D01*
X43991705Y-103105615D01*
X44108261Y-103018261D01*
X44195615Y-102901705D01*
X44207518Y-102869954D01*
X44250160Y-102813190D01*
X44316721Y-102788490D01*
X44386070Y-102803698D01*
X44436188Y-102853984D01*
X44451500Y-102914184D01*
X44451500Y-103250405D01*
X44431498Y-103318526D01*
X44414595Y-103339500D01*
X43939067Y-103815028D01*
X43876755Y-103849054D01*
X43836365Y-103851196D01*
X43796533Y-103846869D01*
X43796529Y-103846869D01*
X43793134Y-103846500D01*
X41296866Y-103846500D01*
X41234684Y-103853255D01*
X41098295Y-103904385D01*
X40981739Y-103991739D01*
X40894385Y-104108295D01*
X40843255Y-104244684D01*
X40836500Y-104306866D01*
X40836500Y-107903134D01*
X40843255Y-107965316D01*
X40894385Y-108101705D01*
X40981739Y-108218261D01*
X41098295Y-108305615D01*
X41234684Y-108356745D01*
X41296866Y-108363500D01*
X43793134Y-108363500D01*
X43855316Y-108356745D01*
X43991705Y-108305615D01*
X44108261Y-108218261D01*
X44195615Y-108101705D01*
X44246745Y-107965316D01*
X44253500Y-107903134D01*
X44253500Y-106872295D01*
X46278101Y-106872295D01*
X46278438Y-106878814D01*
X46288357Y-106974406D01*
X46291249Y-106987800D01*
X46342688Y-107141984D01*
X46348861Y-107155162D01*
X46434163Y-107293007D01*
X46443199Y-107304408D01*
X46557929Y-107418939D01*
X46569340Y-107427951D01*
X46707343Y-107513016D01*
X46720524Y-107519163D01*
X46874810Y-107570338D01*
X46888186Y-107573205D01*
X46982538Y-107582872D01*
X46988954Y-107583200D01*
X47026485Y-107583200D01*
X47041724Y-107578725D01*
X47042929Y-107577335D01*
X47044600Y-107569652D01*
X47044600Y-106647315D01*
X47040125Y-106632076D01*
X47038735Y-106630871D01*
X47031052Y-106629200D01*
X46296216Y-106629200D01*
X46280977Y-106633675D01*
X46279772Y-106635065D01*
X46278101Y-106642748D01*
X46278101Y-106872295D01*
X44253500Y-106872295D01*
X44253500Y-105344594D01*
X44273502Y-105276473D01*
X44290405Y-105255499D01*
X45074605Y-104471299D01*
X45136917Y-104437273D01*
X45207732Y-104442338D01*
X45264568Y-104484885D01*
X45289379Y-104551405D01*
X45289700Y-104560394D01*
X45289700Y-104627007D01*
X45287468Y-104650616D01*
X45285925Y-104658706D01*
X45286423Y-104666617D01*
X45289451Y-104714751D01*
X45289700Y-104722662D01*
X45289700Y-104738656D01*
X45291706Y-104754530D01*
X45292448Y-104762390D01*
X45294176Y-104789849D01*
X45295284Y-104807460D01*
X45295975Y-104818450D01*
X45298425Y-104825991D01*
X45298521Y-104826287D01*
X45303694Y-104849431D01*
X45303732Y-104849735D01*
X45303733Y-104849740D01*
X45304726Y-104857597D01*
X45307642Y-104864962D01*
X45307643Y-104864966D01*
X45325399Y-104909811D01*
X45328071Y-104917230D01*
X45345436Y-104970675D01*
X45349686Y-104977371D01*
X45349686Y-104977372D01*
X45349850Y-104977631D01*
X45360615Y-104998758D01*
X45360729Y-104999046D01*
X45360732Y-104999051D01*
X45363648Y-105006417D01*
X45368304Y-105012825D01*
X45368307Y-105012831D01*
X45396658Y-105051852D01*
X45401101Y-105058389D01*
X45431200Y-105105818D01*
X45436978Y-105111244D01*
X45436979Y-105111245D01*
X45437207Y-105111459D01*
X45452888Y-105129246D01*
X45457728Y-105135907D01*
X45463837Y-105140961D01*
X45463838Y-105140962D01*
X45500996Y-105171703D01*
X45506930Y-105176934D01*
X45542098Y-105209958D01*
X45542101Y-105209960D01*
X45547879Y-105215386D01*
X45555103Y-105219358D01*
X45574706Y-105232681D01*
X45574946Y-105232880D01*
X45574953Y-105232884D01*
X45581056Y-105237933D01*
X45607561Y-105250405D01*
X45631876Y-105261847D01*
X45638908Y-105265429D01*
X45688140Y-105292495D01*
X45695815Y-105294465D01*
X45695821Y-105294468D01*
X45696119Y-105294544D01*
X45718428Y-105302576D01*
X45718703Y-105302706D01*
X45718711Y-105302709D01*
X45725882Y-105306083D01*
X45781049Y-105316606D01*
X45788758Y-105318329D01*
X45808792Y-105323473D01*
X45835493Y-105330329D01*
X45835494Y-105330329D01*
X45843170Y-105332300D01*
X45851407Y-105332300D01*
X45875016Y-105334532D01*
X45875319Y-105334590D01*
X45875323Y-105334590D01*
X45883106Y-105336075D01*
X45939151Y-105332549D01*
X45947062Y-105332300D01*
X46285421Y-105332300D01*
X46353542Y-105352302D01*
X46400035Y-105405958D01*
X46410139Y-105476232D01*
X46392681Y-105524415D01*
X46348286Y-105596438D01*
X46342137Y-105609624D01*
X46290962Y-105763910D01*
X46288095Y-105777286D01*
X46278428Y-105871638D01*
X46278100Y-105878055D01*
X46278100Y-106103085D01*
X46282575Y-106118324D01*
X46283965Y-106119529D01*
X46291648Y-106121200D01*
X47426600Y-106121200D01*
X47494721Y-106141202D01*
X47541214Y-106194858D01*
X47552600Y-106247200D01*
X47552600Y-107565084D01*
X47557075Y-107580323D01*
X47558465Y-107581528D01*
X47566148Y-107583199D01*
X47608195Y-107583199D01*
X47614714Y-107582862D01*
X47710306Y-107572943D01*
X47723700Y-107570051D01*
X47877884Y-107518612D01*
X47891062Y-107512439D01*
X48028907Y-107427137D01*
X48040308Y-107418101D01*
X48121530Y-107336738D01*
X48183813Y-107302659D01*
X48254633Y-107307662D01*
X48299720Y-107336583D01*
X48382612Y-107419330D01*
X48382617Y-107419334D01*
X48387797Y-107424505D01*
X48394027Y-107428345D01*
X48394028Y-107428346D01*
X48531388Y-107513016D01*
X48538362Y-107517315D01*
X48608263Y-107540500D01*
X48699711Y-107570832D01*
X48699713Y-107570832D01*
X48706239Y-107572997D01*
X48713075Y-107573697D01*
X48713078Y-107573698D01*
X48755888Y-107578084D01*
X48810700Y-107583700D01*
X49436500Y-107583700D01*
X49439746Y-107583363D01*
X49439750Y-107583363D01*
X49535408Y-107573438D01*
X49535412Y-107573437D01*
X49542266Y-107572726D01*
X49548802Y-107570545D01*
X49548804Y-107570545D01*
X49701159Y-107519715D01*
X49710046Y-107516750D01*
X49860448Y-107423678D01*
X49985405Y-107298503D01*
X49989684Y-107291562D01*
X50021561Y-107239849D01*
X50074333Y-107192356D01*
X50144405Y-107180934D01*
X50209529Y-107209208D01*
X50235964Y-107239662D01*
X50273022Y-107299548D01*
X50398197Y-107424505D01*
X50404427Y-107428345D01*
X50404428Y-107428346D01*
X50541788Y-107513016D01*
X50548762Y-107517315D01*
X50618663Y-107540500D01*
X50710111Y-107570832D01*
X50710113Y-107570832D01*
X50716639Y-107572997D01*
X50723475Y-107573697D01*
X50723478Y-107573698D01*
X50766288Y-107578084D01*
X50821100Y-107583700D01*
X51446900Y-107583700D01*
X51450146Y-107583363D01*
X51450150Y-107583363D01*
X51545808Y-107573438D01*
X51545812Y-107573437D01*
X51552666Y-107572726D01*
X51559202Y-107570545D01*
X51559204Y-107570545D01*
X51711559Y-107519715D01*
X51720446Y-107516750D01*
X51870848Y-107423678D01*
X51957637Y-107336737D01*
X52019921Y-107302658D01*
X52090741Y-107307661D01*
X52135829Y-107336582D01*
X52218329Y-107418939D01*
X52229740Y-107427951D01*
X52367743Y-107513016D01*
X52380924Y-107519163D01*
X52535210Y-107570338D01*
X52548586Y-107573205D01*
X52642938Y-107582872D01*
X52649354Y-107583200D01*
X52686885Y-107583200D01*
X52702124Y-107578725D01*
X52703329Y-107577335D01*
X52705000Y-107569652D01*
X52705000Y-107565084D01*
X53213000Y-107565084D01*
X53217475Y-107580323D01*
X53218865Y-107581528D01*
X53226548Y-107583199D01*
X53268595Y-107583199D01*
X53275114Y-107582862D01*
X53370706Y-107572943D01*
X53384100Y-107570051D01*
X53538284Y-107518612D01*
X53551462Y-107512439D01*
X53689307Y-107427137D01*
X53700708Y-107418101D01*
X53815239Y-107303371D01*
X53824251Y-107291960D01*
X53909316Y-107153957D01*
X53915463Y-107140776D01*
X53966638Y-106986490D01*
X53969505Y-106973114D01*
X53979172Y-106878762D01*
X53979500Y-106872345D01*
X53979500Y-106647315D01*
X53975025Y-106632076D01*
X53973635Y-106630871D01*
X53965952Y-106629200D01*
X53231115Y-106629200D01*
X53215876Y-106633675D01*
X53214671Y-106635065D01*
X53213000Y-106642748D01*
X53213000Y-107565084D01*
X52705000Y-107565084D01*
X52705000Y-106103085D01*
X53213000Y-106103085D01*
X53217475Y-106118324D01*
X53218865Y-106119529D01*
X53226548Y-106121200D01*
X53961384Y-106121200D01*
X53976623Y-106116725D01*
X53977828Y-106115335D01*
X53979499Y-106107652D01*
X53979499Y-105878105D01*
X53979162Y-105871586D01*
X53969243Y-105775994D01*
X53966351Y-105762600D01*
X53914912Y-105608416D01*
X53908739Y-105595238D01*
X53823437Y-105457393D01*
X53814401Y-105445992D01*
X53699671Y-105331461D01*
X53688260Y-105322449D01*
X53550257Y-105237384D01*
X53537076Y-105231237D01*
X53382790Y-105180062D01*
X53369414Y-105177195D01*
X53275062Y-105167528D01*
X53268645Y-105167200D01*
X53231115Y-105167200D01*
X53215876Y-105171675D01*
X53214671Y-105173065D01*
X53213000Y-105180748D01*
X53213000Y-106103085D01*
X52705000Y-106103085D01*
X52705000Y-105185316D01*
X52700525Y-105170077D01*
X52699135Y-105168872D01*
X52691452Y-105167201D01*
X52649405Y-105167201D01*
X52642886Y-105167538D01*
X52547294Y-105177457D01*
X52533900Y-105180349D01*
X52379716Y-105231788D01*
X52366538Y-105237961D01*
X52228693Y-105323263D01*
X52217292Y-105332299D01*
X52136070Y-105413662D01*
X52073787Y-105447741D01*
X52002967Y-105442738D01*
X51957880Y-105413817D01*
X51874988Y-105331070D01*
X51874983Y-105331066D01*
X51869803Y-105325895D01*
X51863569Y-105322052D01*
X51827383Y-105299746D01*
X51779890Y-105246974D01*
X51767500Y-105192487D01*
X51767500Y-104434500D01*
X51787502Y-104366379D01*
X51841158Y-104319886D01*
X51893500Y-104308500D01*
X53572074Y-104308499D01*
X53626412Y-104308499D01*
X53630169Y-104308044D01*
X53630175Y-104308044D01*
X53708046Y-104298621D01*
X53716079Y-104297649D01*
X53723602Y-104294671D01*
X53723604Y-104294670D01*
X53833596Y-104251121D01*
X53856136Y-104242197D01*
X53862978Y-104237004D01*
X53862981Y-104237002D01*
X53961058Y-104162557D01*
X54033278Y-104136981D01*
X54061216Y-104136103D01*
X54066970Y-104135922D01*
X54074889Y-104135673D01*
X54094343Y-104130021D01*
X54113700Y-104126013D01*
X54125930Y-104124468D01*
X54125931Y-104124468D01*
X54133797Y-104123474D01*
X54141168Y-104120555D01*
X54141170Y-104120555D01*
X54174912Y-104107196D01*
X54186142Y-104103351D01*
X54220983Y-104093229D01*
X54220984Y-104093229D01*
X54228593Y-104091018D01*
X54235412Y-104086985D01*
X54235417Y-104086983D01*
X54246028Y-104080707D01*
X54263776Y-104072012D01*
X54282617Y-104064552D01*
X54318387Y-104038564D01*
X54328307Y-104032048D01*
X54359535Y-104013580D01*
X54359538Y-104013578D01*
X54366362Y-104009542D01*
X54380683Y-103995221D01*
X54395717Y-103982380D01*
X54405694Y-103975131D01*
X54412107Y-103970472D01*
X54417157Y-103964368D01*
X54417162Y-103964363D01*
X54440293Y-103936402D01*
X54448283Y-103927621D01*
X55031405Y-103344500D01*
X55093717Y-103310475D01*
X55164533Y-103315540D01*
X55221368Y-103358087D01*
X55246179Y-103424607D01*
X55246500Y-103433596D01*
X55246500Y-106924205D01*
X55226498Y-106992326D01*
X55209595Y-107013300D01*
X54181300Y-108041595D01*
X54118988Y-108075621D01*
X54092205Y-108078500D01*
X50116763Y-108078500D01*
X50105579Y-108077973D01*
X50098091Y-108076299D01*
X50090168Y-108076548D01*
X50030033Y-108078438D01*
X50026075Y-108078500D01*
X49998144Y-108078500D01*
X49994229Y-108078995D01*
X49994225Y-108078995D01*
X49994167Y-108079003D01*
X49994138Y-108079006D01*
X49982296Y-108079939D01*
X49938110Y-108081327D01*
X49927033Y-108084545D01*
X49918658Y-108086978D01*
X49899306Y-108090986D01*
X49892706Y-108091820D01*
X49879203Y-108093526D01*
X49871834Y-108096443D01*
X49871832Y-108096444D01*
X49838097Y-108109800D01*
X49826869Y-108113645D01*
X49784407Y-108125982D01*
X49777585Y-108130016D01*
X49777579Y-108130019D01*
X49766968Y-108136294D01*
X49749218Y-108144990D01*
X49737756Y-108149528D01*
X49737751Y-108149531D01*
X49730383Y-108152448D01*
X49723968Y-108157109D01*
X49694625Y-108178427D01*
X49684707Y-108184943D01*
X49666019Y-108195995D01*
X49646637Y-108207458D01*
X49632313Y-108221782D01*
X49617281Y-108234621D01*
X49600893Y-108246528D01*
X49577528Y-108274772D01*
X49572712Y-108280593D01*
X49564722Y-108289373D01*
X48082345Y-109771750D01*
X48020033Y-109805776D01*
X47971154Y-109806702D01*
X47758373Y-109768800D01*
X47758367Y-109768799D01*
X47753284Y-109767894D01*
X47679452Y-109766992D01*
X47535081Y-109765228D01*
X47535079Y-109765228D01*
X47529911Y-109765165D01*
X47309091Y-109798955D01*
X47096756Y-109868357D01*
X46898607Y-109971507D01*
X46894474Y-109974610D01*
X46894471Y-109974612D01*
X46724100Y-110102530D01*
X46719965Y-110105635D01*
X46647648Y-110181311D01*
X46639283Y-110190064D01*
X46577759Y-110225494D01*
X46506846Y-110222037D01*
X46449060Y-110180791D01*
X46430207Y-110147243D01*
X46388767Y-110036703D01*
X46385615Y-110028295D01*
X46298261Y-109911739D01*
X46181705Y-109824385D01*
X46045316Y-109773255D01*
X45983134Y-109766500D01*
X44186866Y-109766500D01*
X44124684Y-109773255D01*
X43988295Y-109824385D01*
X43871739Y-109911739D01*
X43784385Y-110028295D01*
X43733255Y-110164684D01*
X43729256Y-110201500D01*
X43727025Y-110222037D01*
X43726500Y-110226866D01*
X43726500Y-112023134D01*
X43733255Y-112085316D01*
X43784385Y-112221705D01*
X43871739Y-112338261D01*
X43988295Y-112425615D01*
X44124684Y-112476745D01*
X44186866Y-112483500D01*
X45983134Y-112483500D01*
X46045316Y-112476745D01*
X46181705Y-112425615D01*
X46298261Y-112338261D01*
X46385615Y-112221705D01*
X46407799Y-112162529D01*
X46429598Y-112104382D01*
X46472240Y-112047618D01*
X46538802Y-112022918D01*
X46608150Y-112038126D01*
X46642817Y-112066114D01*
X46671250Y-112098938D01*
X46843126Y-112241632D01*
X47036000Y-112354338D01*
X47244692Y-112434030D01*
X47249760Y-112435061D01*
X47249763Y-112435062D01*
X47344862Y-112454410D01*
X47463597Y-112478567D01*
X47468772Y-112478757D01*
X47468774Y-112478757D01*
X47681673Y-112486564D01*
X47681677Y-112486564D01*
X47686837Y-112486753D01*
X47691957Y-112486097D01*
X47691959Y-112486097D01*
X47903288Y-112459025D01*
X47903289Y-112459025D01*
X47908416Y-112458368D01*
X47913366Y-112456883D01*
X48117429Y-112395661D01*
X48117434Y-112395659D01*
X48122384Y-112394174D01*
X48322994Y-112295896D01*
X48504860Y-112166173D01*
X48663096Y-112008489D01*
X48793453Y-111827077D01*
X48794776Y-111828028D01*
X48841645Y-111784857D01*
X48911580Y-111772625D01*
X48977026Y-111800144D01*
X49004875Y-111831994D01*
X49064987Y-111930088D01*
X49211250Y-112098938D01*
X49383126Y-112241632D01*
X49576000Y-112354338D01*
X49784692Y-112434030D01*
X49789760Y-112435061D01*
X49789763Y-112435062D01*
X49884862Y-112454410D01*
X50003597Y-112478567D01*
X50008772Y-112478757D01*
X50008774Y-112478757D01*
X50221673Y-112486564D01*
X50221677Y-112486564D01*
X50226837Y-112486753D01*
X50231957Y-112486097D01*
X50231959Y-112486097D01*
X50443288Y-112459025D01*
X50443289Y-112459025D01*
X50448416Y-112458368D01*
X50453366Y-112456883D01*
X50657429Y-112395661D01*
X50657434Y-112395659D01*
X50662384Y-112394174D01*
X50862994Y-112295896D01*
X51044860Y-112166173D01*
X51203096Y-112008489D01*
X51333453Y-111827077D01*
X51334776Y-111828028D01*
X51381645Y-111784857D01*
X51451580Y-111772625D01*
X51517026Y-111800144D01*
X51544875Y-111831994D01*
X51604987Y-111930088D01*
X51751250Y-112098938D01*
X51923126Y-112241632D01*
X52116000Y-112354338D01*
X52324692Y-112434030D01*
X52329760Y-112435061D01*
X52329763Y-112435062D01*
X52424862Y-112454410D01*
X52543597Y-112478567D01*
X52548772Y-112478757D01*
X52548774Y-112478757D01*
X52761673Y-112486564D01*
X52761677Y-112486564D01*
X52766837Y-112486753D01*
X52771957Y-112486097D01*
X52771959Y-112486097D01*
X52983288Y-112459025D01*
X52983289Y-112459025D01*
X52988416Y-112458368D01*
X52993366Y-112456883D01*
X53197429Y-112395661D01*
X53197434Y-112395659D01*
X53202384Y-112394174D01*
X53402994Y-112295896D01*
X53584860Y-112166173D01*
X53743096Y-112008489D01*
X53873453Y-111827077D01*
X53874776Y-111828028D01*
X53921645Y-111784857D01*
X53991580Y-111772625D01*
X54057026Y-111800144D01*
X54084875Y-111831994D01*
X54144987Y-111930088D01*
X54291250Y-112098938D01*
X54463126Y-112241632D01*
X54656000Y-112354338D01*
X54864692Y-112434030D01*
X54869760Y-112435061D01*
X54869763Y-112435062D01*
X54964862Y-112454410D01*
X55083597Y-112478567D01*
X55088772Y-112478757D01*
X55088774Y-112478757D01*
X55301673Y-112486564D01*
X55301677Y-112486564D01*
X55306837Y-112486753D01*
X55311957Y-112486097D01*
X55311959Y-112486097D01*
X55523288Y-112459025D01*
X55523289Y-112459025D01*
X55528416Y-112458368D01*
X55533366Y-112456883D01*
X55737429Y-112395661D01*
X55737434Y-112395659D01*
X55742384Y-112394174D01*
X55942994Y-112295896D01*
X56124860Y-112166173D01*
X56283096Y-112008489D01*
X56413453Y-111827077D01*
X56414776Y-111828028D01*
X56461645Y-111784857D01*
X56531580Y-111772625D01*
X56597026Y-111800144D01*
X56624875Y-111831994D01*
X56684987Y-111930088D01*
X56831250Y-112098938D01*
X57003126Y-112241632D01*
X57196000Y-112354338D01*
X57404692Y-112434030D01*
X57409760Y-112435061D01*
X57409763Y-112435062D01*
X57504862Y-112454410D01*
X57623597Y-112478567D01*
X57628772Y-112478757D01*
X57628774Y-112478757D01*
X57841673Y-112486564D01*
X57841677Y-112486564D01*
X57846837Y-112486753D01*
X57851957Y-112486097D01*
X57851959Y-112486097D01*
X58063288Y-112459025D01*
X58063289Y-112459025D01*
X58068416Y-112458368D01*
X58073366Y-112456883D01*
X58277429Y-112395661D01*
X58277434Y-112395659D01*
X58282384Y-112394174D01*
X58482994Y-112295896D01*
X58664860Y-112166173D01*
X58823096Y-112008489D01*
X58953453Y-111827077D01*
X58954776Y-111828028D01*
X59001645Y-111784857D01*
X59071580Y-111772625D01*
X59137026Y-111800144D01*
X59164875Y-111831994D01*
X59224987Y-111930088D01*
X59371250Y-112098938D01*
X59543126Y-112241632D01*
X59736000Y-112354338D01*
X59944692Y-112434030D01*
X59949760Y-112435061D01*
X59949763Y-112435062D01*
X60044862Y-112454410D01*
X60163597Y-112478567D01*
X60168772Y-112478757D01*
X60168774Y-112478757D01*
X60381673Y-112486564D01*
X60381677Y-112486564D01*
X60386837Y-112486753D01*
X60391957Y-112486097D01*
X60391959Y-112486097D01*
X60603288Y-112459025D01*
X60603289Y-112459025D01*
X60608416Y-112458368D01*
X60613366Y-112456883D01*
X60817429Y-112395661D01*
X60817434Y-112395659D01*
X60822384Y-112394174D01*
X61022994Y-112295896D01*
X61204860Y-112166173D01*
X61363096Y-112008489D01*
X61493453Y-111827077D01*
X61494776Y-111828028D01*
X61541645Y-111784857D01*
X61611580Y-111772625D01*
X61677026Y-111800144D01*
X61704875Y-111831994D01*
X61764987Y-111930088D01*
X61911250Y-112098938D01*
X62083126Y-112241632D01*
X62276000Y-112354338D01*
X62484692Y-112434030D01*
X62489760Y-112435061D01*
X62489763Y-112435062D01*
X62584862Y-112454410D01*
X62703597Y-112478567D01*
X62708772Y-112478757D01*
X62708774Y-112478757D01*
X62921673Y-112486564D01*
X62921677Y-112486564D01*
X62926837Y-112486753D01*
X62931957Y-112486097D01*
X62931959Y-112486097D01*
X63143288Y-112459025D01*
X63143289Y-112459025D01*
X63148416Y-112458368D01*
X63153366Y-112456883D01*
X63357429Y-112395661D01*
X63357434Y-112395659D01*
X63362384Y-112394174D01*
X63562994Y-112295896D01*
X63744860Y-112166173D01*
X63903096Y-112008489D01*
X64033453Y-111827077D01*
X64034640Y-111827930D01*
X64081960Y-111784362D01*
X64151897Y-111772145D01*
X64217338Y-111799678D01*
X64245166Y-111831511D01*
X64302694Y-111925388D01*
X64308777Y-111933699D01*
X64448213Y-112094667D01*
X64455580Y-112101883D01*
X64619434Y-112237916D01*
X64627881Y-112243831D01*
X64811756Y-112351279D01*
X64821042Y-112355729D01*
X65020001Y-112431703D01*
X65029899Y-112434579D01*
X65133250Y-112455606D01*
X65147299Y-112454410D01*
X65151000Y-112444065D01*
X65151000Y-112443517D01*
X65659000Y-112443517D01*
X65663064Y-112457359D01*
X65676478Y-112459393D01*
X65683184Y-112458534D01*
X65693262Y-112456392D01*
X65897255Y-112395191D01*
X65906842Y-112391433D01*
X66098095Y-112297739D01*
X66106945Y-112292464D01*
X66280328Y-112168792D01*
X66288200Y-112162139D01*
X66427690Y-112023134D01*
X69136500Y-112023134D01*
X69143255Y-112085316D01*
X69194385Y-112221705D01*
X69281739Y-112338261D01*
X69398295Y-112425615D01*
X69534684Y-112476745D01*
X69596866Y-112483500D01*
X71393134Y-112483500D01*
X71455316Y-112476745D01*
X71591705Y-112425615D01*
X71708261Y-112338261D01*
X71795615Y-112221705D01*
X71817945Y-112162139D01*
X71839798Y-112103848D01*
X71882440Y-112047084D01*
X71949001Y-112022384D01*
X72018350Y-112037592D01*
X72053017Y-112065580D01*
X72078218Y-112094673D01*
X72085580Y-112101883D01*
X72249434Y-112237916D01*
X72257881Y-112243831D01*
X72441756Y-112351279D01*
X72451042Y-112355729D01*
X72650001Y-112431703D01*
X72659899Y-112434579D01*
X72763250Y-112455606D01*
X72777299Y-112454410D01*
X72781000Y-112444065D01*
X72781000Y-112443517D01*
X73289000Y-112443517D01*
X73293064Y-112457359D01*
X73306478Y-112459393D01*
X73313184Y-112458534D01*
X73323262Y-112456392D01*
X73527255Y-112395191D01*
X73536842Y-112391433D01*
X73728095Y-112297739D01*
X73736945Y-112292464D01*
X73910328Y-112168792D01*
X73918200Y-112162139D01*
X74069052Y-112011812D01*
X74075730Y-112003965D01*
X74203022Y-111826819D01*
X74204279Y-111827722D01*
X74251373Y-111784362D01*
X74321311Y-111772145D01*
X74386751Y-111799678D01*
X74414579Y-111831511D01*
X74474987Y-111930088D01*
X74621250Y-112098938D01*
X74793126Y-112241632D01*
X74986000Y-112354338D01*
X75194692Y-112434030D01*
X75199760Y-112435061D01*
X75199763Y-112435062D01*
X75294862Y-112454410D01*
X75413597Y-112478567D01*
X75418772Y-112478757D01*
X75418774Y-112478757D01*
X75631673Y-112486564D01*
X75631677Y-112486564D01*
X75636837Y-112486753D01*
X75641957Y-112486097D01*
X75641959Y-112486097D01*
X75853288Y-112459025D01*
X75853289Y-112459025D01*
X75858416Y-112458368D01*
X75863366Y-112456883D01*
X76067429Y-112395661D01*
X76067434Y-112395659D01*
X76072384Y-112394174D01*
X76272994Y-112295896D01*
X76454860Y-112166173D01*
X76613096Y-112008489D01*
X76743453Y-111827077D01*
X76744776Y-111828028D01*
X76791645Y-111784857D01*
X76861580Y-111772625D01*
X76927026Y-111800144D01*
X76954875Y-111831994D01*
X77014987Y-111930088D01*
X77161250Y-112098938D01*
X77333126Y-112241632D01*
X77526000Y-112354338D01*
X77734692Y-112434030D01*
X77739760Y-112435061D01*
X77739763Y-112435062D01*
X77834862Y-112454410D01*
X77953597Y-112478567D01*
X77958772Y-112478757D01*
X77958774Y-112478757D01*
X78171673Y-112486564D01*
X78171677Y-112486564D01*
X78176837Y-112486753D01*
X78181957Y-112486097D01*
X78181959Y-112486097D01*
X78393288Y-112459025D01*
X78393289Y-112459025D01*
X78398416Y-112458368D01*
X78403366Y-112456883D01*
X78607429Y-112395661D01*
X78607434Y-112395659D01*
X78612384Y-112394174D01*
X78812994Y-112295896D01*
X78994860Y-112166173D01*
X79153096Y-112008489D01*
X79283453Y-111827077D01*
X79289636Y-111814568D01*
X79380136Y-111631453D01*
X79380137Y-111631451D01*
X79382430Y-111626811D01*
X79447370Y-111413069D01*
X79476529Y-111191590D01*
X79478156Y-111125000D01*
X79459852Y-110902361D01*
X79405431Y-110685702D01*
X79316354Y-110480840D01*
X79231354Y-110349450D01*
X79197822Y-110297617D01*
X79197820Y-110297614D01*
X79195014Y-110293277D01*
X79044670Y-110128051D01*
X79040619Y-110124852D01*
X79040615Y-110124848D01*
X78984461Y-110080500D01*
X80247988Y-110080500D01*
X80335328Y-110281368D01*
X80337291Y-110286147D01*
X80359831Y-110344407D01*
X80361596Y-110349262D01*
X80368251Y-110368809D01*
X80369816Y-110373736D01*
X80387519Y-110433689D01*
X80388881Y-110438675D01*
X80443302Y-110655334D01*
X80444458Y-110660373D01*
X80457187Y-110721574D01*
X80458136Y-110726655D01*
X80461508Y-110747027D01*
X80462246Y-110752139D01*
X80469913Y-110814137D01*
X80470442Y-110819277D01*
X80488746Y-111041916D01*
X80488977Y-111045263D01*
X80491223Y-111085761D01*
X80491364Y-111089110D01*
X80491750Y-111102512D01*
X80491802Y-111105863D01*
X80491891Y-111146413D01*
X80491853Y-111149768D01*
X80490226Y-111216358D01*
X80490100Y-111219707D01*
X80488032Y-111260194D01*
X80487816Y-111263539D01*
X80486776Y-111276908D01*
X80486472Y-111280250D01*
X80482248Y-111320614D01*
X80481854Y-111323947D01*
X80452695Y-111545426D01*
X80451915Y-111550536D01*
X80442197Y-111606500D01*
X81126500Y-111606500D01*
X82140500Y-111606500D01*
X82779600Y-111606500D01*
X82779600Y-110080500D01*
X82140500Y-110080500D01*
X82140500Y-111606500D01*
X81126500Y-111606500D01*
X81126500Y-110080500D01*
X80247988Y-110080500D01*
X78984461Y-110080500D01*
X78873414Y-109992800D01*
X78873410Y-109992798D01*
X78869359Y-109989598D01*
X78833028Y-109969542D01*
X78791526Y-109946632D01*
X78673789Y-109881638D01*
X78668920Y-109879914D01*
X78668916Y-109879912D01*
X78468087Y-109808795D01*
X78468083Y-109808794D01*
X78463212Y-109807069D01*
X78458119Y-109806162D01*
X78458116Y-109806161D01*
X78248373Y-109768800D01*
X78248367Y-109768799D01*
X78243284Y-109767894D01*
X78169452Y-109766992D01*
X78025081Y-109765228D01*
X78025079Y-109765228D01*
X78019911Y-109765165D01*
X77799091Y-109798955D01*
X77586756Y-109868357D01*
X77388607Y-109971507D01*
X77384474Y-109974610D01*
X77384471Y-109974612D01*
X77214100Y-110102530D01*
X77209965Y-110105635D01*
X77206393Y-110109373D01*
X77098729Y-110222037D01*
X77055629Y-110267138D01*
X76948201Y-110424621D01*
X76893293Y-110469621D01*
X76822768Y-110477792D01*
X76759021Y-110446538D01*
X76738324Y-110422054D01*
X76657822Y-110297617D01*
X76657820Y-110297614D01*
X76655014Y-110293277D01*
X76504670Y-110128051D01*
X76500619Y-110124852D01*
X76500615Y-110124848D01*
X76333414Y-109992800D01*
X76333410Y-109992798D01*
X76329359Y-109989598D01*
X76293028Y-109969542D01*
X76251526Y-109946632D01*
X76133789Y-109881638D01*
X76128920Y-109879914D01*
X76128916Y-109879912D01*
X75928087Y-109808795D01*
X75928083Y-109808794D01*
X75923212Y-109807069D01*
X75918119Y-109806162D01*
X75918116Y-109806161D01*
X75708373Y-109768800D01*
X75708367Y-109768799D01*
X75703284Y-109767894D01*
X75629452Y-109766992D01*
X75485081Y-109765228D01*
X75485079Y-109765228D01*
X75479911Y-109765165D01*
X75259091Y-109798955D01*
X75046756Y-109868357D01*
X74848607Y-109971507D01*
X74844474Y-109974610D01*
X74844471Y-109974612D01*
X74674100Y-110102530D01*
X74669965Y-110105635D01*
X74666393Y-110109373D01*
X74558729Y-110222037D01*
X74515629Y-110267138D01*
X74408204Y-110424618D01*
X74407898Y-110425066D01*
X74352987Y-110470069D01*
X74282462Y-110478240D01*
X74218715Y-110446986D01*
X74198018Y-110422502D01*
X74117426Y-110297926D01*
X74111136Y-110289757D01*
X73967806Y-110132240D01*
X73960273Y-110125215D01*
X73793139Y-109993222D01*
X73784552Y-109987517D01*
X73598117Y-109884599D01*
X73588705Y-109880369D01*
X73387959Y-109809280D01*
X73377988Y-109806646D01*
X73306837Y-109793972D01*
X73293540Y-109795432D01*
X73289000Y-109809989D01*
X73289000Y-112443517D01*
X72781000Y-112443517D01*
X72781000Y-109808102D01*
X72777082Y-109794758D01*
X72762806Y-109792771D01*
X72724324Y-109798660D01*
X72714288Y-109801051D01*
X72511868Y-109867212D01*
X72502359Y-109871209D01*
X72313463Y-109969542D01*
X72304738Y-109975036D01*
X72134433Y-110102905D01*
X72126726Y-110109748D01*
X72049478Y-110190584D01*
X71987954Y-110226014D01*
X71917042Y-110222557D01*
X71859255Y-110181311D01*
X71840402Y-110147763D01*
X71798767Y-110036703D01*
X71795615Y-110028295D01*
X71708261Y-109911739D01*
X71591705Y-109824385D01*
X71455316Y-109773255D01*
X71393134Y-109766500D01*
X69596866Y-109766500D01*
X69534684Y-109773255D01*
X69398295Y-109824385D01*
X69281739Y-109911739D01*
X69194385Y-110028295D01*
X69143255Y-110164684D01*
X69139256Y-110201500D01*
X69137025Y-110222037D01*
X69136500Y-110226866D01*
X69136500Y-112023134D01*
X66427690Y-112023134D01*
X66439052Y-112011812D01*
X66445730Y-112003965D01*
X66570003Y-111831020D01*
X66575313Y-111822183D01*
X66669670Y-111631267D01*
X66673469Y-111621672D01*
X66735377Y-111417910D01*
X66737555Y-111407837D01*
X66738986Y-111396962D01*
X66736775Y-111382778D01*
X66723617Y-111379000D01*
X65677115Y-111379000D01*
X65661876Y-111383475D01*
X65660671Y-111384865D01*
X65659000Y-111392548D01*
X65659000Y-112443517D01*
X65151000Y-112443517D01*
X65151000Y-110852885D01*
X65659000Y-110852885D01*
X65663475Y-110868124D01*
X65664865Y-110869329D01*
X65672548Y-110871000D01*
X66723344Y-110871000D01*
X66736875Y-110867027D01*
X66738180Y-110857947D01*
X66696214Y-110690875D01*
X66692894Y-110681124D01*
X66607972Y-110485814D01*
X66603105Y-110476739D01*
X66487426Y-110297926D01*
X66481136Y-110289757D01*
X66337806Y-110132240D01*
X66330273Y-110125215D01*
X66273653Y-110080500D01*
X67537443Y-110080500D01*
X67624855Y-110281534D01*
X67626817Y-110286313D01*
X67649364Y-110344592D01*
X67651130Y-110349450D01*
X67657784Y-110368996D01*
X67659348Y-110373920D01*
X67677043Y-110433848D01*
X67678405Y-110438833D01*
X67724909Y-110623970D01*
X67725661Y-110627136D01*
X67734255Y-110665519D01*
X67734924Y-110668700D01*
X67737438Y-110681464D01*
X67739771Y-110702558D01*
X67746379Y-110958258D01*
X67745138Y-110979445D01*
X67735034Y-111049719D01*
X67732940Y-111060764D01*
X67715526Y-111134455D01*
X67726547Y-111164547D01*
X67732727Y-111188462D01*
X67743667Y-111258610D01*
X67745163Y-111276525D01*
X67747746Y-111493398D01*
X67746677Y-111511344D01*
X67742206Y-111545307D01*
X67741427Y-111550417D01*
X67731689Y-111606500D01*
X68122500Y-111606500D01*
X68122500Y-110226866D01*
X68122546Y-110223458D01*
X68123661Y-110182249D01*
X68123799Y-110178843D01*
X68124536Y-110165235D01*
X68124767Y-110161833D01*
X68128109Y-110120748D01*
X68128431Y-110117356D01*
X68132435Y-110080500D01*
X67537443Y-110080500D01*
X66273653Y-110080500D01*
X66163139Y-109993222D01*
X66154552Y-109987517D01*
X65968117Y-109884599D01*
X65958705Y-109880369D01*
X65757959Y-109809280D01*
X65747988Y-109806646D01*
X65676837Y-109793972D01*
X65663540Y-109795432D01*
X65659000Y-109809989D01*
X65659000Y-110852885D01*
X65151000Y-110852885D01*
X65151000Y-109808102D01*
X65147082Y-109794758D01*
X65132806Y-109792771D01*
X65094324Y-109798660D01*
X65084288Y-109801051D01*
X64881868Y-109867212D01*
X64872359Y-109871209D01*
X64683463Y-109969542D01*
X64674738Y-109975036D01*
X64504433Y-110102905D01*
X64496726Y-110109748D01*
X64349590Y-110263717D01*
X64343109Y-110271722D01*
X64238498Y-110425074D01*
X64183587Y-110470076D01*
X64113062Y-110478247D01*
X64049315Y-110446993D01*
X64028618Y-110422509D01*
X63947822Y-110297617D01*
X63947820Y-110297614D01*
X63945014Y-110293277D01*
X63794670Y-110128051D01*
X63790619Y-110124852D01*
X63790615Y-110124848D01*
X63623414Y-109992800D01*
X63623410Y-109992798D01*
X63619359Y-109989598D01*
X63583028Y-109969542D01*
X63541526Y-109946632D01*
X63423789Y-109881638D01*
X63418920Y-109879914D01*
X63418916Y-109879912D01*
X63218087Y-109808795D01*
X63218083Y-109808794D01*
X63213212Y-109807069D01*
X63208119Y-109806162D01*
X63208116Y-109806161D01*
X62998373Y-109768800D01*
X62998367Y-109768799D01*
X62993284Y-109767894D01*
X62919452Y-109766992D01*
X62775081Y-109765228D01*
X62775079Y-109765228D01*
X62769911Y-109765165D01*
X62549091Y-109798955D01*
X62336756Y-109868357D01*
X62138607Y-109971507D01*
X62134474Y-109974610D01*
X62134471Y-109974612D01*
X61964100Y-110102530D01*
X61959965Y-110105635D01*
X61956393Y-110109373D01*
X61848729Y-110222037D01*
X61805629Y-110267138D01*
X61698201Y-110424621D01*
X61643293Y-110469621D01*
X61572768Y-110477792D01*
X61509021Y-110446538D01*
X61488324Y-110422054D01*
X61407822Y-110297617D01*
X61407820Y-110297614D01*
X61405014Y-110293277D01*
X61254670Y-110128051D01*
X61250619Y-110124852D01*
X61250615Y-110124848D01*
X61083414Y-109992800D01*
X61083410Y-109992798D01*
X61079359Y-109989598D01*
X61043028Y-109969542D01*
X61001526Y-109946632D01*
X60883789Y-109881638D01*
X60878920Y-109879914D01*
X60878916Y-109879912D01*
X60678087Y-109808795D01*
X60678083Y-109808794D01*
X60673212Y-109807069D01*
X60668119Y-109806162D01*
X60668116Y-109806161D01*
X60458373Y-109768800D01*
X60458367Y-109768799D01*
X60453284Y-109767894D01*
X60379452Y-109766992D01*
X60235081Y-109765228D01*
X60235079Y-109765228D01*
X60229911Y-109765165D01*
X60009091Y-109798955D01*
X59796756Y-109868357D01*
X59598607Y-109971507D01*
X59594474Y-109974610D01*
X59594471Y-109974612D01*
X59424100Y-110102530D01*
X59419965Y-110105635D01*
X59416393Y-110109373D01*
X59308729Y-110222037D01*
X59265629Y-110267138D01*
X59158201Y-110424621D01*
X59103293Y-110469621D01*
X59032768Y-110477792D01*
X58969021Y-110446538D01*
X58948324Y-110422054D01*
X58867822Y-110297617D01*
X58867820Y-110297614D01*
X58865014Y-110293277D01*
X58714670Y-110128051D01*
X58710619Y-110124852D01*
X58710615Y-110124848D01*
X58543414Y-109992800D01*
X58543410Y-109992798D01*
X58539359Y-109989598D01*
X58503028Y-109969542D01*
X58461526Y-109946632D01*
X58343789Y-109881638D01*
X58338920Y-109879914D01*
X58338916Y-109879912D01*
X58138087Y-109808795D01*
X58138083Y-109808794D01*
X58133212Y-109807069D01*
X58128119Y-109806162D01*
X58128116Y-109806161D01*
X57918373Y-109768800D01*
X57918367Y-109768799D01*
X57913284Y-109767894D01*
X57839452Y-109766992D01*
X57695081Y-109765228D01*
X57695079Y-109765228D01*
X57689911Y-109765165D01*
X57469091Y-109798955D01*
X57256756Y-109868357D01*
X57058607Y-109971507D01*
X57054474Y-109974610D01*
X57054471Y-109974612D01*
X56884100Y-110102530D01*
X56879965Y-110105635D01*
X56876393Y-110109373D01*
X56768729Y-110222037D01*
X56725629Y-110267138D01*
X56618201Y-110424621D01*
X56563293Y-110469621D01*
X56492768Y-110477792D01*
X56429021Y-110446538D01*
X56408324Y-110422054D01*
X56327822Y-110297617D01*
X56327820Y-110297614D01*
X56325014Y-110293277D01*
X56174670Y-110128051D01*
X56170619Y-110124852D01*
X56170615Y-110124848D01*
X56003414Y-109992800D01*
X56003410Y-109992798D01*
X55999359Y-109989598D01*
X55963028Y-109969542D01*
X55921526Y-109946632D01*
X55803789Y-109881638D01*
X55798920Y-109879914D01*
X55798916Y-109879912D01*
X55601458Y-109809989D01*
X55593212Y-109807069D01*
X55592339Y-109806914D01*
X55532653Y-109770819D01*
X55501408Y-109707067D01*
X55509590Y-109636544D01*
X55528503Y-109605425D01*
X55532496Y-109600598D01*
X55540488Y-109591816D01*
X56065805Y-109066500D01*
X66900500Y-109066500D01*
X68426500Y-109066500D01*
X79600500Y-109066500D01*
X81126500Y-109066500D01*
X82140500Y-109066500D01*
X82827873Y-109066500D01*
X82859359Y-108908212D01*
X82878173Y-108862792D01*
X83067783Y-108579022D01*
X83003688Y-108474429D01*
X83001079Y-108469969D01*
X82970638Y-108415390D01*
X82968214Y-108410825D01*
X82958904Y-108392394D01*
X82956669Y-108387735D01*
X82930806Y-108330852D01*
X82928764Y-108326105D01*
X82844720Y-108119128D01*
X82842874Y-108114299D01*
X82821753Y-108055469D01*
X82820107Y-108050570D01*
X82813933Y-108030867D01*
X82812489Y-108025907D01*
X82796269Y-107965581D01*
X82795031Y-107960566D01*
X82745919Y-107742642D01*
X82744886Y-107737579D01*
X82733660Y-107676112D01*
X82732836Y-107671011D01*
X82729962Y-107650563D01*
X82729348Y-107645433D01*
X82723194Y-107583238D01*
X82722791Y-107578084D01*
X82720624Y-107540500D01*
X82140500Y-107540500D01*
X82140500Y-109066500D01*
X81126500Y-109066500D01*
X81126500Y-107540500D01*
X79600500Y-107540500D01*
X79600500Y-109066500D01*
X68426500Y-109066500D01*
X68426500Y-108999144D01*
X74520500Y-108999144D01*
X74578543Y-108968929D01*
X74583174Y-108966637D01*
X74639727Y-108940085D01*
X74644447Y-108937986D01*
X74663482Y-108929984D01*
X74668286Y-108928080D01*
X74726850Y-108906241D01*
X74731730Y-108904534D01*
X74944065Y-108835132D01*
X74949009Y-108833628D01*
X75009159Y-108816664D01*
X75014161Y-108815363D01*
X75034247Y-108810578D01*
X75039298Y-108809484D01*
X75100624Y-108797509D01*
X75105713Y-108796623D01*
X75326533Y-108762833D01*
X75331654Y-108762156D01*
X75393736Y-108755246D01*
X75398881Y-108754780D01*
X75419479Y-108753339D01*
X75424642Y-108753084D01*
X75487129Y-108751283D01*
X75492298Y-108751240D01*
X75715671Y-108753969D01*
X75720839Y-108754139D01*
X75783269Y-108757467D01*
X75788424Y-108757848D01*
X75808981Y-108759792D01*
X75814110Y-108760383D01*
X75876000Y-108768806D01*
X75881105Y-108769608D01*
X76046500Y-108799069D01*
X76046500Y-107540500D01*
X74520500Y-107540500D01*
X74520500Y-108999144D01*
X77060500Y-108999144D01*
X77118543Y-108968929D01*
X77123174Y-108966637D01*
X77179727Y-108940085D01*
X77184447Y-108937986D01*
X77203482Y-108929984D01*
X77208286Y-108928080D01*
X77266850Y-108906241D01*
X77271730Y-108904534D01*
X77484065Y-108835132D01*
X77489009Y-108833628D01*
X77549159Y-108816664D01*
X77554161Y-108815363D01*
X77574247Y-108810578D01*
X77579298Y-108809484D01*
X77640624Y-108797509D01*
X77645713Y-108796623D01*
X77866533Y-108762833D01*
X77871654Y-108762156D01*
X77933736Y-108755246D01*
X77938881Y-108754780D01*
X77959479Y-108753339D01*
X77964642Y-108753084D01*
X78027129Y-108751283D01*
X78032298Y-108751240D01*
X78255671Y-108753969D01*
X78260839Y-108754139D01*
X78323269Y-108757467D01*
X78328424Y-108757848D01*
X78348981Y-108759792D01*
X78354110Y-108760383D01*
X78416000Y-108768806D01*
X78421105Y-108769608D01*
X78586500Y-108799069D01*
X78586500Y-107540500D01*
X77060500Y-107540500D01*
X77060500Y-108999144D01*
X74520500Y-108999144D01*
X68426500Y-108999144D01*
X68426500Y-108889620D01*
X71980500Y-108889620D01*
X72054377Y-108923483D01*
X72062385Y-108927503D01*
X72092539Y-108944013D01*
X72099921Y-108940547D01*
X72104641Y-108938448D01*
X72123676Y-108930446D01*
X72128480Y-108928542D01*
X72187046Y-108906702D01*
X72191926Y-108904995D01*
X72404184Y-108835619D01*
X72409127Y-108834115D01*
X72469266Y-108817154D01*
X72474267Y-108815853D01*
X72494352Y-108811068D01*
X72499404Y-108809974D01*
X72560732Y-108797998D01*
X72565821Y-108797112D01*
X72627613Y-108787656D01*
X72645817Y-108786209D01*
X72866109Y-108784712D01*
X72884331Y-108785912D01*
X72955733Y-108795848D01*
X72967066Y-108797957D01*
X73052637Y-108817973D01*
X73119468Y-108796884D01*
X73143639Y-108791795D01*
X73214211Y-108784049D01*
X73232176Y-108783368D01*
X73448944Y-108790628D01*
X73466822Y-108792510D01*
X73506500Y-108799578D01*
X73506500Y-107540500D01*
X72827764Y-107540500D01*
X72809630Y-107595012D01*
X72807545Y-107600805D01*
X72780623Y-107670213D01*
X72778257Y-107675897D01*
X72768255Y-107698362D01*
X72765614Y-107703923D01*
X72732047Y-107770375D01*
X72729137Y-107775802D01*
X72636290Y-107939242D01*
X72633119Y-107944520D01*
X72593225Y-108007382D01*
X72589800Y-108012498D01*
X72575625Y-108032592D01*
X72571954Y-108037535D01*
X72526123Y-108096195D01*
X72522215Y-108100952D01*
X72399391Y-108243245D01*
X72395256Y-108247806D01*
X72343911Y-108301724D01*
X72339556Y-108306078D01*
X72321748Y-108323036D01*
X72317187Y-108327172D01*
X72260836Y-108375812D01*
X72256079Y-108379719D01*
X72107955Y-108495446D01*
X72103013Y-108499117D01*
X72042188Y-108542025D01*
X72037073Y-108545449D01*
X72016310Y-108558626D01*
X72011032Y-108561798D01*
X71980500Y-108579143D01*
X71980500Y-108889620D01*
X68426500Y-108889620D01*
X68426500Y-107819500D01*
X66900500Y-107819500D01*
X66900500Y-109066500D01*
X56065805Y-109066500D01*
X56137803Y-108994502D01*
X64360500Y-108994502D01*
X64408737Y-108969391D01*
X64413368Y-108967099D01*
X64469921Y-108940547D01*
X64474641Y-108938448D01*
X64493676Y-108930446D01*
X64498480Y-108928542D01*
X64557046Y-108906702D01*
X64561926Y-108904995D01*
X64774184Y-108835619D01*
X64779127Y-108834115D01*
X64839266Y-108817154D01*
X64844267Y-108815853D01*
X64864352Y-108811068D01*
X64869404Y-108809974D01*
X64930732Y-108797998D01*
X64935821Y-108797112D01*
X64997613Y-108787656D01*
X65015817Y-108786209D01*
X65236109Y-108784712D01*
X65254331Y-108785912D01*
X65325733Y-108795848D01*
X65337066Y-108797957D01*
X65422637Y-108817973D01*
X65489468Y-108796884D01*
X65513639Y-108791795D01*
X65584211Y-108784049D01*
X65602176Y-108783368D01*
X65818944Y-108790628D01*
X65836822Y-108792510D01*
X65886500Y-108801359D01*
X65886500Y-107819500D01*
X64360500Y-107819500D01*
X64360500Y-108994502D01*
X56137803Y-108994502D01*
X56138366Y-108993939D01*
X59280500Y-108993939D01*
X59328543Y-108968929D01*
X59333174Y-108966637D01*
X59389727Y-108940085D01*
X59394447Y-108937986D01*
X59413482Y-108929984D01*
X59418286Y-108928080D01*
X59476850Y-108906241D01*
X59481730Y-108904534D01*
X59694065Y-108835132D01*
X59699009Y-108833628D01*
X59759159Y-108816664D01*
X59764161Y-108815363D01*
X59784247Y-108810578D01*
X59789298Y-108809484D01*
X59850624Y-108797509D01*
X59855713Y-108796623D01*
X60076533Y-108762833D01*
X60081654Y-108762156D01*
X60143736Y-108755246D01*
X60148881Y-108754780D01*
X60169479Y-108753339D01*
X60174642Y-108753084D01*
X60237129Y-108751283D01*
X60242298Y-108751240D01*
X60465671Y-108753969D01*
X60470839Y-108754139D01*
X60533269Y-108757467D01*
X60538424Y-108757848D01*
X60558981Y-108759792D01*
X60564110Y-108760383D01*
X60626000Y-108768806D01*
X60631105Y-108769608D01*
X60806500Y-108800850D01*
X60806500Y-107540500D01*
X59280500Y-107540500D01*
X59280500Y-108993939D01*
X61820500Y-108993939D01*
X61868543Y-108968929D01*
X61873174Y-108966637D01*
X61929727Y-108940085D01*
X61934447Y-108937986D01*
X61953482Y-108929984D01*
X61958286Y-108928080D01*
X62016850Y-108906241D01*
X62021730Y-108904534D01*
X62234065Y-108835132D01*
X62239009Y-108833628D01*
X62299159Y-108816664D01*
X62304161Y-108815363D01*
X62324247Y-108810578D01*
X62329298Y-108809484D01*
X62390624Y-108797509D01*
X62395713Y-108796623D01*
X62616533Y-108762833D01*
X62621654Y-108762156D01*
X62683736Y-108755246D01*
X62688881Y-108754780D01*
X62709479Y-108753339D01*
X62714642Y-108753084D01*
X62777129Y-108751283D01*
X62782298Y-108751240D01*
X63005671Y-108753969D01*
X63010839Y-108754139D01*
X63073269Y-108757467D01*
X63078424Y-108757848D01*
X63098981Y-108759792D01*
X63104110Y-108760383D01*
X63166000Y-108768806D01*
X63171105Y-108769608D01*
X63346500Y-108800850D01*
X63346500Y-107819500D01*
X63009698Y-107819500D01*
X63007371Y-107819720D01*
X62999471Y-107820217D01*
X62903826Y-107823223D01*
X62895911Y-107823223D01*
X62864342Y-107822231D01*
X62856442Y-107821734D01*
X62802558Y-107816641D01*
X62748565Y-107813244D01*
X62740686Y-107812500D01*
X62709352Y-107808542D01*
X62701533Y-107807303D01*
X62607535Y-107789373D01*
X62599816Y-107787648D01*
X62597543Y-107787064D01*
X62595211Y-107786695D01*
X62587440Y-107785212D01*
X62494043Y-107764333D01*
X62486376Y-107762364D01*
X62456048Y-107753552D01*
X62448521Y-107751106D01*
X62397640Y-107732787D01*
X62346175Y-107716065D01*
X62338730Y-107713385D01*
X62309364Y-107701759D01*
X62302098Y-107698615D01*
X62215491Y-107657862D01*
X62208437Y-107654268D01*
X62206382Y-107653138D01*
X62204260Y-107652220D01*
X62197098Y-107648850D01*
X62111827Y-107605403D01*
X62104890Y-107601589D01*
X62077702Y-107585510D01*
X62071019Y-107581269D01*
X62026284Y-107550867D01*
X62009948Y-107540500D01*
X61820500Y-107540500D01*
X61820500Y-108993939D01*
X59280500Y-108993939D01*
X56138366Y-108993939D01*
X56722253Y-108410052D01*
X56730539Y-108402512D01*
X56737018Y-108398400D01*
X56754561Y-108379719D01*
X56783643Y-108348749D01*
X56786398Y-108345907D01*
X56806135Y-108326170D01*
X56808615Y-108322973D01*
X56816320Y-108313951D01*
X56841159Y-108287500D01*
X56846586Y-108281721D01*
X56850405Y-108274775D01*
X56850407Y-108274772D01*
X56856348Y-108263966D01*
X56867199Y-108247447D01*
X56874758Y-108237701D01*
X56879614Y-108231441D01*
X56882759Y-108224172D01*
X56882762Y-108224168D01*
X56897174Y-108190863D01*
X56902391Y-108180213D01*
X56923695Y-108141460D01*
X56928733Y-108121837D01*
X56935137Y-108103134D01*
X56940033Y-108091820D01*
X56940033Y-108091819D01*
X56943181Y-108084545D01*
X56944420Y-108076722D01*
X56944423Y-108076712D01*
X56950099Y-108040876D01*
X56952505Y-108029256D01*
X56961528Y-107994111D01*
X56961528Y-107994110D01*
X56963500Y-107986430D01*
X56963500Y-107966176D01*
X56965051Y-107946465D01*
X56966980Y-107934286D01*
X56968220Y-107926457D01*
X56964059Y-107882438D01*
X56963500Y-107870581D01*
X56963500Y-106526500D01*
X59280500Y-106526500D01*
X60806500Y-106526500D01*
X60806500Y-106376414D01*
X60657586Y-106227500D01*
X59280500Y-106227500D01*
X59280500Y-106526500D01*
X56963500Y-106526500D01*
X56963500Y-97376590D01*
X56983502Y-97308469D01*
X57000405Y-97287495D01*
X57121405Y-97166495D01*
X57183717Y-97132469D01*
X57254532Y-97137534D01*
X57311368Y-97180081D01*
X57336179Y-97246601D01*
X57336500Y-97255590D01*
X57336500Y-101131233D01*
X57335973Y-101142416D01*
X57334298Y-101149909D01*
X57334547Y-101157835D01*
X57334547Y-101157836D01*
X57336438Y-101217986D01*
X57336500Y-101221945D01*
X57336500Y-101249856D01*
X57336997Y-101253790D01*
X57336997Y-101253791D01*
X57337005Y-101253856D01*
X57337938Y-101265693D01*
X57339327Y-101309889D01*
X57344978Y-101329339D01*
X57348987Y-101348700D01*
X57351526Y-101368797D01*
X57354445Y-101376168D01*
X57354445Y-101376170D01*
X57367804Y-101409912D01*
X57371649Y-101421142D01*
X57378316Y-101444091D01*
X57383982Y-101463593D01*
X57388015Y-101470412D01*
X57388017Y-101470417D01*
X57394293Y-101481028D01*
X57402988Y-101498776D01*
X57410448Y-101517617D01*
X57415110Y-101524033D01*
X57415110Y-101524034D01*
X57436436Y-101553387D01*
X57442952Y-101563307D01*
X57456169Y-101585655D01*
X57465458Y-101601362D01*
X57479779Y-101615683D01*
X57492619Y-101630716D01*
X57504528Y-101647107D01*
X57535264Y-101672534D01*
X57538605Y-101675298D01*
X57547384Y-101683288D01*
X57975028Y-102110932D01*
X58009054Y-102173244D01*
X58011196Y-102213634D01*
X58009038Y-102233500D01*
X58006500Y-102256866D01*
X58006500Y-104753134D01*
X58013255Y-104815316D01*
X58064385Y-104951705D01*
X58151739Y-105068261D01*
X58268295Y-105155615D01*
X58404684Y-105206745D01*
X58466866Y-105213500D01*
X61025406Y-105213500D01*
X61093527Y-105233502D01*
X61114501Y-105250405D01*
X62428343Y-106564247D01*
X62435887Y-106572537D01*
X62440000Y-106579018D01*
X62445777Y-106584443D01*
X62489667Y-106625658D01*
X62492509Y-106628413D01*
X62512231Y-106648135D01*
X62515355Y-106650558D01*
X62515359Y-106650562D01*
X62515424Y-106650612D01*
X62524445Y-106658317D01*
X62556679Y-106688586D01*
X62563627Y-106692405D01*
X62563629Y-106692407D01*
X62574432Y-106698346D01*
X62590959Y-106709202D01*
X62600698Y-106716757D01*
X62600700Y-106716758D01*
X62606960Y-106721614D01*
X62647540Y-106739174D01*
X62658188Y-106744391D01*
X62667962Y-106749764D01*
X62696940Y-106765695D01*
X62704616Y-106767666D01*
X62704619Y-106767667D01*
X62716562Y-106770733D01*
X62735267Y-106777137D01*
X62753855Y-106785181D01*
X62761678Y-106786420D01*
X62761688Y-106786423D01*
X62797524Y-106792099D01*
X62809144Y-106794505D01*
X62844289Y-106803528D01*
X62851970Y-106805500D01*
X62872224Y-106805500D01*
X62891934Y-106807051D01*
X62911943Y-106810220D01*
X62919835Y-106809474D01*
X62931263Y-106808394D01*
X62955962Y-106806059D01*
X62967819Y-106805500D01*
X69524207Y-106805500D01*
X69547816Y-106807732D01*
X69548119Y-106807790D01*
X69548123Y-106807790D01*
X69555906Y-106809275D01*
X69611951Y-106805749D01*
X69619862Y-106805500D01*
X69635856Y-106805500D01*
X69651730Y-106803494D01*
X69659590Y-106802752D01*
X69687049Y-106801024D01*
X69707737Y-106799723D01*
X69707738Y-106799723D01*
X69715650Y-106799225D01*
X69723191Y-106796775D01*
X69723487Y-106796679D01*
X69746631Y-106791506D01*
X69746935Y-106791468D01*
X69746940Y-106791467D01*
X69754797Y-106790474D01*
X69762162Y-106787558D01*
X69762166Y-106787557D01*
X69807011Y-106769801D01*
X69814448Y-106767123D01*
X69840086Y-106758793D01*
X69911053Y-106756766D01*
X69971851Y-106793428D01*
X70003176Y-106857140D01*
X70004174Y-106869784D01*
X70004556Y-106869752D01*
X70015138Y-106995765D01*
X70020285Y-107057065D01*
X70072097Y-107237755D01*
X70074912Y-107243232D01*
X70074913Y-107243235D01*
X70155203Y-107399463D01*
X70158018Y-107404940D01*
X70161841Y-107409764D01*
X70161844Y-107409768D01*
X70188225Y-107443052D01*
X70274777Y-107552252D01*
X70279471Y-107556247D01*
X70392239Y-107652220D01*
X70417924Y-107674080D01*
X70423302Y-107677086D01*
X70423304Y-107677087D01*
X70467450Y-107701759D01*
X70582009Y-107765784D01*
X70760780Y-107823870D01*
X70947430Y-107846127D01*
X70953565Y-107845655D01*
X70953567Y-107845655D01*
X71128705Y-107832179D01*
X71128709Y-107832178D01*
X71134847Y-107831706D01*
X71222247Y-107807303D01*
X71309950Y-107782816D01*
X71309953Y-107782815D01*
X71315894Y-107781156D01*
X71321398Y-107778376D01*
X71321400Y-107778375D01*
X71478174Y-107699183D01*
X71478176Y-107699182D01*
X71483675Y-107696404D01*
X71631799Y-107580677D01*
X71640545Y-107570545D01*
X71750594Y-107443052D01*
X71750595Y-107443050D01*
X71754623Y-107438384D01*
X71847470Y-107274944D01*
X71906803Y-107096582D01*
X71930362Y-106910092D01*
X71930738Y-106883200D01*
X71930394Y-106879697D01*
X71930247Y-106876179D01*
X71931524Y-106876125D01*
X71943796Y-106811515D01*
X71966850Y-106779854D01*
X72220204Y-106526500D01*
X74520500Y-106526500D01*
X76046500Y-106526500D01*
X77060500Y-106526500D01*
X78586500Y-106526500D01*
X79600500Y-106526500D01*
X81126500Y-106526500D01*
X81126500Y-105808414D01*
X80318586Y-105000500D01*
X79600500Y-105000500D01*
X79600500Y-106526500D01*
X78586500Y-106526500D01*
X78586500Y-105000500D01*
X77060500Y-105000500D01*
X77060500Y-106526500D01*
X76046500Y-106526500D01*
X76046500Y-105000500D01*
X75179566Y-105000500D01*
X75170894Y-105009734D01*
X75168140Y-105012575D01*
X75158297Y-105022418D01*
X75121194Y-105061929D01*
X75115597Y-105067526D01*
X75076075Y-105104640D01*
X74520500Y-105660215D01*
X74520500Y-106526500D01*
X72220204Y-106526500D01*
X73150267Y-105596438D01*
X74367253Y-104379452D01*
X74375539Y-104371912D01*
X74382018Y-104367800D01*
X74428644Y-104318148D01*
X74431398Y-104315307D01*
X74451135Y-104295570D01*
X74453615Y-104292373D01*
X74461320Y-104283351D01*
X74486159Y-104256900D01*
X74491586Y-104251121D01*
X74495405Y-104244175D01*
X74495407Y-104244172D01*
X74501348Y-104233366D01*
X74512199Y-104216847D01*
X74519758Y-104207101D01*
X74524614Y-104200841D01*
X74527759Y-104193572D01*
X74527762Y-104193568D01*
X74542174Y-104160263D01*
X74547391Y-104149613D01*
X74568695Y-104110860D01*
X74573733Y-104091237D01*
X74580137Y-104072534D01*
X74585033Y-104061220D01*
X74585033Y-104061219D01*
X74588181Y-104053945D01*
X74589420Y-104046122D01*
X74589423Y-104046112D01*
X74595099Y-104010276D01*
X74597506Y-103998654D01*
X74600627Y-103986500D01*
X77114043Y-103986500D01*
X78586500Y-103986500D01*
X78586500Y-103268414D01*
X77778586Y-102460500D01*
X77658754Y-102460500D01*
X77664299Y-102517049D01*
X77664593Y-102520556D01*
X77667562Y-102563017D01*
X77667759Y-102566531D01*
X77668348Y-102580589D01*
X77668446Y-102584105D01*
X77669040Y-102626656D01*
X77669040Y-102630177D01*
X77668664Y-102657069D01*
X77668565Y-102660591D01*
X77666779Y-102703142D01*
X77666582Y-102706656D01*
X77665600Y-102720686D01*
X77665306Y-102724188D01*
X77661157Y-102766487D01*
X77660765Y-102769979D01*
X77637206Y-102956469D01*
X77636286Y-102962555D01*
X77623360Y-103035868D01*
X77622143Y-103041905D01*
X77616695Y-103065885D01*
X77615185Y-103071854D01*
X77595164Y-103143562D01*
X77593363Y-103149450D01*
X77534030Y-103327812D01*
X77531945Y-103333605D01*
X77505023Y-103403013D01*
X77502657Y-103408697D01*
X77492655Y-103431162D01*
X77490014Y-103436723D01*
X77456447Y-103503175D01*
X77453537Y-103508602D01*
X77360690Y-103672042D01*
X77357519Y-103677320D01*
X77317625Y-103740182D01*
X77314200Y-103745298D01*
X77300025Y-103765392D01*
X77296354Y-103770335D01*
X77250523Y-103828995D01*
X77246615Y-103833752D01*
X77123791Y-103976045D01*
X77119656Y-103980606D01*
X77114043Y-103986500D01*
X74600627Y-103986500D01*
X74602035Y-103981015D01*
X74638349Y-103920008D01*
X74657772Y-103905206D01*
X74664193Y-103901233D01*
X74699348Y-103879478D01*
X74824305Y-103754303D01*
X74883791Y-103657800D01*
X74913275Y-103609968D01*
X74913276Y-103609966D01*
X74917115Y-103603738D01*
X74940459Y-103533357D01*
X74942955Y-103525833D01*
X74983386Y-103467473D01*
X75048950Y-103440236D01*
X75062548Y-103439500D01*
X75167871Y-103439500D01*
X75229341Y-103455512D01*
X75284190Y-103486166D01*
X75306409Y-103498584D01*
X75485180Y-103556670D01*
X75671830Y-103578927D01*
X75677965Y-103578455D01*
X75677967Y-103578455D01*
X75853105Y-103564979D01*
X75853109Y-103564978D01*
X75859247Y-103564506D01*
X75949437Y-103539324D01*
X76034350Y-103515616D01*
X76034353Y-103515615D01*
X76040294Y-103513956D01*
X76045798Y-103511176D01*
X76045800Y-103511175D01*
X76202574Y-103431983D01*
X76202576Y-103431982D01*
X76208075Y-103429204D01*
X76356199Y-103313477D01*
X76373191Y-103293792D01*
X76474994Y-103175852D01*
X76474995Y-103175850D01*
X76479023Y-103171184D01*
X76571870Y-103007744D01*
X76631203Y-102829382D01*
X76654762Y-102642892D01*
X76655138Y-102616000D01*
X76636795Y-102428926D01*
X76582465Y-102248977D01*
X76494218Y-102083008D01*
X76375415Y-101937340D01*
X76291570Y-101867977D01*
X76235329Y-101821450D01*
X76235324Y-101821447D01*
X76230580Y-101817522D01*
X76225161Y-101814592D01*
X76225158Y-101814590D01*
X76107410Y-101750925D01*
X76065231Y-101728119D01*
X75885666Y-101672534D01*
X75879541Y-101671890D01*
X75879540Y-101671890D01*
X75704852Y-101653529D01*
X75704851Y-101653529D01*
X75698724Y-101652885D01*
X75621673Y-101659897D01*
X75517665Y-101669363D01*
X75517662Y-101669364D01*
X75511526Y-101669922D01*
X75505620Y-101671660D01*
X75505616Y-101671661D01*
X75392599Y-101704924D01*
X75331202Y-101722994D01*
X75279753Y-101749891D01*
X75199544Y-101791823D01*
X75164621Y-101810080D01*
X75099276Y-101862619D01*
X75028664Y-101919393D01*
X74963042Y-101946490D01*
X74893188Y-101933807D01*
X74842569Y-101887502D01*
X74827332Y-101862879D01*
X74827329Y-101862876D01*
X74823478Y-101856652D01*
X74808258Y-101841458D01*
X74703483Y-101736866D01*
X74698303Y-101731695D01*
X74689546Y-101726297D01*
X74655883Y-101705546D01*
X74608390Y-101652774D01*
X74596000Y-101598287D01*
X74596000Y-101275899D01*
X74616002Y-101207778D01*
X74655697Y-101168755D01*
X74665566Y-101162648D01*
X74686848Y-101149478D01*
X74811805Y-101024303D01*
X74819404Y-101011976D01*
X74900775Y-100879968D01*
X74900776Y-100879966D01*
X74904615Y-100873738D01*
X74954570Y-100723128D01*
X74958132Y-100712389D01*
X74958132Y-100712387D01*
X74960297Y-100705861D01*
X74961851Y-100690700D01*
X74969962Y-100611531D01*
X74971000Y-100601400D01*
X74971000Y-99550600D01*
X74970084Y-99541774D01*
X74960738Y-99451692D01*
X74960737Y-99451688D01*
X74960026Y-99444834D01*
X74957788Y-99438124D01*
X74906368Y-99284002D01*
X74904050Y-99277054D01*
X74810978Y-99126652D01*
X74791158Y-99106866D01*
X74690983Y-99006866D01*
X74685803Y-99001695D01*
X74679572Y-98997854D01*
X74541468Y-98912725D01*
X74541466Y-98912724D01*
X74535238Y-98908885D01*
X74374754Y-98855655D01*
X74373889Y-98855368D01*
X74373887Y-98855368D01*
X74367361Y-98853203D01*
X74360525Y-98852503D01*
X74360522Y-98852502D01*
X74304360Y-98846748D01*
X74262900Y-98842500D01*
X73662100Y-98842500D01*
X73658854Y-98842837D01*
X73658850Y-98842837D01*
X73563192Y-98852762D01*
X73563188Y-98852763D01*
X73556334Y-98853474D01*
X73549798Y-98855655D01*
X73549796Y-98855655D01*
X73440990Y-98891956D01*
X73388554Y-98909450D01*
X73238152Y-99002522D01*
X73113195Y-99127697D01*
X73110594Y-99131916D01*
X73053470Y-99172417D01*
X72982547Y-99175649D01*
X72921135Y-99140024D01*
X72914578Y-99132470D01*
X72910978Y-99126652D01*
X72891158Y-99106866D01*
X72790983Y-99006866D01*
X72785803Y-99001695D01*
X72779572Y-98997854D01*
X72641468Y-98912725D01*
X72641466Y-98912724D01*
X72635238Y-98908885D01*
X72474754Y-98855655D01*
X72473889Y-98855368D01*
X72473887Y-98855368D01*
X72467361Y-98853203D01*
X72460525Y-98852503D01*
X72460522Y-98852502D01*
X72404360Y-98846748D01*
X72362900Y-98842500D01*
X72029594Y-98842500D01*
X71961473Y-98822498D01*
X71914980Y-98768842D01*
X71904876Y-98698568D01*
X71934370Y-98633988D01*
X71940499Y-98627405D01*
X72103221Y-98464683D01*
X72165533Y-98430657D01*
X72192316Y-98427778D01*
X77011868Y-98427778D01*
X77079989Y-98447780D01*
X77126482Y-98501436D01*
X77136586Y-98571710D01*
X77107092Y-98636290D01*
X77047366Y-98674674D01*
X77038066Y-98677025D01*
X76933712Y-98699206D01*
X76927682Y-98701891D01*
X76927681Y-98701891D01*
X76765278Y-98774197D01*
X76765276Y-98774198D01*
X76759248Y-98776882D01*
X76604747Y-98889134D01*
X76600326Y-98894044D01*
X76600325Y-98894045D01*
X76538240Y-98962998D01*
X76476960Y-99031056D01*
X76433191Y-99106866D01*
X76401201Y-99162275D01*
X76381473Y-99196444D01*
X76322458Y-99378072D01*
X76321768Y-99384633D01*
X76321768Y-99384635D01*
X76306217Y-99532598D01*
X76302496Y-99568000D01*
X76303186Y-99574565D01*
X76320793Y-99742082D01*
X76322458Y-99757928D01*
X76381473Y-99939556D01*
X76384776Y-99945278D01*
X76384777Y-99945279D01*
X76389509Y-99953475D01*
X76476960Y-100104944D01*
X76481378Y-100109851D01*
X76481379Y-100109852D01*
X76587745Y-100227983D01*
X76604747Y-100246866D01*
X76693135Y-100311084D01*
X76741917Y-100346526D01*
X76759248Y-100359118D01*
X76765276Y-100361802D01*
X76765278Y-100361803D01*
X76927681Y-100434109D01*
X76933712Y-100436794D01*
X77017012Y-100454500D01*
X77114056Y-100475128D01*
X77114061Y-100475128D01*
X77120513Y-100476500D01*
X77176406Y-100476500D01*
X77244527Y-100496502D01*
X77265501Y-100513405D01*
X81934343Y-105182247D01*
X81941887Y-105190537D01*
X81946000Y-105197018D01*
X81993164Y-105241307D01*
X81995663Y-105243654D01*
X81998506Y-105246410D01*
X82018230Y-105266134D01*
X82021425Y-105268612D01*
X82030447Y-105276318D01*
X82062679Y-105306586D01*
X82069628Y-105310406D01*
X82080432Y-105316346D01*
X82096956Y-105327199D01*
X82112959Y-105339613D01*
X82153543Y-105357176D01*
X82164173Y-105362383D01*
X82202940Y-105383695D01*
X82210617Y-105385666D01*
X82210622Y-105385668D01*
X82222558Y-105388732D01*
X82241266Y-105395137D01*
X82259855Y-105403181D01*
X82267683Y-105404421D01*
X82267690Y-105404423D01*
X82303524Y-105410099D01*
X82315144Y-105412505D01*
X82344731Y-105420101D01*
X82357970Y-105423500D01*
X82378224Y-105423500D01*
X82397934Y-105425051D01*
X82417943Y-105428220D01*
X82425835Y-105427474D01*
X82461961Y-105424059D01*
X82473819Y-105423500D01*
X83809274Y-105423500D01*
X83877395Y-105443502D01*
X83916707Y-105483665D01*
X83984987Y-105595088D01*
X84131250Y-105763938D01*
X84303126Y-105906632D01*
X84354347Y-105936563D01*
X84376445Y-105949476D01*
X84425169Y-106001114D01*
X84438240Y-106070897D01*
X84411509Y-106136669D01*
X84371055Y-106170027D01*
X84358607Y-106176507D01*
X84354474Y-106179610D01*
X84354471Y-106179612D01*
X84220447Y-106280240D01*
X84179965Y-106310635D01*
X84025629Y-106472138D01*
X84022715Y-106476410D01*
X84022714Y-106476411D01*
X83958534Y-106570495D01*
X83899743Y-106656680D01*
X83875363Y-106709202D01*
X83830894Y-106805004D01*
X83805688Y-106859305D01*
X83745989Y-107074570D01*
X83722251Y-107296695D01*
X83722548Y-107301848D01*
X83722548Y-107301851D01*
X83730690Y-107443052D01*
X83735110Y-107519715D01*
X83736247Y-107524761D01*
X83736248Y-107524767D01*
X83749938Y-107585510D01*
X83784222Y-107737639D01*
X83868266Y-107944616D01*
X83906729Y-108007382D01*
X83981881Y-108130019D01*
X83984987Y-108135088D01*
X84131250Y-108303938D01*
X84303126Y-108446632D01*
X84496000Y-108559338D01*
X84704692Y-108639030D01*
X84709760Y-108640061D01*
X84709763Y-108640062D01*
X84817017Y-108661883D01*
X84923597Y-108683567D01*
X84928772Y-108683757D01*
X84928774Y-108683757D01*
X85141673Y-108691564D01*
X85141677Y-108691564D01*
X85146837Y-108691753D01*
X85151957Y-108691097D01*
X85151959Y-108691097D01*
X85363288Y-108664025D01*
X85363289Y-108664025D01*
X85368416Y-108663368D01*
X85373366Y-108661883D01*
X85577429Y-108600661D01*
X85577434Y-108600659D01*
X85582384Y-108599174D01*
X85782994Y-108500896D01*
X85964860Y-108371173D01*
X85987363Y-108348749D01*
X86093236Y-108243245D01*
X86123096Y-108213489D01*
X86148291Y-108178427D01*
X86250435Y-108036277D01*
X86253453Y-108032077D01*
X86256503Y-108025907D01*
X86350136Y-107836453D01*
X86350137Y-107836451D01*
X86352430Y-107831811D01*
X86388411Y-107713385D01*
X86415865Y-107623023D01*
X86415865Y-107623021D01*
X86417370Y-107618069D01*
X86446529Y-107396590D01*
X86446611Y-107393240D01*
X86448074Y-107333365D01*
X86448074Y-107333361D01*
X86448156Y-107330000D01*
X86429852Y-107107361D01*
X86401821Y-106995765D01*
X86404625Y-106924823D01*
X86434930Y-106875974D01*
X87768247Y-105542657D01*
X87776537Y-105535113D01*
X87783018Y-105531000D01*
X87829659Y-105481332D01*
X87832413Y-105478491D01*
X87852134Y-105458770D01*
X87854612Y-105455575D01*
X87862318Y-105446553D01*
X87887158Y-105420101D01*
X87892586Y-105414321D01*
X87902346Y-105396568D01*
X87913199Y-105380045D01*
X87920753Y-105370306D01*
X87925613Y-105364041D01*
X87943176Y-105323457D01*
X87948383Y-105312827D01*
X87969695Y-105274060D01*
X87971666Y-105266383D01*
X87971668Y-105266378D01*
X87974732Y-105254442D01*
X87981138Y-105235730D01*
X87982372Y-105232880D01*
X87989181Y-105217145D01*
X87990421Y-105209317D01*
X87990423Y-105209310D01*
X87996099Y-105173476D01*
X87998505Y-105161856D01*
X88007528Y-105126711D01*
X88007528Y-105126710D01*
X88009500Y-105119030D01*
X88009500Y-105098776D01*
X88011051Y-105079065D01*
X88012980Y-105066886D01*
X88014220Y-105059057D01*
X88010059Y-105015038D01*
X88009500Y-105003181D01*
X88009500Y-92534767D01*
X88010027Y-92523584D01*
X88011702Y-92516091D01*
X88009562Y-92448000D01*
X88009500Y-92444043D01*
X88009500Y-92416144D01*
X88008996Y-92412153D01*
X88008063Y-92400311D01*
X88007932Y-92396117D01*
X88006674Y-92356111D01*
X88004462Y-92348497D01*
X88004461Y-92348492D01*
X88001023Y-92336659D01*
X87997012Y-92317295D01*
X87995467Y-92305064D01*
X87994474Y-92297203D01*
X87991557Y-92289836D01*
X87991556Y-92289831D01*
X87978198Y-92256092D01*
X87974354Y-92244865D01*
X87972232Y-92237561D01*
X87962018Y-92202407D01*
X87955781Y-92191861D01*
X87951707Y-92184972D01*
X87943012Y-92167224D01*
X87935552Y-92148383D01*
X87928761Y-92139035D01*
X87909564Y-92112613D01*
X87903048Y-92102693D01*
X87884580Y-92071465D01*
X87884578Y-92071462D01*
X87880542Y-92064638D01*
X87866218Y-92050314D01*
X87853383Y-92035287D01*
X87841472Y-92018893D01*
X87807406Y-91990711D01*
X87798628Y-91982722D01*
X87608648Y-91792742D01*
X87601113Y-91784462D01*
X87597000Y-91777982D01*
X87547347Y-91731355D01*
X87544506Y-91728601D01*
X87524770Y-91708865D01*
X87521573Y-91706385D01*
X87512551Y-91698680D01*
X87486100Y-91673841D01*
X87480321Y-91668414D01*
X87473375Y-91664595D01*
X87473372Y-91664593D01*
X87462566Y-91658652D01*
X87446047Y-91647801D01*
X87442169Y-91644793D01*
X87430041Y-91635386D01*
X87422772Y-91632241D01*
X87422768Y-91632238D01*
X87389463Y-91617826D01*
X87378813Y-91612609D01*
X87340060Y-91591305D01*
X87320437Y-91586267D01*
X87301734Y-91579863D01*
X87290420Y-91574967D01*
X87290419Y-91574967D01*
X87283145Y-91571819D01*
X87275322Y-91570580D01*
X87275312Y-91570577D01*
X87239476Y-91564901D01*
X87227856Y-91562495D01*
X87192711Y-91553472D01*
X87192710Y-91553472D01*
X87185030Y-91551500D01*
X87164776Y-91551500D01*
X87145065Y-91549949D01*
X87132886Y-91548020D01*
X87125057Y-91546780D01*
X87117165Y-91547526D01*
X87081039Y-91550941D01*
X87069181Y-91551500D01*
X86700175Y-91551500D01*
X86632054Y-91531498D01*
X86585561Y-91477842D01*
X86575457Y-91407568D01*
X86587217Y-91369674D01*
X86608672Y-91326263D01*
X86612469Y-91316672D01*
X86674377Y-91112910D01*
X86676555Y-91102837D01*
X86677986Y-91091962D01*
X86675775Y-91077778D01*
X86662617Y-91074000D01*
X85216000Y-91074000D01*
X85147879Y-91053998D01*
X85101386Y-91000342D01*
X85090000Y-90948000D01*
X85090000Y-90547885D01*
X85598000Y-90547885D01*
X85602475Y-90563124D01*
X85603865Y-90564329D01*
X85611548Y-90566000D01*
X86662344Y-90566000D01*
X86675875Y-90562027D01*
X86677180Y-90552947D01*
X86635214Y-90385875D01*
X86631894Y-90376124D01*
X86546972Y-90180814D01*
X86542105Y-90171739D01*
X86426426Y-89992926D01*
X86420136Y-89984757D01*
X86276806Y-89827240D01*
X86269273Y-89820215D01*
X86102139Y-89688222D01*
X86093552Y-89682517D01*
X85907117Y-89579599D01*
X85897705Y-89575369D01*
X85696959Y-89504280D01*
X85686988Y-89501646D01*
X85615837Y-89488972D01*
X85602540Y-89490432D01*
X85598000Y-89504989D01*
X85598000Y-90547885D01*
X85090000Y-90547885D01*
X85090000Y-89503102D01*
X85086082Y-89489758D01*
X85071806Y-89487771D01*
X85033324Y-89493660D01*
X85023288Y-89496051D01*
X84820868Y-89562212D01*
X84811359Y-89566209D01*
X84622463Y-89664542D01*
X84613738Y-89670036D01*
X84443433Y-89797905D01*
X84435726Y-89804748D01*
X84358478Y-89885584D01*
X84296954Y-89921014D01*
X84226042Y-89917557D01*
X84168255Y-89876311D01*
X84149402Y-89842763D01*
X84107767Y-89731703D01*
X84104615Y-89723295D01*
X84017261Y-89606739D01*
X83900705Y-89519385D01*
X83764316Y-89468255D01*
X83702134Y-89461500D01*
X81905866Y-89461500D01*
X81843684Y-89468255D01*
X81707295Y-89519385D01*
X81700110Y-89524770D01*
X81700108Y-89524771D01*
X81607065Y-89594503D01*
X81540558Y-89619351D01*
X81471176Y-89604298D01*
X81420946Y-89554124D01*
X81405500Y-89493677D01*
X81405500Y-88203267D01*
X81406027Y-88192084D01*
X81407702Y-88184591D01*
X81406805Y-88156032D01*
X81405562Y-88116501D01*
X81405500Y-88112543D01*
X81405500Y-88084644D01*
X81404996Y-88080653D01*
X81404063Y-88068811D01*
X81402923Y-88032536D01*
X81402674Y-88024611D01*
X81400462Y-88016997D01*
X81400461Y-88016992D01*
X81397023Y-88005159D01*
X81393012Y-87985795D01*
X81391467Y-87973564D01*
X81390474Y-87965703D01*
X81387557Y-87958336D01*
X81387556Y-87958331D01*
X81374198Y-87924592D01*
X81370354Y-87913365D01*
X81363085Y-87888347D01*
X81358018Y-87870907D01*
X81347707Y-87853472D01*
X81339012Y-87835724D01*
X81331552Y-87816883D01*
X81312322Y-87790414D01*
X81305564Y-87781113D01*
X81299048Y-87771193D01*
X81280580Y-87739965D01*
X81280578Y-87739962D01*
X81276542Y-87733138D01*
X81262221Y-87718817D01*
X81249380Y-87703783D01*
X81242131Y-87693806D01*
X81237472Y-87687393D01*
X81203395Y-87659202D01*
X81194616Y-87651212D01*
X79440405Y-85897000D01*
X79406379Y-85834688D01*
X79403500Y-85807905D01*
X79403499Y-85257037D01*
X79403499Y-85253770D01*
X79392616Y-85148871D01*
X79390437Y-85142340D01*
X79390436Y-85142335D01*
X79339420Y-84989422D01*
X79337102Y-84982474D01*
X79244797Y-84833311D01*
X79120653Y-84709383D01*
X79043394Y-84661760D01*
X78995901Y-84608988D01*
X78984477Y-84538916D01*
X79012751Y-84473792D01*
X79071745Y-84434293D01*
X79109510Y-84428500D01*
X83694000Y-84428500D01*
X83762121Y-84448502D01*
X83808614Y-84502158D01*
X83820000Y-84554500D01*
X83820000Y-88798400D01*
X88165500Y-88798400D01*
X88233621Y-88818402D01*
X88280114Y-88872058D01*
X88291500Y-88924400D01*
X88291500Y-109195600D01*
X88271498Y-109263721D01*
X88217842Y-109310214D01*
X88165500Y-109321600D01*
X83921600Y-109321600D01*
X83921600Y-113565500D01*
X83901598Y-113633621D01*
X83847942Y-113680114D01*
X83795600Y-113691500D01*
X43204400Y-113691500D01*
X43136279Y-113671498D01*
X43089786Y-113617842D01*
X43078400Y-113565500D01*
X43078400Y-109321600D01*
X38834500Y-109321600D01*
X38766379Y-109301598D01*
X38719886Y-109247942D01*
X38708500Y-109195600D01*
X38708500Y-98906500D01*
X39722500Y-98906500D01*
X39839882Y-98906500D01*
X39852493Y-98833391D01*
X39854076Y-98825663D01*
X39861357Y-98795041D01*
X39863422Y-98787426D01*
X39891245Y-98696210D01*
X39893781Y-98688741D01*
X39944911Y-98552352D01*
X39948353Y-98544080D01*
X39993483Y-98445623D01*
X39997503Y-98437615D01*
X40014659Y-98406280D01*
X40019238Y-98398580D01*
X40077860Y-98307531D01*
X40082975Y-98300176D01*
X40170329Y-98183620D01*
X40175954Y-98176646D01*
X40246897Y-98094820D01*
X40253003Y-98088264D01*
X40278264Y-98063003D01*
X40284820Y-98056897D01*
X40366646Y-97985954D01*
X40373620Y-97980329D01*
X40486500Y-97895730D01*
X40486500Y-97819298D01*
X49120500Y-97819298D01*
X49120500Y-97953185D01*
X49131749Y-97956824D01*
X49139354Y-97959556D01*
X49279411Y-98015008D01*
X49287272Y-98018434D01*
X49380819Y-98063053D01*
X49388427Y-98067005D01*
X49418224Y-98083794D01*
X49425548Y-98088256D01*
X49512199Y-98145174D01*
X49519203Y-98150123D01*
X49639189Y-98241198D01*
X49645839Y-98246613D01*
X49723947Y-98314752D01*
X49730212Y-98320605D01*
X49754395Y-98344788D01*
X49760248Y-98351053D01*
X49828387Y-98429161D01*
X49833802Y-98435811D01*
X49924877Y-98555797D01*
X49929826Y-98562801D01*
X49986744Y-98649452D01*
X49991206Y-98656776D01*
X50007995Y-98686573D01*
X50011947Y-98694181D01*
X50056566Y-98787728D01*
X50059992Y-98795589D01*
X50103904Y-98906500D01*
X50226633Y-98906500D01*
X50270449Y-98795834D01*
X50273875Y-98787975D01*
X50318498Y-98694419D01*
X50322451Y-98686809D01*
X50339240Y-98657013D01*
X50343701Y-98649689D01*
X50400613Y-98563049D01*
X50405562Y-98556046D01*
X50448957Y-98498875D01*
X50197980Y-98247897D01*
X50196180Y-98246408D01*
X50190241Y-98241172D01*
X50120472Y-98175653D01*
X50114874Y-98170055D01*
X50093254Y-98147031D01*
X50088021Y-98141095D01*
X50053521Y-98099392D01*
X50017763Y-98058833D01*
X50012718Y-98052735D01*
X49993360Y-98027780D01*
X49988707Y-98021376D01*
X49934911Y-97942221D01*
X49930669Y-97935537D01*
X49929473Y-97933515D01*
X49928450Y-97932107D01*
X49886080Y-97934327D01*
X49879487Y-97934500D01*
X49688513Y-97934500D01*
X49681920Y-97934327D01*
X49602281Y-97930154D01*
X49595705Y-97929637D01*
X49569508Y-97926884D01*
X49562967Y-97926023D01*
X49484176Y-97913544D01*
X49477689Y-97912342D01*
X49290888Y-97872636D01*
X49284474Y-97871096D01*
X49207430Y-97850452D01*
X49201104Y-97848578D01*
X49176052Y-97840438D01*
X49169834Y-97838236D01*
X49120500Y-97819298D01*
X40486500Y-97819298D01*
X40486500Y-97380500D01*
X39722500Y-97380500D01*
X39722500Y-98906500D01*
X38708500Y-98906500D01*
X38708500Y-88924400D01*
X38728502Y-88856279D01*
X38782158Y-88809786D01*
X38834500Y-88798400D01*
X43129200Y-88798400D01*
X43129200Y-85453605D01*
X45265061Y-85453605D01*
X45265101Y-85467706D01*
X45272370Y-85471000D01*
X46292885Y-85471000D01*
X46308124Y-85466525D01*
X46309329Y-85465135D01*
X46311000Y-85457452D01*
X46311000Y-85452885D01*
X46819000Y-85452885D01*
X46823475Y-85468124D01*
X46824865Y-85469329D01*
X46832548Y-85471000D01*
X47851878Y-85471000D01*
X47865409Y-85467027D01*
X47866544Y-85459129D01*
X47864939Y-85453605D01*
X52465061Y-85453605D01*
X52465101Y-85467706D01*
X52472370Y-85471000D01*
X53492885Y-85471000D01*
X53508124Y-85466525D01*
X53509329Y-85465135D01*
X53511000Y-85457452D01*
X53511000Y-85452885D01*
X54019000Y-85452885D01*
X54023475Y-85468124D01*
X54024865Y-85469329D01*
X54032548Y-85471000D01*
X55051878Y-85471000D01*
X55065409Y-85467027D01*
X55066544Y-85459129D01*
X55025893Y-85319210D01*
X55019648Y-85304779D01*
X54943089Y-85175322D01*
X54933449Y-85162896D01*
X54827104Y-85056551D01*
X54814678Y-85046911D01*
X54685221Y-84970352D01*
X54670790Y-84964107D01*
X54524935Y-84921731D01*
X54512333Y-84919430D01*
X54483916Y-84917193D01*
X54478986Y-84917000D01*
X54037115Y-84917000D01*
X54021876Y-84921475D01*
X54020671Y-84922865D01*
X54019000Y-84930548D01*
X54019000Y-85452885D01*
X53511000Y-85452885D01*
X53511000Y-84935116D01*
X53506525Y-84919877D01*
X53505135Y-84918672D01*
X53497452Y-84917001D01*
X53051017Y-84917001D01*
X53046080Y-84917195D01*
X53017664Y-84919430D01*
X53005069Y-84921730D01*
X52859210Y-84964107D01*
X52844779Y-84970352D01*
X52715322Y-85046911D01*
X52702896Y-85056551D01*
X52596551Y-85162896D01*
X52586911Y-85175322D01*
X52510352Y-85304779D01*
X52504107Y-85319210D01*
X52465061Y-85453605D01*
X47864939Y-85453605D01*
X47825893Y-85319210D01*
X47819648Y-85304779D01*
X47743089Y-85175322D01*
X47733449Y-85162896D01*
X47627104Y-85056551D01*
X47614678Y-85046911D01*
X47485221Y-84970352D01*
X47470790Y-84964107D01*
X47324935Y-84921731D01*
X47312333Y-84919430D01*
X47283916Y-84917193D01*
X47278986Y-84917000D01*
X46837115Y-84917000D01*
X46821876Y-84921475D01*
X46820671Y-84922865D01*
X46819000Y-84930548D01*
X46819000Y-85452885D01*
X46311000Y-85452885D01*
X46311000Y-84935116D01*
X46306525Y-84919877D01*
X46305135Y-84918672D01*
X46297452Y-84917001D01*
X45851017Y-84917001D01*
X45846080Y-84917195D01*
X45817664Y-84919430D01*
X45805069Y-84921730D01*
X45659210Y-84964107D01*
X45644779Y-84970352D01*
X45515322Y-85046911D01*
X45502896Y-85056551D01*
X45396551Y-85162896D01*
X45386911Y-85175322D01*
X45310352Y-85304779D01*
X45304107Y-85319210D01*
X45265061Y-85453605D01*
X43129200Y-85453605D01*
X43129200Y-84554500D01*
X43149202Y-84486379D01*
X43202858Y-84439886D01*
X43255200Y-84428500D01*
X56667389Y-84428500D01*
X56735510Y-84448502D01*
G37*
%TD.AperFunction*%
%TA.AperFunction,Conductor*%
G36*
X86696108Y-96575068D02*
G01*
X86736273Y-96633612D01*
X86742500Y-96672734D01*
X86742500Y-104724405D01*
X86722498Y-104792526D01*
X86705595Y-104813500D01*
X86661877Y-104857218D01*
X86599565Y-104891244D01*
X86528750Y-104886179D01*
X86471914Y-104843632D01*
X86447206Y-104778447D01*
X86445887Y-104762398D01*
X86429852Y-104567361D01*
X86375431Y-104350702D01*
X86286354Y-104145840D01*
X86230750Y-104059890D01*
X86167822Y-103962617D01*
X86167820Y-103962614D01*
X86165014Y-103958277D01*
X86014670Y-103793051D01*
X86010619Y-103789852D01*
X86010615Y-103789848D01*
X85843414Y-103657800D01*
X85843410Y-103657798D01*
X85839359Y-103654598D01*
X85797569Y-103631529D01*
X85747598Y-103581097D01*
X85732826Y-103511654D01*
X85757942Y-103445248D01*
X85785294Y-103418641D01*
X85960328Y-103293792D01*
X85968200Y-103287139D01*
X86119052Y-103136812D01*
X86125730Y-103128965D01*
X86250003Y-102956020D01*
X86255313Y-102947183D01*
X86349670Y-102756267D01*
X86353469Y-102746672D01*
X86415377Y-102542910D01*
X86417555Y-102532837D01*
X86418986Y-102521962D01*
X86416775Y-102507778D01*
X86403617Y-102504000D01*
X83768225Y-102504000D01*
X83754694Y-102507973D01*
X83753257Y-102517966D01*
X83783565Y-102652446D01*
X83786645Y-102662275D01*
X83866770Y-102859603D01*
X83871413Y-102868794D01*
X83982694Y-103050388D01*
X83988777Y-103058699D01*
X84128213Y-103219667D01*
X84135580Y-103226883D01*
X84299434Y-103362916D01*
X84307881Y-103368831D01*
X84376969Y-103409203D01*
X84425693Y-103460842D01*
X84438764Y-103530625D01*
X84412033Y-103596396D01*
X84371584Y-103629752D01*
X84358607Y-103636507D01*
X84354474Y-103639610D01*
X84354471Y-103639612D01*
X84186948Y-103765392D01*
X84179965Y-103770635D01*
X84176393Y-103774373D01*
X84029946Y-103927621D01*
X84025629Y-103932138D01*
X84022715Y-103936410D01*
X84022714Y-103936411D01*
X83910095Y-104101504D01*
X83855184Y-104146507D01*
X83806007Y-104156500D01*
X82752595Y-104156500D01*
X82684474Y-104136498D01*
X82663500Y-104119595D01*
X79990405Y-101446500D01*
X82140500Y-101446500D01*
X82848891Y-101446500D01*
X82849667Y-101444091D01*
X82851350Y-101439208D01*
X82858479Y-101419830D01*
X82860363Y-101415016D01*
X82884335Y-101357282D01*
X82886415Y-101352550D01*
X82905839Y-101310704D01*
X82904659Y-101308720D01*
X82887503Y-101277385D01*
X82883483Y-101269377D01*
X82838353Y-101170920D01*
X82834911Y-101162648D01*
X82783781Y-101026259D01*
X82781245Y-101018790D01*
X82753422Y-100927574D01*
X82751357Y-100919959D01*
X82744076Y-100889337D01*
X82742493Y-100881609D01*
X82726283Y-100787636D01*
X82725186Y-100779826D01*
X82718431Y-100717644D01*
X82718109Y-100714252D01*
X82714767Y-100673167D01*
X82714536Y-100669765D01*
X82713799Y-100656157D01*
X82713661Y-100652751D01*
X82712546Y-100611542D01*
X82712500Y-100608134D01*
X82712500Y-99920500D01*
X82140500Y-99920500D01*
X82140500Y-101446500D01*
X79990405Y-101446500D01*
X78464405Y-99920500D01*
X79898415Y-99920500D01*
X81126500Y-101148585D01*
X81126500Y-99920500D01*
X79898415Y-99920500D01*
X78464405Y-99920500D01*
X78163122Y-99619217D01*
X78129096Y-99556905D01*
X78126907Y-99543292D01*
X78126748Y-99541774D01*
X78120320Y-99480615D01*
X78110232Y-99384635D01*
X78110232Y-99384633D01*
X78109542Y-99378072D01*
X78050527Y-99196444D01*
X78030800Y-99162275D01*
X77998809Y-99106866D01*
X77955040Y-99031056D01*
X77893761Y-98962998D01*
X77831675Y-98894045D01*
X77831674Y-98894044D01*
X77827253Y-98889134D01*
X77672752Y-98776882D01*
X77666724Y-98774198D01*
X77666722Y-98774197D01*
X77504319Y-98701891D01*
X77504318Y-98701891D01*
X77498288Y-98699206D01*
X77393935Y-98677025D01*
X77331462Y-98643296D01*
X77297140Y-98581147D01*
X77301868Y-98510308D01*
X77344144Y-98453270D01*
X77410545Y-98428143D01*
X77420132Y-98427778D01*
X83674773Y-98427778D01*
X83742894Y-98447780D01*
X83789387Y-98501436D01*
X83799491Y-98571710D01*
X83786617Y-98610317D01*
X83784385Y-98613295D01*
X83781234Y-98621701D01*
X83781232Y-98621704D01*
X83752178Y-98699206D01*
X83733255Y-98749684D01*
X83726500Y-98811866D01*
X83726500Y-100608134D01*
X83733255Y-100670316D01*
X83784385Y-100806705D01*
X83871739Y-100923261D01*
X83988295Y-101010615D01*
X83996704Y-101013767D01*
X83996705Y-101013768D01*
X84105960Y-101054726D01*
X84162725Y-101097367D01*
X84187425Y-101163929D01*
X84172218Y-101233278D01*
X84152825Y-101259759D01*
X84029590Y-101388717D01*
X84023104Y-101396727D01*
X83903098Y-101572649D01*
X83898000Y-101581623D01*
X83808338Y-101774783D01*
X83804775Y-101784470D01*
X83749389Y-101984183D01*
X83750912Y-101992607D01*
X83763292Y-101996000D01*
X86403344Y-101996000D01*
X86416875Y-101992027D01*
X86418180Y-101982947D01*
X86376214Y-101815875D01*
X86372894Y-101806124D01*
X86287972Y-101610814D01*
X86283105Y-101601739D01*
X86167426Y-101422926D01*
X86161136Y-101414757D01*
X86017293Y-101256677D01*
X85986241Y-101192831D01*
X85994635Y-101122333D01*
X86039812Y-101067564D01*
X86066256Y-101053895D01*
X86154947Y-101020646D01*
X86181705Y-101010615D01*
X86298261Y-100923261D01*
X86385615Y-100806705D01*
X86436745Y-100670316D01*
X86443500Y-100608134D01*
X86443500Y-98811866D01*
X86436745Y-98749684D01*
X86385615Y-98613295D01*
X86298261Y-98496739D01*
X86181705Y-98409385D01*
X86045316Y-98358255D01*
X85983134Y-98351500D01*
X84699362Y-98351500D01*
X84631241Y-98331498D01*
X84584748Y-98277842D01*
X84574644Y-98207568D01*
X84588943Y-98164806D01*
X84590271Y-98162390D01*
X84603603Y-98142772D01*
X84603802Y-98142532D01*
X84603806Y-98142525D01*
X84608855Y-98136422D01*
X84632769Y-98085602D01*
X84636351Y-98078570D01*
X84663417Y-98029338D01*
X84665387Y-98021663D01*
X84665390Y-98021657D01*
X84665466Y-98021359D01*
X84673498Y-97999050D01*
X84673628Y-97998775D01*
X84673631Y-97998767D01*
X84677005Y-97991596D01*
X84687528Y-97936429D01*
X84689254Y-97928707D01*
X84689723Y-97926884D01*
X84703222Y-97874308D01*
X84703222Y-97866071D01*
X84705454Y-97842462D01*
X84705512Y-97842159D01*
X84705512Y-97842155D01*
X84706997Y-97834372D01*
X84703471Y-97778327D01*
X84703222Y-97770416D01*
X84703222Y-97292555D01*
X84723224Y-97224434D01*
X84776880Y-97177941D01*
X84847154Y-97167837D01*
X84874170Y-97174845D01*
X84963692Y-97209030D01*
X84968760Y-97210061D01*
X84968763Y-97210062D01*
X85045809Y-97225737D01*
X85182597Y-97253567D01*
X85187772Y-97253757D01*
X85187774Y-97253757D01*
X85400673Y-97261564D01*
X85400677Y-97261564D01*
X85405837Y-97261753D01*
X85410957Y-97261097D01*
X85410959Y-97261097D01*
X85622288Y-97234025D01*
X85622289Y-97234025D01*
X85627416Y-97233368D01*
X85632366Y-97231883D01*
X85836429Y-97170661D01*
X85836434Y-97170659D01*
X85841384Y-97169174D01*
X86041994Y-97070896D01*
X86223860Y-96941173D01*
X86244606Y-96920500D01*
X86378435Y-96787137D01*
X86382096Y-96783489D01*
X86398837Y-96760192D01*
X86512453Y-96602077D01*
X86513745Y-96603006D01*
X86560731Y-96559748D01*
X86630668Y-96547533D01*
X86696108Y-96575068D01*
G37*
%TD.AperFunction*%
%TA.AperFunction,Conductor*%
G36*
X69267012Y-91346970D02*
G01*
X69273595Y-91353099D01*
X69614078Y-91693582D01*
X69648104Y-91755894D01*
X69650292Y-91769503D01*
X69657175Y-91834990D01*
X69664835Y-91907865D01*
X69667658Y-91934728D01*
X69726673Y-92116356D01*
X69729976Y-92122078D01*
X69729977Y-92122079D01*
X69735210Y-92131143D01*
X69822160Y-92281744D01*
X69826578Y-92286651D01*
X69826579Y-92286652D01*
X69939633Y-92412211D01*
X69949947Y-92423666D01*
X70021853Y-92475909D01*
X70077159Y-92516091D01*
X70104448Y-92535918D01*
X70110476Y-92538602D01*
X70110478Y-92538603D01*
X70206389Y-92581305D01*
X70278912Y-92613594D01*
X70358820Y-92630579D01*
X70459256Y-92651928D01*
X70459261Y-92651928D01*
X70465713Y-92653300D01*
X70656687Y-92653300D01*
X70663139Y-92651928D01*
X70663144Y-92651928D01*
X70763580Y-92630579D01*
X70843488Y-92613594D01*
X70940300Y-92570491D01*
X70986732Y-92549818D01*
X71057099Y-92540384D01*
X71121396Y-92570491D01*
X71159210Y-92630579D01*
X71163308Y-92651921D01*
X71169252Y-92709206D01*
X71169974Y-92716166D01*
X71172155Y-92722702D01*
X71172155Y-92722704D01*
X71182428Y-92753496D01*
X71225950Y-92883946D01*
X71229806Y-92890177D01*
X71291301Y-92989552D01*
X71310139Y-93058004D01*
X71300788Y-93100221D01*
X71301473Y-93100444D01*
X71242458Y-93282072D01*
X71241768Y-93288633D01*
X71241768Y-93288635D01*
X71228899Y-93411080D01*
X71222496Y-93472000D01*
X71223186Y-93478565D01*
X71241471Y-93652534D01*
X71242458Y-93661928D01*
X71301473Y-93843556D01*
X71304776Y-93849278D01*
X71304777Y-93849279D01*
X71328383Y-93890165D01*
X71396960Y-94008944D01*
X71401378Y-94013851D01*
X71401379Y-94013852D01*
X71446664Y-94064146D01*
X71477382Y-94128153D01*
X71468617Y-94198607D01*
X71442201Y-94237474D01*
X71323366Y-94356516D01*
X71323362Y-94356521D01*
X71318195Y-94361697D01*
X71314355Y-94367927D01*
X71314354Y-94367928D01*
X71236188Y-94494737D01*
X71225385Y-94512262D01*
X71208517Y-94563117D01*
X71171913Y-94673477D01*
X71169703Y-94680139D01*
X71169003Y-94686975D01*
X71169002Y-94686978D01*
X71165363Y-94722497D01*
X71159000Y-94784600D01*
X71159000Y-95357905D01*
X71138998Y-95426026D01*
X71122095Y-95447000D01*
X70459500Y-96109595D01*
X70397188Y-96143621D01*
X70370405Y-96146500D01*
X68961589Y-96146500D01*
X68893468Y-96126498D01*
X68886024Y-96121326D01*
X68831985Y-96080826D01*
X68789470Y-96023967D01*
X68784444Y-95953148D01*
X68818504Y-95890855D01*
X68831985Y-95879174D01*
X68834915Y-95876978D01*
X68913261Y-95818261D01*
X68936539Y-95787202D01*
X68944608Y-95776435D01*
X69001467Y-95733920D01*
X69031074Y-95728587D01*
X69055123Y-95721525D01*
X69056328Y-95720135D01*
X69057999Y-95712452D01*
X69057999Y-95660331D01*
X69057629Y-95653510D01*
X69051252Y-95594793D01*
X69053998Y-95594495D01*
X69053940Y-95565554D01*
X69051745Y-95565316D01*
X69058131Y-95506531D01*
X69058500Y-95503134D01*
X69058500Y-94856866D01*
X69051745Y-94794684D01*
X69054174Y-94794420D01*
X69054174Y-94765580D01*
X69051745Y-94765316D01*
X69058131Y-94706531D01*
X69058500Y-94703134D01*
X69058500Y-94056866D01*
X69051745Y-93994684D01*
X69054174Y-93994420D01*
X69054174Y-93965580D01*
X69051745Y-93965316D01*
X69058131Y-93906531D01*
X69058500Y-93903134D01*
X69058500Y-93256866D01*
X69051745Y-93194684D01*
X69054174Y-93194420D01*
X69054174Y-93165580D01*
X69051745Y-93165316D01*
X69058131Y-93106531D01*
X69058500Y-93103134D01*
X69058500Y-92456866D01*
X69058094Y-92453124D01*
X69051745Y-92394684D01*
X69054174Y-92394420D01*
X69054174Y-92365580D01*
X69051745Y-92365316D01*
X69058131Y-92306531D01*
X69058500Y-92303134D01*
X69058500Y-91656866D01*
X69051745Y-91594684D01*
X69054174Y-91594420D01*
X69054174Y-91565580D01*
X69051745Y-91565316D01*
X69058131Y-91506531D01*
X69058500Y-91503134D01*
X69058500Y-91442194D01*
X69078502Y-91374073D01*
X69132158Y-91327580D01*
X69202432Y-91317476D01*
X69267012Y-91346970D01*
G37*
%TD.AperFunction*%
%TA.AperFunction,Conductor*%
G36*
X66483621Y-95033502D02*
G01*
X66530114Y-95087158D01*
X66541500Y-95139500D01*
X66541500Y-95503134D01*
X66541869Y-95506531D01*
X66548255Y-95565316D01*
X66546116Y-95565548D01*
X66546166Y-95594512D01*
X66548748Y-95594793D01*
X66542369Y-95653514D01*
X66542000Y-95660328D01*
X66542000Y-95707885D01*
X66546475Y-95723124D01*
X66547865Y-95724329D01*
X66568783Y-95728879D01*
X66568518Y-95730097D01*
X66622687Y-95746002D01*
X66655392Y-95776435D01*
X66663462Y-95787202D01*
X66686739Y-95818261D01*
X66765085Y-95876978D01*
X66768015Y-95879174D01*
X66810530Y-95936033D01*
X66815556Y-96006852D01*
X66781496Y-96069145D01*
X66768015Y-96080826D01*
X66713976Y-96121326D01*
X66647470Y-96146174D01*
X66638411Y-96146500D01*
X64659500Y-96146500D01*
X64591379Y-96126498D01*
X64544886Y-96072842D01*
X64533500Y-96020500D01*
X64533500Y-95458115D01*
X64553502Y-95389994D01*
X64607158Y-95343501D01*
X64677432Y-95333397D01*
X64710750Y-95343009D01*
X64735677Y-95354108D01*
X64735685Y-95354111D01*
X64741712Y-95356794D01*
X64835113Y-95376647D01*
X64922056Y-95395128D01*
X64922061Y-95395128D01*
X64928513Y-95396500D01*
X65119487Y-95396500D01*
X65125939Y-95395128D01*
X65125944Y-95395128D01*
X65212887Y-95376647D01*
X65306288Y-95356794D01*
X65317954Y-95351600D01*
X65474722Y-95281803D01*
X65474724Y-95281802D01*
X65480752Y-95279118D01*
X65509044Y-95258563D01*
X65625109Y-95174236D01*
X65635253Y-95166866D01*
X65735807Y-95055189D01*
X65796252Y-95017950D01*
X65829442Y-95013500D01*
X66415500Y-95013500D01*
X66483621Y-95033502D01*
G37*
%TD.AperFunction*%
%TA.AperFunction,Conductor*%
G36*
X75510688Y-91433102D02*
G01*
X75557181Y-91486758D01*
X75567911Y-91551942D01*
X75562328Y-91606438D01*
X75562000Y-91612855D01*
X75562000Y-91837885D01*
X75566475Y-91853124D01*
X75567865Y-91854329D01*
X75575548Y-91856000D01*
X76710500Y-91856000D01*
X76778621Y-91876002D01*
X76825114Y-91929658D01*
X76836500Y-91982000D01*
X76836500Y-93299884D01*
X76840975Y-93315123D01*
X76842365Y-93316328D01*
X76850048Y-93317999D01*
X76892095Y-93317999D01*
X76898614Y-93317662D01*
X76994206Y-93307743D01*
X77007600Y-93304851D01*
X77161784Y-93253412D01*
X77174962Y-93247239D01*
X77312807Y-93161937D01*
X77324208Y-93152901D01*
X77405430Y-93071538D01*
X77467713Y-93037459D01*
X77538533Y-93042462D01*
X77583620Y-93071383D01*
X77666512Y-93154130D01*
X77666517Y-93154134D01*
X77671697Y-93159305D01*
X77677927Y-93163145D01*
X77677928Y-93163146D01*
X77815288Y-93247816D01*
X77822262Y-93252115D01*
X77897478Y-93277063D01*
X77983611Y-93305632D01*
X77983613Y-93305632D01*
X77990139Y-93307797D01*
X77996975Y-93308497D01*
X77996978Y-93308498D01*
X78040031Y-93312909D01*
X78094600Y-93318500D01*
X78720400Y-93318500D01*
X78723646Y-93318163D01*
X78723650Y-93318163D01*
X78819308Y-93308238D01*
X78819312Y-93308237D01*
X78826166Y-93307526D01*
X78832702Y-93305345D01*
X78832704Y-93305345D01*
X78925080Y-93274526D01*
X78996030Y-93271942D01*
X79054051Y-93304955D01*
X79471622Y-93722526D01*
X79505648Y-93784838D01*
X79500583Y-93855653D01*
X79458036Y-93912489D01*
X79406039Y-93932871D01*
X79406513Y-93935100D01*
X79219712Y-93974806D01*
X79213682Y-93977491D01*
X79213681Y-93977491D01*
X79051278Y-94049797D01*
X79051276Y-94049798D01*
X79045248Y-94052482D01*
X79039907Y-94056362D01*
X79039906Y-94056363D01*
X78997050Y-94087500D01*
X78890747Y-94164734D01*
X78886326Y-94169644D01*
X78886325Y-94169645D01*
X78808492Y-94256088D01*
X78762960Y-94306656D01*
X78667473Y-94472044D01*
X78608458Y-94653672D01*
X78607768Y-94660233D01*
X78607768Y-94660235D01*
X78603555Y-94700322D01*
X78597062Y-94762104D01*
X78591093Y-94818893D01*
X78564080Y-94884550D01*
X78554878Y-94894818D01*
X77396900Y-96052795D01*
X77334588Y-96086821D01*
X77307805Y-96089700D01*
X75123029Y-96089700D01*
X75054908Y-96069698D01*
X75008415Y-96016042D01*
X74998311Y-95945768D01*
X75003436Y-95924032D01*
X75012638Y-95896290D01*
X75015505Y-95882914D01*
X75025172Y-95788562D01*
X75025500Y-95782146D01*
X75025500Y-95557115D01*
X75021025Y-95541876D01*
X75019635Y-95540671D01*
X75011952Y-95539000D01*
X73877000Y-95539000D01*
X73808879Y-95518998D01*
X73762386Y-95465342D01*
X73751000Y-95413000D01*
X73751000Y-95012885D01*
X74259000Y-95012885D01*
X74263475Y-95028124D01*
X74264865Y-95029329D01*
X74272548Y-95031000D01*
X75007384Y-95031000D01*
X75022623Y-95026525D01*
X75023828Y-95025135D01*
X75025499Y-95017452D01*
X75025499Y-94787905D01*
X75025162Y-94781386D01*
X75015243Y-94685794D01*
X75012351Y-94672400D01*
X74960912Y-94518216D01*
X74954739Y-94505038D01*
X74869437Y-94367193D01*
X74860401Y-94355792D01*
X74745671Y-94241261D01*
X74734260Y-94232249D01*
X74596257Y-94147184D01*
X74583076Y-94141037D01*
X74428790Y-94089862D01*
X74415414Y-94086995D01*
X74321062Y-94077328D01*
X74314645Y-94077000D01*
X74277115Y-94077000D01*
X74261876Y-94081475D01*
X74260671Y-94082865D01*
X74259000Y-94090548D01*
X74259000Y-95012885D01*
X73751000Y-95012885D01*
X73751000Y-94095116D01*
X73746525Y-94079877D01*
X73745135Y-94078672D01*
X73737452Y-94077001D01*
X73695405Y-94077001D01*
X73688886Y-94077338D01*
X73593294Y-94087257D01*
X73579900Y-94090149D01*
X73425716Y-94141588D01*
X73412538Y-94147761D01*
X73274693Y-94233063D01*
X73263292Y-94242099D01*
X73182070Y-94323462D01*
X73119787Y-94357541D01*
X73048967Y-94352538D01*
X73003880Y-94323617D01*
X72920988Y-94240870D01*
X72920983Y-94240866D01*
X72915803Y-94235695D01*
X72909569Y-94231852D01*
X72886917Y-94217889D01*
X72839423Y-94165117D01*
X72827999Y-94095046D01*
X72859393Y-94026322D01*
X72875040Y-94008944D01*
X72943617Y-93890165D01*
X72967223Y-93849279D01*
X72967224Y-93849278D01*
X72970527Y-93843556D01*
X73029542Y-93661928D01*
X73030530Y-93652534D01*
X73048814Y-93478565D01*
X73049504Y-93472000D01*
X73043101Y-93411080D01*
X73030232Y-93288635D01*
X73030232Y-93288633D01*
X73029542Y-93282072D01*
X73016983Y-93243419D01*
X73014955Y-93172453D01*
X73051618Y-93111655D01*
X73115330Y-93080330D01*
X73185863Y-93088422D01*
X73225834Y-93115311D01*
X73264329Y-93153739D01*
X73275740Y-93162751D01*
X73413743Y-93247816D01*
X73426924Y-93253963D01*
X73581210Y-93305138D01*
X73594586Y-93308005D01*
X73688938Y-93317672D01*
X73695354Y-93318000D01*
X73732885Y-93318000D01*
X73748124Y-93313525D01*
X73749329Y-93312135D01*
X73751000Y-93304452D01*
X73751000Y-93299884D01*
X74259000Y-93299884D01*
X74263475Y-93315123D01*
X74264865Y-93316328D01*
X74272548Y-93317999D01*
X74314595Y-93317999D01*
X74321114Y-93317662D01*
X74416706Y-93307743D01*
X74430100Y-93304851D01*
X74584284Y-93253412D01*
X74597462Y-93247239D01*
X74735307Y-93161937D01*
X74746708Y-93152901D01*
X74861239Y-93038171D01*
X74870251Y-93026760D01*
X74955316Y-92888757D01*
X74961463Y-92875576D01*
X75012638Y-92721290D01*
X75015505Y-92707914D01*
X75025172Y-92613562D01*
X75025500Y-92607146D01*
X75025500Y-92607095D01*
X75562001Y-92607095D01*
X75562338Y-92613614D01*
X75572257Y-92709206D01*
X75575149Y-92722600D01*
X75626588Y-92876784D01*
X75632761Y-92889962D01*
X75718063Y-93027807D01*
X75727099Y-93039208D01*
X75841829Y-93153739D01*
X75853240Y-93162751D01*
X75991243Y-93247816D01*
X76004424Y-93253963D01*
X76158710Y-93305138D01*
X76172086Y-93308005D01*
X76266438Y-93317672D01*
X76272854Y-93318000D01*
X76310385Y-93318000D01*
X76325624Y-93313525D01*
X76326829Y-93312135D01*
X76328500Y-93304452D01*
X76328500Y-92382115D01*
X76324025Y-92366876D01*
X76322635Y-92365671D01*
X76314952Y-92364000D01*
X75580116Y-92364000D01*
X75564877Y-92368475D01*
X75563672Y-92369865D01*
X75562001Y-92377548D01*
X75562001Y-92607095D01*
X75025500Y-92607095D01*
X75025500Y-92382115D01*
X75021025Y-92366876D01*
X75019635Y-92365671D01*
X75011952Y-92364000D01*
X74277115Y-92364000D01*
X74261876Y-92368475D01*
X74260671Y-92369865D01*
X74259000Y-92377548D01*
X74259000Y-93299884D01*
X73751000Y-93299884D01*
X73751000Y-91982000D01*
X73771002Y-91913879D01*
X73824658Y-91867386D01*
X73877000Y-91856000D01*
X75007384Y-91856000D01*
X75022623Y-91851525D01*
X75023828Y-91850135D01*
X75025499Y-91842452D01*
X75025499Y-91612905D01*
X75025162Y-91606389D01*
X75019529Y-91552104D01*
X75032393Y-91482283D01*
X75080964Y-91430501D01*
X75144856Y-91413100D01*
X75442567Y-91413100D01*
X75510688Y-91433102D01*
G37*
%TD.AperFunction*%
%TA.AperFunction,Conductor*%
G36*
X60948806Y-92494962D02*
G01*
X61008016Y-92534138D01*
X61036645Y-92599106D01*
X61037700Y-92615374D01*
X61037700Y-94966776D01*
X61031533Y-95005711D01*
X60980858Y-95161672D01*
X60960896Y-95351600D01*
X60961586Y-95358165D01*
X60973585Y-95472330D01*
X60960813Y-95542168D01*
X60912311Y-95594015D01*
X60848275Y-95611500D01*
X60813713Y-95611500D01*
X60807261Y-95612872D01*
X60807256Y-95612872D01*
X60722740Y-95630837D01*
X60626912Y-95651206D01*
X60620880Y-95653891D01*
X60620817Y-95653912D01*
X60549849Y-95655940D01*
X60489051Y-95619278D01*
X60457726Y-95555566D01*
X60456617Y-95520474D01*
X60458131Y-95506538D01*
X60458132Y-95506524D01*
X60458500Y-95503134D01*
X60458500Y-94856866D01*
X60451745Y-94794684D01*
X60454174Y-94794420D01*
X60454174Y-94765580D01*
X60451745Y-94765316D01*
X60458131Y-94706531D01*
X60458500Y-94703134D01*
X60458500Y-94056866D01*
X60451745Y-93994684D01*
X60453884Y-93994452D01*
X60453834Y-93965488D01*
X60451252Y-93965207D01*
X60457631Y-93906486D01*
X60458000Y-93899672D01*
X60458000Y-93852115D01*
X60453525Y-93836876D01*
X60452135Y-93835671D01*
X60431217Y-93831121D01*
X60431482Y-93829903D01*
X60377313Y-93813998D01*
X60344608Y-93783565D01*
X60318643Y-93748920D01*
X60318642Y-93748919D01*
X60313261Y-93741739D01*
X60231985Y-93680826D01*
X60189470Y-93623967D01*
X60184444Y-93553148D01*
X60218504Y-93490855D01*
X60231985Y-93479174D01*
X60241557Y-93472000D01*
X60313261Y-93418261D01*
X60319946Y-93409342D01*
X60344608Y-93376435D01*
X60401467Y-93333920D01*
X60431074Y-93328587D01*
X60455123Y-93321525D01*
X60456328Y-93320135D01*
X60457999Y-93312452D01*
X60457999Y-93260331D01*
X60457629Y-93253510D01*
X60451252Y-93194793D01*
X60453998Y-93194495D01*
X60453940Y-93165554D01*
X60451745Y-93165316D01*
X60458131Y-93106531D01*
X60458500Y-93103134D01*
X60458500Y-92649426D01*
X60478502Y-92581305D01*
X60532158Y-92534812D01*
X60599418Y-92524312D01*
X60617216Y-92526434D01*
X60623330Y-92527163D01*
X60629465Y-92526691D01*
X60629467Y-92526691D01*
X60804605Y-92513215D01*
X60804609Y-92513214D01*
X60810747Y-92512742D01*
X60829493Y-92507508D01*
X60877816Y-92494016D01*
X60948806Y-92494962D01*
G37*
%TD.AperFunction*%
%TA.AperFunction,Conductor*%
G36*
X75898599Y-84448502D02*
G01*
X75945092Y-84502158D01*
X75955196Y-84572432D01*
X75925702Y-84637012D01*
X75896781Y-84661644D01*
X75818311Y-84710203D01*
X75694383Y-84834347D01*
X75602339Y-84983671D01*
X75600034Y-84990619D01*
X75600034Y-84990620D01*
X75549679Y-85142436D01*
X75547115Y-85150165D01*
X75536500Y-85253769D01*
X75536501Y-86266230D01*
X75547384Y-86371129D01*
X75549563Y-86377660D01*
X75549564Y-86377665D01*
X75586575Y-86488599D01*
X75602898Y-86537526D01*
X75695203Y-86686689D01*
X75819347Y-86810617D01*
X75822071Y-86812296D01*
X75862155Y-86868832D01*
X75869000Y-86909797D01*
X75869000Y-87752366D01*
X75848998Y-87820487D01*
X75809304Y-87859509D01*
X75765652Y-87886522D01*
X75760479Y-87891704D01*
X75748746Y-87903457D01*
X75640695Y-88011697D01*
X75636855Y-88017927D01*
X75636854Y-88017928D01*
X75575047Y-88118198D01*
X75547885Y-88162262D01*
X75528174Y-88221688D01*
X75500520Y-88305065D01*
X75492203Y-88330139D01*
X75491503Y-88336975D01*
X75491502Y-88336978D01*
X75488722Y-88364114D01*
X75481500Y-88434600D01*
X75481500Y-89435400D01*
X75481837Y-89438646D01*
X75481837Y-89438650D01*
X75490773Y-89524771D01*
X75492474Y-89541166D01*
X75494655Y-89547702D01*
X75494655Y-89547704D01*
X75538111Y-89677956D01*
X75548450Y-89708946D01*
X75641522Y-89859348D01*
X75679132Y-89896892D01*
X75713226Y-89930927D01*
X75747305Y-89993209D01*
X75742302Y-90064029D01*
X75699805Y-90120902D01*
X75633306Y-90145771D01*
X75624208Y-90146100D01*
X74840826Y-90146100D01*
X74772705Y-90126098D01*
X74726212Y-90072442D01*
X74716108Y-90002168D01*
X74745602Y-89937588D01*
X74751653Y-89931082D01*
X74819134Y-89863483D01*
X74824305Y-89858303D01*
X74847783Y-89820215D01*
X74913275Y-89713968D01*
X74913276Y-89713966D01*
X74917115Y-89707738D01*
X74943989Y-89626714D01*
X74970632Y-89546389D01*
X74970632Y-89546387D01*
X74972797Y-89539861D01*
X74975642Y-89512100D01*
X74983172Y-89438598D01*
X74983500Y-89435400D01*
X74983500Y-88434600D01*
X74983163Y-88431350D01*
X74973238Y-88335692D01*
X74973237Y-88335688D01*
X74972526Y-88328834D01*
X74916550Y-88161054D01*
X74845271Y-88045869D01*
X74826433Y-87977417D01*
X74832582Y-87940630D01*
X74839587Y-87919072D01*
X74856042Y-87868428D01*
X74856980Y-87859510D01*
X74875314Y-87685065D01*
X74876004Y-87678500D01*
X74867464Y-87597243D01*
X74856732Y-87495135D01*
X74856732Y-87495133D01*
X74856042Y-87488572D01*
X74797027Y-87306944D01*
X74787421Y-87290305D01*
X74740498Y-87209033D01*
X74701540Y-87141556D01*
X74590664Y-87018415D01*
X74559948Y-86954410D01*
X74568712Y-86883956D01*
X74617999Y-86826962D01*
X74640152Y-86813254D01*
X74651550Y-86804220D01*
X74765051Y-86690521D01*
X74774063Y-86679110D01*
X74858365Y-86542346D01*
X74864509Y-86529168D01*
X74915227Y-86376260D01*
X74918093Y-86362894D01*
X74927672Y-86269399D01*
X74928000Y-86262984D01*
X74928000Y-86032115D01*
X74923525Y-86016876D01*
X74922135Y-86015671D01*
X74914452Y-86014000D01*
X73804500Y-86014000D01*
X73736379Y-85993998D01*
X73689886Y-85940342D01*
X73678500Y-85888000D01*
X73678500Y-85632000D01*
X73698502Y-85563879D01*
X73752158Y-85517386D01*
X73804500Y-85506000D01*
X74909884Y-85506000D01*
X74925123Y-85501525D01*
X74926328Y-85500135D01*
X74927999Y-85492452D01*
X74927999Y-85257067D01*
X74927662Y-85250548D01*
X74917834Y-85155830D01*
X74914942Y-85142436D01*
X74863964Y-84989635D01*
X74857790Y-84976457D01*
X74773256Y-84839851D01*
X74764220Y-84828450D01*
X74650521Y-84714949D01*
X74639110Y-84705937D01*
X74567441Y-84661760D01*
X74519948Y-84608988D01*
X74508524Y-84538916D01*
X74536798Y-84473793D01*
X74595792Y-84434293D01*
X74633557Y-84428500D01*
X75830478Y-84428500D01*
X75898599Y-84448502D01*
G37*
%TD.AperFunction*%
%TA.AperFunction,Conductor*%
G36*
X65945510Y-84448502D02*
G01*
X65992003Y-84502158D01*
X66002107Y-84572432D01*
X65972613Y-84637012D01*
X65955653Y-84653246D01*
X65950793Y-84657098D01*
X65836261Y-84771829D01*
X65827249Y-84783240D01*
X65742184Y-84921243D01*
X65736037Y-84934424D01*
X65684862Y-85088710D01*
X65681995Y-85102086D01*
X65672328Y-85196438D01*
X65672000Y-85202855D01*
X65672000Y-85452885D01*
X65676475Y-85468124D01*
X65677865Y-85469329D01*
X65685548Y-85471000D01*
X66808000Y-85471000D01*
X66876121Y-85491002D01*
X66922614Y-85544658D01*
X66934000Y-85597000D01*
X66934000Y-86939884D01*
X66938475Y-86955123D01*
X66939865Y-86956328D01*
X66947548Y-86957999D01*
X66977095Y-86957999D01*
X66983614Y-86957662D01*
X67079206Y-86947743D01*
X67092600Y-86944851D01*
X67246784Y-86893412D01*
X67259962Y-86887239D01*
X67397807Y-86801937D01*
X67409208Y-86792901D01*
X67523738Y-86678172D01*
X67530794Y-86669238D01*
X67588712Y-86628177D01*
X67659635Y-86624947D01*
X67721046Y-86660574D01*
X67727846Y-86668407D01*
X67731522Y-86674348D01*
X67856697Y-86799305D01*
X67862927Y-86803145D01*
X67862928Y-86803146D01*
X68000288Y-86887816D01*
X68007262Y-86892115D01*
X68041512Y-86903475D01*
X68168611Y-86945632D01*
X68168613Y-86945632D01*
X68175139Y-86947797D01*
X68181975Y-86948497D01*
X68181978Y-86948498D01*
X68225031Y-86952909D01*
X68279600Y-86958500D01*
X68880400Y-86958500D01*
X68883646Y-86958163D01*
X68883650Y-86958163D01*
X68979308Y-86948238D01*
X68979312Y-86948237D01*
X68986166Y-86947526D01*
X68992702Y-86945345D01*
X68992704Y-86945345D01*
X69124806Y-86901272D01*
X69153946Y-86891550D01*
X69304348Y-86798478D01*
X69429305Y-86673303D01*
X69485956Y-86581399D01*
X69518275Y-86528968D01*
X69518276Y-86528966D01*
X69522115Y-86522738D01*
X69538774Y-86472512D01*
X69579204Y-86414152D01*
X69644768Y-86386915D01*
X69719837Y-86402191D01*
X69769209Y-86429784D01*
X69947980Y-86487870D01*
X70134630Y-86510127D01*
X70140765Y-86509655D01*
X70140767Y-86509655D01*
X70315905Y-86496179D01*
X70315909Y-86496178D01*
X70322047Y-86495706D01*
X70407178Y-86471937D01*
X70497150Y-86446816D01*
X70497153Y-86446815D01*
X70503094Y-86445156D01*
X70508598Y-86442376D01*
X70508600Y-86442375D01*
X70665374Y-86363183D01*
X70665376Y-86363182D01*
X70670875Y-86360404D01*
X70818999Y-86244677D01*
X70842880Y-86217011D01*
X70902530Y-86178514D01*
X70973526Y-86178378D01*
X71033326Y-86216647D01*
X71063587Y-86286339D01*
X71067136Y-86320547D01*
X71072384Y-86371129D01*
X71074563Y-86377660D01*
X71074564Y-86377665D01*
X71111575Y-86488599D01*
X71127898Y-86537526D01*
X71220203Y-86686689D01*
X71344347Y-86810617D01*
X71350577Y-86814457D01*
X71350578Y-86814458D01*
X71364115Y-86822802D01*
X71411609Y-86875574D01*
X71424000Y-86930062D01*
X71424000Y-87811007D01*
X71403998Y-87879128D01*
X71387175Y-87900022D01*
X71275695Y-88011697D01*
X71271855Y-88017927D01*
X71271854Y-88017928D01*
X71210047Y-88118198D01*
X71182885Y-88162262D01*
X71163174Y-88221688D01*
X71135520Y-88305065D01*
X71127203Y-88330139D01*
X71126503Y-88336975D01*
X71126502Y-88336978D01*
X71123722Y-88364114D01*
X71116500Y-88434600D01*
X71116500Y-89220406D01*
X71096498Y-89288527D01*
X71042842Y-89335020D01*
X70972568Y-89345124D01*
X70907988Y-89315630D01*
X70901405Y-89309501D01*
X70098910Y-88507005D01*
X69083652Y-87491747D01*
X69076112Y-87483461D01*
X69072000Y-87476982D01*
X69022348Y-87430356D01*
X69019507Y-87427602D01*
X68999770Y-87407865D01*
X68996573Y-87405385D01*
X68987551Y-87397680D01*
X68961100Y-87372841D01*
X68955321Y-87367414D01*
X68948375Y-87363595D01*
X68948372Y-87363593D01*
X68937566Y-87357652D01*
X68921047Y-87346801D01*
X68911942Y-87339739D01*
X68905041Y-87334386D01*
X68897772Y-87331241D01*
X68897768Y-87331238D01*
X68864463Y-87316826D01*
X68853813Y-87311609D01*
X68815060Y-87290305D01*
X68795437Y-87285267D01*
X68776734Y-87278863D01*
X68765420Y-87273967D01*
X68765419Y-87273967D01*
X68758145Y-87270819D01*
X68750322Y-87269580D01*
X68750312Y-87269577D01*
X68714476Y-87263901D01*
X68702856Y-87261495D01*
X68667711Y-87252472D01*
X68667710Y-87252472D01*
X68660030Y-87250500D01*
X68639776Y-87250500D01*
X68620065Y-87248949D01*
X68607886Y-87247020D01*
X68600057Y-87245780D01*
X68592165Y-87246526D01*
X68556039Y-87249941D01*
X68544181Y-87250500D01*
X64575776Y-87250500D01*
X64556065Y-87248949D01*
X64543886Y-87247020D01*
X64536057Y-87245780D01*
X64528165Y-87246526D01*
X64492039Y-87249941D01*
X64480181Y-87250500D01*
X64434920Y-87250500D01*
X64366799Y-87230498D01*
X64320306Y-87176842D01*
X64309610Y-87137671D01*
X64292632Y-86976135D01*
X64292632Y-86976133D01*
X64291942Y-86969572D01*
X64270466Y-86903475D01*
X64257240Y-86862769D01*
X64255213Y-86791801D01*
X64287898Y-86734817D01*
X64349305Y-86673303D01*
X64429159Y-86543757D01*
X64438275Y-86528968D01*
X64438276Y-86528966D01*
X64442115Y-86522738D01*
X64478131Y-86414152D01*
X64495632Y-86361389D01*
X64495632Y-86361387D01*
X64497797Y-86354861D01*
X64508500Y-86250400D01*
X64508500Y-86247095D01*
X65672001Y-86247095D01*
X65672338Y-86253614D01*
X65682257Y-86349206D01*
X65685149Y-86362600D01*
X65736588Y-86516784D01*
X65742761Y-86529962D01*
X65828063Y-86667807D01*
X65837099Y-86679208D01*
X65951829Y-86793739D01*
X65963240Y-86802751D01*
X66101243Y-86887816D01*
X66114424Y-86893963D01*
X66268710Y-86945138D01*
X66282086Y-86948005D01*
X66376438Y-86957672D01*
X66382854Y-86958000D01*
X66407885Y-86958000D01*
X66423124Y-86953525D01*
X66424329Y-86952135D01*
X66426000Y-86944452D01*
X66426000Y-85997115D01*
X66421525Y-85981876D01*
X66420135Y-85980671D01*
X66412452Y-85979000D01*
X65690116Y-85979000D01*
X65674877Y-85983475D01*
X65673672Y-85984865D01*
X65672001Y-85992548D01*
X65672001Y-86247095D01*
X64508500Y-86247095D01*
X64508500Y-85199600D01*
X64503371Y-85150165D01*
X64498238Y-85100692D01*
X64498237Y-85100688D01*
X64497526Y-85093834D01*
X64485088Y-85056551D01*
X64443868Y-84933002D01*
X64441550Y-84926054D01*
X64348478Y-84775652D01*
X64288106Y-84715385D01*
X64228481Y-84655863D01*
X64228476Y-84655859D01*
X64223303Y-84650695D01*
X64223379Y-84650619D01*
X64184274Y-84595462D01*
X64181044Y-84524539D01*
X64216670Y-84463128D01*
X64279842Y-84430728D01*
X64303430Y-84428500D01*
X65877389Y-84428500D01*
X65945510Y-84448502D01*
G37*
%TD.AperFunction*%
%TD*%
M02*
